<?xml version="1.0" standalone="no"?>
<!DOCTYPE svg PUBLIC "-//W3C//DTD SVG 20010904//EN"
 "http://www.w3.org/TR/2001/REC-SVG-20010904/DTD/svg10.dtd">
<svg version="1.0" xmlns="http://www.w3.org/2000/svg"
 width="1920.000000pt" height="1920.000000pt" viewBox="0 0 1920.000000 1920.000000"
 preserveAspectRatio="xMidYMid meet">

<g transform="translate(0.000000,1920.000000) scale(0.100000,-0.100000)"
fill="#000000" stroke="none">
<path d="M9490 17628 c-47 -28 -157 -92 -245 -143 -88 -50 -279 -161 -425
-245 -146 -84 -368 -212 -495 -285 -126 -72 -291 -167 -365 -210 -166 -96
-520 -301 -780 -450 -107 -62 -294 -170 -415 -240 -121 -70 -292 -168 -380
-219 l-160 -91 612 -3 613 -2 202 117 c112 64 246 141 298 171 52 30 178 103
280 162 174 100 296 170 793 457 111 64 283 163 382 221 208 122 173 120 352
14 65 -38 199 -116 298 -173 99 -57 245 -141 325 -187 80 -46 240 -138 355
-204 116 -66 246 -142 290 -168 44 -27 157 -92 250 -145 94 -54 236 -135 316
-181 l147 -84 608 0 c512 0 606 2 594 14 -8 7 -85 53 -170 101 -266 152 -521
299 -620 357 -52 30 -203 117 -335 193 -132 76 -292 169 -355 205 -63 37 -180
104 -260 150 -80 45 -197 112 -260 150 -63 37 -227 132 -365 210 -137 79 -315
182 -395 228 -80 47 -194 113 -255 147 -60 34 -157 90 -215 124 -58 33 -112
61 -120 61 -8 -1 -53 -24 -100 -52z"/>
<path d="M9460 15974 c-69 -41 -170 -100 -225 -131 -55 -31 -163 -93 -240
-138 -77 -46 -192 -112 -255 -148 -63 -35 -230 -131 -370 -212 -140 -81 -342
-198 -449 -259 l-195 -111 611 -3 610 -2 124 72 c68 39 192 110 274 158 83 49
173 100 201 116 l50 28 145 -86 c79 -47 223 -131 320 -187 l176 -101 609 0
c548 1 607 2 589 16 -11 8 -76 47 -145 86 -69 38 -192 109 -275 158 -199 115
-535 310 -660 381 -88 50 -298 171 -637 367 -58 34 -112 64 -120 66 -7 2 -69
-29 -138 -70z"/>
<path d="M5290 12896 l0 -2654 218 -125 c365 -210 411 -236 602 -347 102 -59
230 -133 285 -165 100 -57 358 -206 785 -453 124 -71 259 -149 300 -172 41
-24 170 -98 285 -165 116 -67 302 -175 415 -240 113 -65 275 -158 360 -208 85
-50 191 -111 235 -135 44 -25 143 -82 220 -127 77 -45 243 -141 368 -214 l229
-132 76 44 c115 65 397 228 567 327 83 48 258 149 390 225 132 76 283 163 335
193 52 31 178 104 280 162 102 59 286 165 410 237 124 71 275 158 335 192 61
35 193 112 295 171 102 58 293 169 425 245 132 76 308 177 390 225 83 48 254
147 380 220 127 73 272 157 323 187 l92 54 0 2654 c0 1460 -3 2655 -7 2655 -5
0 -35 -16 -68 -36 -33 -20 -148 -87 -255 -149 -107 -61 -314 -181 -460 -265
-146 -84 -350 -203 -455 -263 -104 -60 -262 -151 -350 -202 -202 -117 -550
-317 -815 -470 -113 -64 -241 -139 -285 -165 -44 -26 -188 -109 -320 -185
-132 -76 -307 -177 -390 -225 -82 -48 -188 -109 -235 -135 -47 -27 -143 -83
-215 -125 -182 -107 -434 -250 -441 -250 -7 0 -136 73 -424 240 -102 59 -291
168 -420 242 -129 75 -323 187 -430 248 -107 62 -265 154 -350 203 -85 50
-190 110 -233 134 -43 24 -158 90 -255 147 -97 56 -285 165 -417 241 -132 75
-292 168 -355 205 -63 37 -191 112 -285 165 -330 190 -502 288 -650 375 -82
48 -221 128 -308 178 -87 51 -162 92 -167 92 -7 0 -10 -944 -10 -2654z m701
1551 c41 -24 112 -65 159 -92 89 -51 424 -244 810 -467 124 -72 275 -158 335
-193 61 -34 162 -93 225 -130 63 -37 165 -96 225 -130 61 -34 214 -122 340
-195 127 -73 334 -193 460 -265 315 -181 401 -231 615 -355 306 -177 424 -243
435 -243 6 0 96 50 200 110 105 60 298 171 430 247 132 76 245 142 250 146 6
4 82 48 170 98 88 49 259 147 380 217 121 70 283 163 360 207 77 44 208 119
290 167 141 83 314 182 855 494 124 71 266 153 317 183 133 78 352 203 396
225 l37 19 0 -1943 0 -1944 -107 -63 c-60 -35 -166 -97 -238 -138 -71 -41
-197 -114 -280 -162 -82 -48 -258 -149 -390 -225 -132 -76 -303 -175 -380
-220 -77 -45 -203 -118 -280 -163 -77 -44 -237 -136 -355 -204 -118 -69 -305
-176 -415 -240 -110 -63 -285 -165 -390 -225 -104 -60 -298 -172 -430 -248
-132 -76 -251 -145 -265 -155 -14 -9 -55 -33 -91 -53 l-66 -36 -114 66 c-63
36 -186 107 -274 158 -88 51 -259 150 -380 220 -303 175 -660 381 -780 450
-55 32 -183 106 -285 165 -102 59 -230 134 -285 165 -220 127 -502 290 -735
425 -135 78 -297 172 -360 208 -63 36 -194 112 -290 168 l-175 102 -3 1946
c-1 1070 0 1946 2 1946 2 0 37 -19 77 -43z"/>
<path d="M7325 4933 c-34 -8 -98 -12 -147 -10 l-88 3 0 -27 c0 -23 5 -27 38
-33 21 -3 45 -14 54 -23 36 -42 38 -77 38 -620 0 -457 -2 -538 -15 -563 -18
-35 -43 -50 -84 -50 -27 0 -31 -3 -31 -28 l0 -28 210 0 211 0 -3 25 c-2 21
-10 27 -41 32 -63 10 -66 22 -67 222 0 174 0 177 21 177 36 0 81 -52 207 -238
86 -128 97 -158 60 -164 -17 -2 -23 -10 -23 -28 l0 -25 178 -1 177 0 0 28 c0
21 -5 28 -19 28 -28 0 -73 42 -127 118 -26 37 -50 69 -54 72 -11 10 -189 257
-209 291 l-20 35 116 122 c110 117 154 151 216 166 20 5 27 12 27 31 l0 25
-186 0 -185 0 3 -22 c2 -18 13 -25 54 -34 64 -14 74 -20 74 -46 0 -60 -231
-288 -292 -288 -17 0 -18 22 -18 429 0 237 -3 431 -7 433 -5 3 -35 -2 -68 -9z"/>
<path d="M11620 4938 c-14 -6 -79 -12 -145 -14 -117 -3 -120 -3 -120 -26 0
-18 7 -24 41 -31 84 -16 79 25 82 -627 2 -550 2 -578 -16 -600 -12 -15 -34
-25 -63 -29 -38 -5 -44 -9 -47 -32 l-3 -26 223 1 223 1 0 25 c0 22 -5 26 -42
31 -52 7 -70 21 -83 68 -6 22 -10 268 -10 654 0 339 -3 617 -7 616 -5 0 -19
-5 -33 -11z"/>
<path d="M10142 4881 c-99 -63 -47 -221 73 -221 39 0 90 35 105 70 18 43 7
108 -23 138 -35 35 -110 41 -155 13z"/>
<path d="M10632 4854 c-26 -18 -52 -65 -52 -93 0 -28 31 -78 59 -93 36 -19 96
-16 121 7 42 38 54 73 39 117 -7 22 -24 48 -37 59 -30 23 -99 25 -130 3z"/>
<path d="M11007 4859 c-52 -30 -62 -122 -19 -170 24 -27 36 -32 75 -33 79 -2
127 53 113 130 -11 54 -48 84 -104 84 -26 0 -55 -5 -65 -11z"/>
<path d="M4467 4803 c-4 -3 -7 -14 -7 -23 0 -13 15 -20 59 -29 95 -19 92 0 89
-588 -3 -481 -3 -492 -24 -520 -16 -21 -31 -29 -62 -31 -44 -3 -68 -23 -58
-47 5 -13 41 -15 256 -15 l250 0 0 24 c0 28 -16 36 -77 36 -36 0 -50 6 -74 29
l-29 30 2 233 3 233 50 3 c131 9 185 -24 205 -126 21 -108 19 -104 46 -100
l26 3 -1 249 c-1 137 -4 253 -7 258 -3 4 -14 8 -25 8 -22 0 -39 -35 -39 -83
-1 -43 -32 -110 -61 -131 -17 -12 -46 -16 -112 -16 l-88 0 3 255 c3 229 5 256
21 272 16 16 38 18 180 18 145 0 165 -2 192 -20 59 -39 79 -81 95 -198 13 -90
21 -107 50 -100 19 5 20 15 20 142 0 75 3 160 6 189 l7 52 -445 0 c-245 0
-448 -3 -451 -7z"/>
<path d="M8710 4786 c0 -22 6 -26 47 -32 28 -4 56 -16 70 -30 l23 -23 0 -519
c0 -595 5 -561 -86 -571 -44 -5 -49 -9 -52 -33 l-3 -28 231 0 c197 0 231 2
236 15 10 25 -16 45 -56 45 -30 0 -43 6 -59 27 -21 25 -21 36 -19 272 l3 246
250 3 c138 1 260 0 273 -3 22 -5 22 -6 22 -223 0 -212 -7 -283 -29 -305 -6 -6
-32 -14 -59 -17 -42 -4 -47 -8 -50 -32 l-3 -28 231 0 231 0 -3 28 c-3 24 -8
28 -50 32 -57 7 -67 15 -79 66 -11 51 -11 958 1 1009 11 48 27 61 85 70 39 5
45 9 45 31 l0 24 -230 0 -230 0 0 -24 c0 -22 6 -26 46 -32 89 -13 97 -42 92
-344 l-3 -195 -272 -3 -273 -2 0 245 c0 244 0 246 23 269 14 14 42 26 71 30
41 6 47 10 44 29 -3 22 -5 22 -235 25 l-233 2 0 -24z"/>
<path d="M8315 4754 c-22 -7 -59 -13 -82 -13 l-42 -1 -3 -132 -3 -133 -82 -3
c-80 -3 -83 -4 -83 -27 0 -23 3 -24 83 -27 l82 -3 6 -360 c6 -401 5 -400 77
-471 78 -79 218 -85 306 -12 42 34 85 119 89 173 2 36 0 40 -22 40 -19 0 -26
-8 -37 -43 -16 -54 -52 -108 -82 -121 -40 -19 -89 -13 -119 13 l-28 24 0 379
0 378 128 3 127 3 0 24 0 24 -127 3 -128 3 -5 142 c-3 78 -7 143 -10 145 -3 3
-23 -1 -45 -8z"/>
<path d="M5685 4480 c-16 -4 -76 -8 -132 -9 -102 -1 -103 -1 -103 -25 0 -24
16 -36 49 -36 10 0 28 -12 42 -26 l24 -26 3 -349 3 -349 -25 -25 c-17 -17 -36
-25 -61 -25 -32 0 -35 -3 -35 -27 l0 -28 245 -1 245 -1 0 28 c0 28 -2 29 -46
29 -25 0 -60 7 -78 15 -58 28 -61 40 -64 268 -5 254 5 322 57 409 41 68 115
128 157 128 28 0 30 -8 9 -36 -15 -20 -20 -101 -7 -120 17 -24 59 -44 94 -44
53 0 97 41 105 97 7 57 -11 99 -60 134 -34 25 -49 29 -104 29 -91 0 -164 -42
-220 -127 -23 -35 -33 -18 -33 58 0 75 0 76 -65 59z"/>
<path d="M6460 4472 c-117 -44 -180 -108 -180 -185 0 -55 53 -107 109 -107 23
0 52 7 65 15 53 35 58 124 10 172 -14 14 -23 31 -20 38 13 34 173 47 227 19
45 -23 59 -67 59 -185 0 -98 -1 -102 -29 -128 -27 -25 -55 -40 -140 -73 -177
-68 -290 -149 -310 -223 -21 -77 -8 -153 34 -204 86 -102 310 -94 409 14 37
40 46 43 46 15 0 -11 18 -38 40 -60 39 -39 42 -40 110 -40 56 0 78 5 117 27
59 32 66 43 47 65 -15 16 -18 16 -53 -3 -44 -22 -68 -17 -82 18 -5 13 -9 165
-9 337 0 352 -4 379 -68 440 -20 20 -56 42 -81 51 -62 21 -240 19 -301 -3z
m272 -434 c2 -7 1 -80 -2 -162 l-5 -148 -48 -44 c-79 -71 -188 -73 -235 -4
-21 30 -23 44 -20 107 5 100 31 131 174 204 119 61 130 65 136 47z"/>
<path d="M10245 4479 c-22 -4 -84 -8 -137 -8 -97 -1 -98 -1 -98 -25 0 -25 4
-27 63 -40 16 -4 36 -20 47 -39 19 -31 20 -52 20 -510 0 -460 -1 -479 -20
-521 -12 -24 -32 -48 -47 -55 -33 -15 -36 -11 -22 27 14 42 -3 94 -37 113 -14
7 -44 12 -67 12 -58 -3 -87 -37 -87 -103 0 -41 4 -52 30 -74 79 -66 244 -35
324 60 16 19 40 62 53 96 44 108 52 216 53 666 0 462 8 419 -75 401z"/>
<path d="M10722 4470 c-63 -23 -109 -50 -142 -85 -18 -19 -25 -39 -28 -85 -4
-55 -2 -61 26 -90 25 -25 38 -30 77 -30 38 0 52 5 76 29 42 42 41 106 -1 154
-16 19 -30 37 -30 40 0 3 20 13 44 22 32 12 65 16 116 13 59 -3 74 -8 96 -29
32 -32 43 -81 44 -183 0 -77 -1 -79 -35 -111 -18 -18 -69 -47 -112 -65 -282
-116 -343 -171 -343 -313 0 -80 32 -134 101 -171 40 -22 59 -26 132 -26 47 0
88 4 91 9 3 4 18 11 34 14 16 3 51 26 79 51 l50 45 16 -39 c22 -57 65 -80 149
-80 58 0 75 4 118 31 54 33 56 37 37 63 -12 17 -15 17 -56 -5 -40 -20 -44 -21
-59 -5 -15 15 -18 56 -22 354 -5 309 -7 340 -25 377 -29 59 -55 85 -110 111
-43 21 -65 24 -160 24 -82 -1 -123 -5 -163 -20z m278 -568 c0 -142 -1 -150
-25 -181 -45 -62 -90 -86 -160 -86 -71 0 -97 16 -121 74 -20 49 -17 95 11 154
27 58 56 80 179 143 124 62 116 69 116 -104z"/>
<path d="M12095 4479 c-22 -4 -84 -8 -137 -8 -97 -1 -98 -1 -98 -26 0 -19 6
-26 28 -31 105 -22 102 -4 102 -584 0 -474 -1 -488 -20 -513 -13 -16 -33 -27
-53 -29 -26 -2 -33 -8 -35 -28 l-3 -25 228 0 228 0 0 25 c0 23 -5 25 -51 30
-58 6 -101 31 -109 63 -3 12 -5 70 -3 130 l3 107 36 -24 c20 -14 64 -30 97
-37 180 -37 356 79 431 286 17 46 41 185 41 234 0 64 -29 198 -56 256 -32 71
-86 129 -146 159 -44 22 -65 26 -137 26 -104 0 -164 -24 -228 -91 l-43 -44 0
68 c0 74 2 72 -75 56z m337 -61 c61 -18 87 -50 129 -158 19 -48 20 -453 2
-472 -7 -6 -13 -20 -13 -30 0 -31 -61 -119 -101 -144 -31 -19 -52 -24 -104
-24 -73 0 -95 8 -142 53 l-33 31 0 279 0 278 26 55 c28 59 82 111 135 130 44
16 54 16 101 2z"/>
<path d="M13185 4472 c-106 -46 -154 -92 -206 -198 -42 -84 -58 -163 -59 -277
0 -160 35 -262 121 -352 63 -66 126 -99 218 -116 160 -28 317 47 387 184 20
38 23 52 13 63 -20 25 -36 16 -76 -43 -47 -69 -109 -105 -194 -111 -72 -5
-130 20 -187 82 -61 66 -84 139 -86 271 l-1 110 274 3 274 2 -6 78 c-9 139
-60 234 -156 290 -42 25 -56 27 -161 29 -92 2 -123 -1 -155 -15z m187 -43 c51
-23 98 -128 98 -221 l0 -58 -175 0 -175 0 0 35 c0 84 75 220 135 245 29 12 90
12 117 -1z"/>
<path d="M14015 4479 c-22 -4 -84 -8 -137 -8 -97 -1 -98 -1 -98 -25 0 -25 4
-27 63 -40 16 -4 36 -20 47 -39 19 -30 20 -51 20 -367 0 -383 1 -378 -81 -389
-38 -5 -44 -10 -47 -32 l-3 -26 216 1 216 0 -3 25 c-3 22 -9 26 -40 29 -26 2
-44 11 -58 29 -19 24 -20 40 -20 280 0 206 3 266 16 311 32 112 100 178 193
189 65 7 112 -10 136 -50 19 -30 20 -52 20 -373 0 -319 -1 -343 -19 -362 -10
-12 -34 -22 -55 -24 -31 -3 -36 -6 -36 -28 l0 -25 210 0 210 0 0 25 c0 22 -5
26 -40 30 -93 13 -95 21 -95 403 l0 313 -25 51 c-17 33 -41 61 -68 79 -38 26
-51 29 -145 32 -95 4 -107 2 -156 -22 -30 -15 -72 -47 -95 -71 -23 -25 -44
-45 -46 -45 -3 0 -5 32 -5 70 0 78 3 75 -75 59z"/>
</g>
</svg>
