<?xml version="1.0" standalone="no"?>
<!DOCTYPE svg PUBLIC "-//W3C//DTD SVG 20010904//EN"
 "http://www.w3.org/TR/2001/REC-SVG-20010904/DTD/svg10.dtd">
<svg version="1.0" xmlns="http://www.w3.org/2000/svg"
 width="1920.000000pt" height="1920.000000pt" viewBox="0 0 1920.000000 1920.000000"
 preserveAspectRatio="xMidYMid meet">

<g transform="translate(0.000000,1920.000000) scale(0.100000,-0.100000)"
fill="#000000" stroke="none">
<path d="M0 9605 l0 -9595 9595 0 9595 0 0 9595 0 9595 -9595 0 -9595 0 0
-9595z m9710 8014 c58 -34 155 -90 215 -124 61 -34 175 -100 255 -147 80 -46
258 -149 395 -228 138 -78 302 -173 365 -210 63 -38 180 -105 260 -150 80 -46
197 -113 260 -150 63 -36 223 -129 355 -205 132 -76 283 -163 335 -193 99 -58
354 -205 620 -357 85 -48 162 -94 170 -101 12 -12 -82 -14 -594 -14 l-608 0
-147 84 c-80 46 -222 127 -316 181 -93 53 -206 118 -250 145 -44 26 -174 102
-290 168 -115 66 -275 158 -355 204 -80 46 -226 130 -325 187 -99 57 -233 135
-298 173 -173 103 -159 100 -258 41 -46 -28 -158 -94 -249 -145 -91 -52 -284
-164 -430 -248 -146 -84 -353 -204 -460 -265 -107 -62 -283 -163 -390 -225
-107 -62 -268 -155 -358 -207 l-163 -93 -612 2 -612 3 160 91 c88 51 259 149
380 219 121 70 308 178 415 240 260 149 614 354 780 450 74 43 239 138 365
210 127 73 349 201 495 285 146 84 337 195 425 245 88 51 198 115 245 143 47
28 92 51 100 52 8 0 62 -28 120 -61z m8 -1641 c339 -196 549 -317 637 -367
125 -71 461 -266 660 -381 83 -49 206 -120 275 -158 69 -39 134 -78 145 -86
18 -14 -41 -15 -589 -16 l-609 0 -176 101 c-97 56 -241 140 -320 187 l-145 86
-50 -28 c-28 -16 -118 -67 -201 -116 -82 -48 -206 -119 -274 -158 l-124 -72
-610 2 -611 3 195 111 c107 61 309 178 449 259 140 81 307 177 370 212 63 36
178 102 255 148 77 45 185 107 240 138 55 31 156 90 225 131 69 41 131 72 138
70 8 -2 62 -32 120 -66z m-4251 -520 c87 -50 226 -130 308 -178 148 -87 320
-185 650 -375 94 -53 222 -128 285 -165 63 -37 223 -130 355 -205 132 -76 320
-185 417 -241 97 -57 212 -123 255 -147 43 -24 148 -84 233 -134 150 -87 282
-163 780 -451 129 -74 318 -183 420 -242 267 -155 417 -240 424 -240 7 0 259
143 441 250 72 42 168 98 215 125 47 26 153 87 235 135 83 48 258 149 390 225
132 76 276 159 320 185 44 26 172 101 285 165 265 153 613 353 815 470 88 51
246 142 350 202 105 60 309 179 455 263 146 84 353 204 460 265 107 62 222
129 255 149 33 20 63 36 68 36 4 0 6 -1195 5 -2656 l-3 -2657 -85 -49 c-47
-27 -191 -111 -320 -185 -129 -75 -302 -175 -385 -223 -82 -48 -258 -149 -390
-225 -132 -76 -323 -187 -425 -245 -102 -59 -234 -136 -295 -171 -60 -34 -211
-121 -335 -192 -124 -72 -308 -178 -410 -237 -102 -58 -228 -131 -280 -162
-52 -30 -203 -117 -335 -193 -132 -76 -307 -177 -390 -225 -170 -99 -452 -262
-567 -327 l-76 -44 -229 132 c-125 73 -291 169 -368 214 -77 45 -176 102 -220
127 -44 24 -150 85 -235 135 -85 50 -247 143 -360 208 -113 65 -299 173 -415
240 -115 67 -244 141 -285 165 -41 23 -176 101 -300 172 -427 247 -685 396
-785 453 -55 32 -183 106 -285 165 -102 59 -230 133 -285 165 -55 31 -198 113
-317 182 l-218 125 0 2654 c0 1710 3 2654 10 2654 5 0 80 -41 167 -92z m11373
-7873 c-12 -13 -26 -22 -30 -20 -4 3 -10 -4 -13 -15 -3 -11 -13 -20 -24 -20
-15 0 -16 2 -3 10 8 5 10 10 4 10 -6 0 -18 -8 -25 -17 -8 -10 -9 -14 -2 -10
18 11 25 -9 8 -23 -13 -11 -18 -10 -29 6 -8 10 -18 16 -22 11 -4 -4 -1 -7 7
-7 11 0 11 -2 -1 -10 -13 -8 -12 -10 3 -10 27 0 21 -12 -32 -63 -32 -30 -55
-45 -65 -41 -12 5 -16 -1 -16 -21 0 -14 -4 -24 -9 -20 -5 3 -16 -3 -23 -14
-10 -15 -15 -16 -25 -6 -6 7 -9 16 -6 19 4 3 2 6 -3 6 -6 0 -15 -5 -22 -12 -6
-6 -15 -8 -19 -4 -4 4 -1 12 7 17 13 9 13 10 0 6 -8 -2 -16 -16 -17 -31 -2
-28 -2 -28 18 -10 17 15 22 16 29 4 12 -19 -28 -63 -49 -55 -9 3 -12 3 -8 -1
11 -11 -13 -33 -29 -27 -9 3 -14 0 -12 -8 2 -8 -3 -13 -12 -11 -8 2 -12 0 -8
-4 12 -12 -12 -33 -29 -27 -11 4 -14 2 -9 -5 4 -7 2 -12 -3 -12 -6 0 -11 -8
-11 -17 0 -13 -3 -14 -12 -5 -7 7 -17 12 -22 12 -6 0 -5 -4 2 -9 11 -6 10 -11
-4 -25 -9 -9 -23 -15 -30 -12 -8 3 -14 -1 -14 -9 0 -21 -31 -35 -52 -24 -12 6
-18 6 -18 -1 0 -5 5 -10 11 -10 8 0 7 -5 -2 -16 -7 -9 -22 -14 -36 -11 -19 3
-21 2 -12 -9 9 -11 6 -14 -14 -14 -14 0 -29 5 -32 10 -3 6 -12 10 -18 9 -9 0
-8 -2 1 -6 7 -2 17 -14 23 -25 10 -18 9 -20 -5 -15 -10 4 -14 3 -11 -3 3 -5
-12 -18 -34 -30 -47 -23 -63 -26 -35 -6 10 8 16 17 12 21 -3 4 -15 -2 -26 -13
-16 -16 -17 -20 -4 -28 12 -8 10 -12 -12 -22 -15 -7 -24 -8 -21 -2 3 5 -1 10
-9 10 -8 0 -18 -4 -21 -10 -3 -5 0 -10 7 -10 17 0 -14 -31 -35 -34 -9 -1 -25
-10 -35 -19 -23 -21 -121 -59 -133 -51 -5 3 -6 -1 -3 -9 3 -8 0 -18 -7 -23 -8
-5 -10 -3 -4 6 5 8 3 11 -6 8 -8 -3 -13 -11 -11 -17 1 -7 -14 -19 -35 -27 -21
-9 -42 -23 -48 -31 -6 -8 -17 -15 -25 -16 -8 -2 -24 -8 -35 -14 -13 -7 -26 -8
-37 -2 -13 7 -16 6 -13 -3 7 -18 -47 -49 -64 -38 -8 4 -10 13 -7 19 4 6 3 11
-3 11 -17 0 -18 -25 -2 -38 14 -11 14 -11 -3 -5 -14 4 -17 3 -12 -6 4 -6 -7
-3 -26 9 -18 11 -40 20 -48 19 -8 0 2 -7 23 -16 20 -8 37 -19 37 -23 0 -6 -45
-28 -70 -34 -3 -1 -11 -5 -17 -9 -7 -5 -18 -5 -25 -1 -7 4 -8 3 -4 -5 9 -13
-32 -31 -53 -23 -9 3 -12 1 -8 -5 4 -7 -7 -16 -27 -23 -19 -6 -39 -17 -46 -25
-6 -8 -26 -12 -46 -11 -30 3 -33 1 -22 -13 7 -9 9 -13 4 -9 -5 4 -18 2 -30 -4
-11 -7 -25 -11 -29 -10 -5 1 -22 -7 -38 -18 -16 -12 -29 -18 -29 -14 0 5 -5 3
-11 -3 -8 -8 -18 -8 -33 -2 -14 7 -30 7 -46 -1 -22 -9 -21 -9 10 -4 59 10 21
-15 -76 -52 -67 -25 -93 -30 -111 -23 -15 5 -22 5 -18 0 3 -5 0 -11 -7 -14 -7
-2 -2 -2 12 0 l25 3 -24 -14 c-13 -7 -33 -11 -44 -8 -14 3 -18 1 -13 -6 9 -15
-6 -16 -22 -2 -6 6 -10 7 -7 3 7 -9 -33 -35 -45 -28 -6 3 -10 2 -10 -4 0 -6
-17 -13 -37 -17 -21 -4 -51 -13 -66 -21 -16 -8 -31 -12 -35 -9 -3 3 1 6 9 6 8
1 3 7 -11 15 -14 8 -34 14 -45 14 -12 -1 -8 -4 12 -10 57 -17 20 -48 -45 -40
-8 1 -23 -4 -35 -12 -12 -8 -33 -16 -47 -19 -14 -3 -34 -9 -45 -13 l-20 -8 20
16 c19 14 17 15 -17 4 -25 -8 -33 -14 -25 -20 7 -5 -2 -6 -21 -3 -18 3 -31 2
-28 -3 3 -5 -10 -11 -28 -13 -19 -2 -32 0 -30 4 8 13 -31 9 -60 -5 -14 -8 -22
-18 -18 -22 4 -5 2 -5 -5 -1 -7 4 -20 2 -30 -3 -27 -15 -113 -30 -113 -20 0 5
-5 9 -11 9 -5 0 -7 -4 -4 -10 4 -6 -12 -10 -40 -10 -25 0 -44 -3 -42 -7 3 -5
-5 -9 -16 -9 -79 -5 -97 -8 -97 -16 0 -4 -30 -8 -66 -8 -49 0 -63 -3 -58 -12
4 -7 4 -10 0 -6 -5 4 -19 3 -33 -3 -16 -6 -22 -6 -18 1 7 11 -27 6 -73 -11
-30 -12 -53 -10 -27 1 14 6 15 9 5 9 -9 1 -21 -4 -27 -10 -12 -12 -106 -15
-168 -5 -29 4 -33 3 -15 -3 19 -6 21 -10 10 -14 -28 -12 -93 -15 -124 -6 -16
5 -32 5 -35 0 -4 -4 -37 -11 -76 -14 -50 -5 -66 -4 -55 4 11 8 9 8 -10 2 -14
-4 -234 -8 -489 -8 -363 0 -465 3 -469 13 -2 6 -13 12 -25 11 -21 0 -21 -1 -2
-10 16 -7 12 -8 -14 -4 -18 3 -48 5 -65 6 -23 0 -26 2 -13 8 10 3 -35 7 -100
8 -155 1 -207 4 -191 14 6 4 26 6 43 3 l30 -4 -33 10 c-19 6 -39 7 -50 2 -21
-11 -154 -3 -146 9 3 5 -26 9 -65 9 -38 0 -73 5 -76 10 -3 6 -33 10 -65 10
-44 0 -61 4 -68 16 -8 14 -13 14 -33 4 -14 -8 -24 -9 -26 -3 -2 6 -14 8 -27 6
-13 -3 -27 0 -30 6 -4 6 -29 11 -56 11 -27 0 -52 5 -55 10 -3 6 -17 10 -30 10
-13 0 -31 3 -39 6 -15 6 -15 8 1 21 16 13 16 13 -4 3 -13 -6 -23 -14 -23 -19
0 -14 -124 12 -137 28 -9 12 -15 13 -20 4 -5 -6 -20 -9 -36 -6 -22 4 -26 8
-15 15 10 7 8 8 -5 4 -34 -11 -128 6 -147 26 -17 19 -19 19 -28 2 -9 -17 -11
-17 -37 0 -15 10 -36 15 -47 13 -11 -3 -54 3 -97 14 -42 11 -92 22 -111 25
-66 8 -88 15 -104 33 -14 15 -29 18 -82 16 -38 -2 -62 1 -58 6 3 6 -6 7 -23 4
-19 -5 -24 -4 -15 3 19 13 -30 26 -86 23 -23 -2 -48 2 -55 7 -7 5 -30 12 -52
15 -112 15 -137 21 -142 33 -3 8 -19 11 -49 8 -28 -2 -43 0 -39 6 3 6 3 10 -2
10 -131 7 -173 15 -173 32 0 6 -12 7 -27 4 -18 -4 -23 -3 -15 2 10 7 7 11 -12
14 -17 3 -26 1 -26 -7 0 -8 -9 -10 -25 -7 -14 2 -25 9 -25 14 0 5 5 6 12 2 7
-5 8 -3 3 5 -5 9 -10 10 -18 2 -7 -7 -18 -6 -36 3 -14 7 -45 12 -69 11 -23 -2
-44 1 -47 6 -3 4 -12 6 -19 3 -7 -3 -34 2 -60 11 -25 9 -52 13 -58 9 -7 -5 -8
-3 -3 6 6 10 4 12 -8 7 -11 -4 -17 -1 -17 8 0 8 -7 15 -16 15 -9 0 -12 5 -8
12 5 7 3 8 -6 3 -10 -6 -10 -10 3 -20 13 -9 9 -11 -21 -12 -27 0 -32 1 -17 7
13 5 -2 8 -42 9 -88 2 -93 3 -86 14 4 6 -2 8 -14 5 -18 -5 -74 2 -142 16 -14
3 -61 10 -105 17 -45 6 -117 19 -161 28 -44 10 -105 19 -135 20 -30 0 -66 3
-80 6 -14 3 -68 8 -120 11 -52 3 -108 11 -125 17 -16 6 -41 11 -55 9 -23 -2
-23 -1 -5 8 17 9 17 10 -5 4 -14 -3 -36 -8 -49 -11 -14 -4 -27 0 -32 8 -5 8
-9 9 -9 3 0 -14 -62 -5 -72 10 -5 7 -8 7 -8 -3 0 -11 -3 -11 -15 -1 -9 7 -36
11 -70 8 -30 -1 -55 -1 -55 2 0 3 -28 6 -63 7 -119 4 -892 4 -957 0 -36 -2
-90 0 -120 4 -66 8 -94 -3 -30 -13 29 -4 16 -5 -37 -3 -46 2 -83 0 -83 -4 0
-4 -39 -6 -86 -4 -47 2 -83 0 -81 -4 9 -14 -109 -21 -178 -10 -35 6 -36 6 -7
-2 43 -11 49 -18 15 -17 -16 0 -39 -4 -53 -8 -22 -8 -23 -7 -11 8 7 9 9 16 3
16 -5 0 -12 -7 -16 -15 -6 -17 -76 -21 -76 -5 0 7 -8 6 -22 -1 -23 -12 -34
-14 -118 -24 -25 -2 -60 -9 -78 -14 -19 -6 -48 -8 -65 -5 -24 3 -27 2 -12 -4
15 -7 9 -10 -29 -15 -27 -4 -63 -7 -81 -7 -17 0 -35 -3 -38 -7 -4 -3 -17 -7
-30 -8 -23 -3 -118 -21 -152 -31 -16 -4 -17 -3 -5 5 9 7 10 11 3 11 -7 0 -16
-7 -21 -15 -7 -13 -14 -14 -36 -5 -15 5 -39 9 -54 9 -23 -1 -22 -3 8 -9 l35
-7 -28 -11 c-16 -7 -43 -12 -62 -12 -19 0 -37 -4 -40 -10 -10 -16 -24 -12 -50
16 l-25 27 0 -27 c0 -18 5 -26 18 -27 18 -1 -7 -10 -63 -23 -22 -5 -26 -4 -15
4 9 6 10 10 3 10 -6 0 -18 -6 -25 -13 -7 -8 -19 -12 -27 -9 -11 4 -11 6 0 14
10 7 8 8 -6 2 -11 -4 -31 -7 -45 -7 -20 1 -22 0 -7 -8 9 -6 22 -7 29 -3 6 4 8
3 5 -3 -4 -6 -19 -13 -34 -16 -16 -3 -39 -8 -53 -12 -14 -4 -50 -9 -80 -12
-30 -2 -57 -8 -60 -13 -8 -14 -62 -31 -77 -26 -7 3 -13 2 -13 -3 0 -4 -26 -14
-57 -21 -32 -7 -69 -19 -83 -25 -28 -14 -108 -30 -129 -26 -7 1 -10 -2 -7 -7
3 -6 -2 -8 -14 -5 -11 3 -20 1 -20 -5 0 -12 -81 -34 -125 -34 -24 0 -26 -1
-11 -7 19 -7 19 -8 0 -15 -31 -13 -92 -18 -74 -6 17 11 10 13 -14 4 -9 -3 -13
-10 -10 -15 3 -5 -3 -12 -13 -15 -10 -3 -26 -10 -36 -15 -10 -5 -21 -7 -26 -5
-4 3 -25 -4 -47 -14 -21 -11 -46 -20 -56 -20 -9 0 -20 -4 -23 -10 -3 -5 -12
-10 -18 -10 -7 0 -6 4 3 10 17 11 10 13 -14 4 -9 -3 -13 -10 -10 -15 3 -5 -4
-9 -15 -9 -21 0 -72 -20 -81 -31 -3 -3 -16 -10 -29 -14 -18 -5 -22 -4 -17 6 4
8 1 6 -7 -4 -13 -15 -105 -54 -147 -62 -36 -6 -59 -18 -54 -27 3 -5 -5 -6 -19
-3 -18 5 -28 2 -36 -12 -6 -10 -11 -15 -11 -10 0 4 -13 1 -30 -8 -37 -19 -51
-19 -26 0 11 8 15 15 10 15 -14 0 -52 -29 -39 -30 6 0 3 -5 -5 -10 -8 -5 -26
-7 -40 -4 -17 4 -21 3 -12 -3 9 -7 7 -12 -11 -20 -19 -9 -24 -8 -24 3 0 7 4
11 9 8 4 -3 8 -1 8 5 0 10 50 41 67 42 5 0 11 7 16 14 4 8 14 12 22 9 8 -4 15
-2 15 3 0 6 18 17 41 26 23 9 38 21 34 27 -3 5 0 10 8 10 8 0 32 13 53 28 22
16 45 27 52 24 6 -2 12 1 12 6 0 15 65 53 97 56 39 5 40 5 25 14 -9 6 -1 14
26 26 31 14 44 15 60 7 22 -12 25 0 8 29 -5 8 -6 12 -2 8 11 -9 67 12 60 23
-3 5 2 6 10 3 9 -3 16 -1 16 5 0 13 53 41 89 47 14 3 31 11 36 18 6 7 16 11
24 8 8 -3 11 0 7 7 -7 11 5 15 33 12 7 -2 10 2 7 8 -4 5 -1 13 5 17 7 4 9 3 6
-3 -4 -7 3 -10 17 -9 18 1 22 4 14 14 -8 9 -6 12 8 12 11 0 28 7 38 15 17 13
65 13 86 0 4 -2 7 2 7 9 0 8 -8 12 -21 9 -17 -4 -18 -3 -6 6 8 6 10 11 5 11
-6 0 -16 -5 -23 -12 -7 -7 -12 -8 -12 -2 0 6 11 16 25 22 19 9 25 9 25 -1 0
-8 3 -8 8 -2 13 19 61 45 82 45 14 0 19 4 14 12 -4 7 -3 8 4 4 7 -4 12 -3 12
2 0 6 10 8 22 4 l22 -5 -22 -8 c-27 -10 -28 -15 -2 -15 11 0 20 4 20 8 0 4 6
8 14 8 8 0 17 4 20 9 4 5 -2 7 -13 4 -10 -3 -22 1 -27 8 -5 9 -2 11 9 6 10 -3
17 -2 17 3 0 6 6 10 14 10 7 0 27 7 42 15 16 8 25 15 20 15 -5 0 -7 3 -4 6 4
3 15 1 25 -4 10 -5 27 -6 38 -1 17 6 16 8 -10 9 -29 2 -30 2 -5 9 14 5 39 15
55 23 17 8 38 13 47 11 11 -3 18 1 18 10 0 14 49 40 76 40 8 0 14 4 14 9 0 4
5 8 11 8 5 0 8 -4 4 -10 -3 -5 7 -5 25 1 16 6 30 15 30 19 0 12 68 33 85 26 8
-3 15 -1 15 4 0 6 -6 10 -12 11 -7 0 -4 4 7 9 28 12 37 12 29 -1 -4 -7 -1 -10
7 -7 8 3 13 10 12 16 -1 5 7 8 19 4 14 -3 19 -1 14 6 -5 8 7 14 34 18 22 4 40
11 40 16 0 6 7 8 15 4 20 -7 46 4 38 17 -4 7 8 8 36 3 36 -5 43 -4 47 11 6 21
74 47 74 29 1 -6 8 -2 18 9 9 11 28 22 42 23 14 2 31 9 38 14 9 8 12 6 12 -6
0 -9 8 -16 18 -16 14 0 15 2 2 10 -12 8 -9 10 13 10 16 0 26 4 22 10 -5 8 57
31 90 34 6 1 20 7 33 14 13 7 22 9 22 3 0 -6 7 -8 15 -5 8 4 13 9 10 14 -2 4
7 5 20 2 14 -2 25 0 25 5 0 6 12 9 28 6 24 -3 25 -2 7 7 -16 8 -12 9 18 4 29
-4 37 -2 31 7 -5 9 1 10 27 6 20 -4 29 -3 21 2 -10 6 1 12 35 21 73 20 76 21
100 23 13 1 23 5 23 9 0 5 52 18 95 23 50 6 106 19 111 26 3 5 23 6 45 4 27
-4 38 -2 34 5 -4 7 3 9 22 5 20 -5 24 -4 14 3 -17 12 111 28 130 17 8 -5 10
-4 5 3 -4 7 -1 12 8 12 8 0 23 3 33 6 15 5 15 4 3 -5 -24 -17 21 -14 45 3 23
15 83 27 210 41 22 2 60 8 85 14 24 5 60 7 80 4 27 -3 31 -2 20 6 -11 8 -2 11
40 12 30 0 64 2 75 4 117 16 253 22 296 13 8 -2 13 2 12 7 -1 6 20 11 45 13
26 2 64 5 85 7 20 2 37 -1 37 -6 0 -5 10 -5 23 0 12 4 27 6 34 4 6 -2 14 1 18
6 3 6 16 11 28 10 21 -1 20 -2 -3 -10 -16 -5 -4 -6 30 -1 73 9 785 9 830 0 24
-6 29 -5 15 1 -15 7 -9 9 27 8 29 -1 43 -6 38 -12 -5 -6 7 -11 33 -13 28 -1
37 1 28 7 -15 10 213 4 239 -5 8 -4 58 -8 110 -10 160 -7 207 -12 229 -26 15
-9 24 -10 29 -2 4 7 31 9 72 6 43 -3 58 -7 45 -12 -11 -4 21 -7 70 -7 50 0
100 -5 110 -11 16 -9 12 -10 -25 -7 -45 4 -45 4 -7 -4 21 -4 53 -5 70 -2 64
13 337 -28 337 -51 0 -4 7 -8 15 -8 8 0 12 6 9 14 -4 11 8 10 63 -5 77 -21 95
-23 73 -9 -13 9 -13 10 1 10 8 0 20 -5 27 -12 8 -8 15 -8 26 1 10 9 16 9 21 1
4 -6 14 -9 22 -6 8 4 11 2 7 -5 -4 -8 4 -9 27 -4 19 3 29 3 22 -2 -6 -5 11 -8
40 -8 29 -1 77 -4 107 -8 30 -3 64 -7 75 -8 17 -1 16 -2 -5 -9 l-25 -8 27 -1
c15 -1 34 -8 42 -17 9 -8 16 -12 16 -7 0 5 -6 15 -12 22 -9 8 2 6 30 -4 24
-10 46 -15 49 -11 4 3 -1 6 -10 6 -9 0 -18 4 -21 8 -3 5 8 6 25 4 16 -2 29 -8
29 -12 0 -5 17 -7 37 -5 21 1 58 -3 83 -11 25 -7 77 -15 115 -18 39 -3 81 -8
95 -12 14 -3 35 -6 47 -6 13 0 20 -5 17 -10 -4 -6 9 -9 32 -8 22 1 55 1 74 0
l35 -2 -30 -9 c-22 -6 -14 -7 33 -5 35 3 60 0 56 -5 -5 -9 3 -10 96 -14 68 -2
191 -26 185 -36 -6 -8 20 -19 43 -18 11 0 9 3 -7 10 -47 19 -14 18 94 -2 61
-11 120 -17 132 -14 12 3 24 1 28 -5 3 -5 13 -7 23 -4 9 3 6 -2 -8 -11 l-25
-16 25 8 c14 4 34 7 45 6 92 -4 122 -8 131 -15 6 -5 42 -9 80 -10 38 -1 71 -5
74 -9 3 -4 40 -9 82 -10 43 -1 75 -5 73 -9 -3 -4 -17 -6 -32 -4 l-28 4 28 -11
c21 -8 32 -8 40 0 6 6 20 11 31 11 20 0 20 0 0 -16 -19 -15 -19 -16 1 -8 34
13 95 17 108 7 6 -5 31 -9 54 -8 23 1 40 -1 38 -4 -1 -3 18 -7 43 -7 26 -1 74
-5 107 -8 33 -4 76 -7 95 -8 32 0 33 -1 10 -8 -16 -5 7 -8 62 -7 87 2 108 -8
33 -16 -28 -2 -20 -4 25 -5 48 -1 61 1 50 9 -11 7 4 8 50 3 36 -3 66 -10 68
-14 2 -4 20 -4 40 1 22 5 68 5 115 -2 42 -5 81 -7 87 -4 13 8 91 -6 85 -16 -3
-4 9 -4 27 2 43 12 61 11 52 -2 -4 -8 -1 -8 12 -2 11 5 35 8 54 7 51 -4 612
-3 700 1 41 1 98 5 125 8 38 5 43 4 20 -3 -27 -7 -25 -8 17 -7 25 1 44 6 41
11 -4 5 12 6 35 2 28 -4 42 -3 42 5 0 6 15 10 38 8 20 -2 73 1 117 6 44 4 100
8 125 7 32 0 39 2 25 7 -21 9 31 14 109 12 21 -1 44 4 52 10 8 6 14 9 14 6 0
-3 26 1 58 9 68 16 82 17 62 4 -9 -6 -10 -10 -3 -10 6 0 20 -3 30 -6 15 -5 15
-4 3 5 -11 8 -12 11 -2 11 7 0 10 5 7 10 -3 6 4 10 17 10 18 0 20 -2 8 -10
-10 -6 3 -7 40 -3 30 3 59 9 63 13 4 3 -7 5 -25 4 -30 -3 -30 -3 -8 5 14 5 36
6 49 3 13 -3 22 -1 18 4 -3 5 11 10 31 11 60 5 97 12 147 29 26 8 53 13 61 10
8 -3 12 -1 9 4 -4 6 7 7 27 4 25 -4 29 -3 18 5 -16 11 -11 12 70 12 23 0 30 2
21 8 -9 6 -1 10 25 14 50 6 124 26 147 38 9 5 30 7 45 4 15 -3 20 -2 12 2 -10
4 3 12 40 24 35 11 57 13 61 7 4 -6 10 -4 16 6 11 21 73 40 73 23 0 -8 3 -7 9
2 6 10 13 11 29 2 11 -6 27 -11 34 -11 7 1 2 7 -11 14 l-24 14 24 7 c13 3 39
13 57 21 18 8 37 12 44 8 6 -4 8 -3 5 3 -9 15 14 22 48 16 17 -4 26 -2 22 4
-4 6 7 7 26 4 31 -4 31 -5 7 -12 -24 -7 -23 -7 6 -8 19 -1 34 5 37 13 3 7 0
13 -6 13 -59 -1 -57 5 8 29 39 14 76 26 83 27 6 0 12 4 12 9 0 4 7 8 15 8 9 0
26 6 38 14 32 20 71 31 63 17 -4 -6 -2 -11 4 -11 6 0 15 10 20 23 5 12 9 18 9
13 1 -5 8 -3 16 4 8 6 18 9 24 6 5 -3 11 1 15 9 3 8 15 15 26 15 11 0 20 4 20
10 0 5 7 6 17 3 11 -4 14 -3 9 5 -5 8 -2 10 8 6 9 -3 13 -11 9 -17 -3 -6 -1
-7 6 -3 6 4 9 11 6 15 -5 8 81 54 125 66 14 4 38 17 54 28 26 18 29 19 23 3
-4 -10 -3 -15 3 -11 6 3 10 13 10 21 0 8 10 14 25 14 14 0 25 -4 25 -8 0 -5 7
-9 16 -9 13 0 12 4 -5 16 -20 16 -19 17 32 45 48 26 50 27 32 6 l-20 -23 23
12 c13 7 26 19 29 27 3 8 14 14 25 14 10 0 16 4 13 10 -3 6 1 7 10 4 10 -4 15
-2 13 7 -2 7 4 13 12 14 8 0 26 6 40 14 14 8 27 15 30 15 3 1 4 5 2 9 -1 5 2
6 8 2 5 -3 10 -1 10 6 0 7 3 9 7 6 3 -4 -4 -18 -17 -32z m-12085 -745 c3 -5
-1 -10 -10 -10 -9 0 -13 5 -10 10 3 6 8 10 10 10 2 0 7 -4 10 -10z m11338
-141 c-12 -13 -23 -17 -27 -11 -3 6 3 13 14 17 11 3 20 11 20 17 0 6 3 8 7 4
4 -3 -2 -16 -14 -27z m-11728 1 c-3 -5 -12 -10 -18 -10 -7 0 -6 4 3 10 19 12
23 12 15 0z m3028 -17 c-7 -2 -21 -2 -30 0 -10 3 -4 5 12 5 17 0 24 -2 18 -5z
m8657 -28 c-7 -9 -18 -14 -24 -12 -6 2 -19 -7 -29 -19 -11 -15 -24 -21 -34
-17 -11 4 -14 3 -9 -6 5 -8 -8 -28 -36 -54 -68 -65 -84 -76 -99 -66 -22 14
-35 10 -15 -4 16 -12 15 -14 -8 -36 -18 -17 -38 -24 -71 -25 -26 -1 -49 2 -51
6 -3 4 1 8 8 8 11 0 10 2 0 9 -10 6 -8 10 10 16 12 4 27 7 31 6 15 -2 47 20
42 30 -4 5 3 9 14 9 12 0 30 9 41 20 12 12 22 15 26 9 3 -6 -2 -17 -12 -25
-11 -9 -14 -14 -9 -11 6 2 18 7 29 11 15 5 16 9 6 21 -6 8 -8 19 -4 26 5 8 10
6 18 -8 11 -20 11 -20 31 -1 15 14 16 18 3 13 -9 -4 -19 -1 -23 6 -6 8 -1 11
17 7 15 -3 25 0 25 8 0 7 -7 10 -16 7 -9 -3 -2 4 14 16 17 11 35 21 41 21 7 0
14 6 17 13 5 14 69 49 76 42 2 -3 -2 -12 -9 -20z m-370 -245 c3 -1 9 -2 14 -1
5 1 13 -4 17 -11 7 -10 9 -10 9 0 0 6 6 12 13 12 18 -1 -41 -49 -85 -69 -21
-10 -35 -21 -31 -24 3 -4 -1 -7 -11 -7 -10 0 -14 -5 -10 -11 4 -7 -1 -7 -16 1
-18 10 -21 9 -15 -1 6 -8 4 -11 -7 -6 -19 7 -38 -11 -31 -29 3 -8 -1 -14 -11
-14 -9 0 -16 -5 -16 -10 0 -6 -6 -10 -12 -9 -27 3 -38 -2 -38 -16 0 -8 -9 -19
-19 -25 -25 -13 -41 -13 -21 0 8 5 10 10 4 10 -6 0 -17 -7 -24 -15 -10 -12
-10 -15 0 -15 17 0 6 -11 -13 -14 -8 -1 -22 -8 -31 -15 -8 -7 -19 -10 -25 -7
-5 3 -12 -2 -15 -11 -6 -15 -9 -15 -16 -3 -5 8 -7 17 -5 20 2 3 -12 4 -31 2
-19 -2 -34 -7 -34 -11 0 -4 14 -6 30 -3 17 2 30 0 30 -5 0 -14 -23 -33 -39
-33 -10 1 -7 6 9 15 28 16 19 21 -10 5 -11 -6 -17 -16 -14 -23 5 -13 -34 -37
-60 -37 -7 0 -31 -12 -52 -26 -48 -33 -129 -41 -144 -15 -5 9 -10 12 -10 7 0
-5 -7 -3 -15 4 -10 8 -15 9 -15 2 0 -6 12 -17 27 -24 29 -15 39 -44 16 -52 -8
-3 -11 -1 -8 4 4 6 -7 10 -25 10 -18 0 -29 -4 -25 -10 3 -5 13 -10 22 -10 12
0 13 -3 3 -14 -6 -8 -18 -12 -26 -9 -8 3 -14 0 -14 -6 0 -6 -7 -8 -17 -4 -9 4
-14 2 -10 -3 8 -13 -58 -37 -81 -30 -9 3 -24 1 -32 -5 -12 -8 -10 -9 8 -4 53
15 7 -22 -50 -40 -5 -1 -11 -4 -15 -5 -5 -1 -11 -2 -15 -1 -5 0 -8 -4 -8 -9 0
-6 -6 -10 -12 -10 -7 0 -25 -6 -39 -14 -16 -8 -32 -10 -40 -5 -23 14 -34 10
-14 -4 17 -13 16 -15 -14 -25 -17 -6 -39 -8 -48 -5 -12 5 -14 3 -8 -7 5 -8 3
-11 -6 -8 -8 3 -13 10 -12 16 2 8 -5 8 -23 1 -15 -5 -35 -7 -44 -4 -10 3 -21
2 -24 -3 -3 -5 15 -8 39 -7 25 1 45 1 45 0 0 -1 -10 -10 -22 -21 -12 -10 -18
-13 -14 -6 9 16 5 15 -30 -3 -16 -8 -37 -15 -46 -15 -10 0 -18 -4 -18 -9 0 -8
-41 -19 -102 -27 -16 -2 -28 1 -28 6 0 6 -8 10 -17 10 -15 0 -16 -2 -3 -10 12
-7 10 -11 -10 -20 -23 -9 -22 -10 10 -5 27 4 30 3 15 -4 -11 -5 -32 -10 -47
-10 -15 -1 -29 -5 -33 -11 -3 -5 -12 -7 -21 -3 -12 4 -12 8 -2 22 12 14 11 15
-5 2 -10 -8 -16 -20 -13 -27 7 -17 -42 -28 -60 -13 -8 7 -17 9 -21 5 -3 -3 -1
-6 5 -6 7 0 12 -4 12 -10 0 -15 -16 -12 -34 5 -9 9 -17 11 -21 5 -3 -5 -13
-10 -21 -10 -8 0 -12 4 -9 10 4 6 -1 7 -11 3 -14 -5 -12 -8 10 -20 14 -7 26
-16 26 -19 0 -3 -4 -2 -10 1 -5 3 -16 3 -22 -2 -7 -4 -26 -6 -42 -4 -17 2 -26
-1 -22 -7 3 -6 -9 -10 -30 -10 -20 0 -39 -5 -43 -10 -8 -13 -107 -22 -258 -25
-62 -1 -113 -3 -113 -5 0 -1 10 -6 21 -10 15 -6 2 -9 -42 -10 -34 -1 -72 -4
-83 -8 -14 -3 -17 -2 -8 4 9 6 -2 9 -32 10 -26 0 -46 -3 -46 -8 0 -4 9 -6 20
-3 11 3 20 1 20 -4 0 -5 -45 -10 -101 -11 -55 -1 -108 -6 -117 -11 -10 -4 -48
-9 -85 -10 -38 -1 -78 -5 -90 -8 -42 -11 -499 -14 -492 -4 4 7 -14 10 -47 9
-57 -1 -202 8 -258 17 -19 3 -67 6 -107 7 -40 1 -70 5 -67 9 2 4 -15 8 -38 8
-24 0 -59 5 -78 11 -19 5 -64 10 -100 11 -49 0 -59 2 -42 9 33 14 27 20 -10
10 -33 -10 -74 -4 -95 12 -7 6 -19 8 -28 5 -8 -4 -17 -2 -20 3 -3 5 -16 9 -28
9 -12 0 -51 3 -87 7 -48 5 -60 9 -45 16 14 6 8 6 -17 3 -20 -3 -39 -1 -43 4
-3 6 -12 8 -20 5 -7 -3 -24 0 -37 7 -13 7 -35 12 -50 11 -16 -1 -28 3 -28 8 0
6 -8 10 -17 9 -10 -1 -34 2 -53 7 l-35 8 35 7 35 6 -43 2 c-24 0 -41 -3 -38
-8 5 -8 -24 -3 -81 14 -13 4 -23 14 -23 21 0 17 -16 18 -24 2 -5 -10 -7 -10
-12 -1 -3 7 -12 9 -20 6 -8 -3 -45 1 -82 8 -37 7 -70 12 -74 11 -5 -1 -8 2 -8
8 0 5 -10 10 -22 9 -29 0 -111 23 -119 34 -3 5 -10 8 -15 7 -22 -3 -104 13
-104 21 0 5 -14 9 -30 9 -17 0 -46 7 -65 14 -19 8 -35 13 -35 11 0 -2 -16 3
-35 11 -19 7 -46 14 -60 14 -14 0 -25 4 -25 9 0 6 -21 13 -47 16 -27 4 -52 13
-58 19 -5 7 -19 15 -30 19 l-20 7 20 -16 c19 -15 19 -15 -10 -8 -16 4 -36 11
-42 17 -7 5 -13 6 -13 1 0 -4 -5 -3 -12 4 -7 7 -27 12 -46 12 -18 0 -31 4 -28
9 4 5 -2 7 -13 4 -11 -3 -27 4 -37 15 -14 14 -25 17 -39 11 l-20 -8 20 -1 c12
-1 15 -4 7 -7 -7 -3 -24 2 -38 11 -13 9 -29 14 -34 11 -6 -3 -10 -1 -10 6 0 7
-9 9 -22 6 -23 -6 -23 -6 -3 10 19 15 19 15 -5 8 -33 -10 -31 -10 -60 4 -21
10 -21 11 -4 8 12 -3 27 -1 33 3 7 4 -4 7 -24 8 -19 1 -35 -3 -35 -8 0 -6 -4
-10 -10 -10 -5 0 -7 7 -4 15 7 16 -1 18 -31 6 -12 -5 -30 -3 -47 5 -15 8 -38
14 -51 14 -13 0 -27 3 -31 7 -4 4 -13 8 -19 9 -7 0 -23 2 -37 3 -23 2 -24 3
-5 12 16 7 13 8 -15 5 -19 -2 -46 1 -60 6 -14 6 -36 12 -50 14 -14 3 -32 8
-40 11 -8 4 -23 7 -33 8 -21 3 -89 22 -125 36 -13 5 -32 9 -42 9 -11 0 -20 4
-20 9 0 15 54 23 82 12 14 -5 29 -7 34 -3 4 4 4 -1 1 -10 -5 -14 1 -16 49 -11
48 5 54 4 54 -13 0 -11 3 -15 8 -8 4 6 25 11 47 12 32 0 36 -2 20 -9 -14 -6
-7 -8 25 -4 l45 4 -40 -14 -40 -15 40 7 c22 3 49 6 60 6 40 -1 120 -22 123
-32 2 -6 16 -11 30 -11 22 0 24 2 12 11 -13 9 -12 10 3 5 10 -3 58 -13 108
-22 49 -9 89 -21 89 -26 0 -6 11 -7 26 -4 14 4 23 3 20 -2 -3 -5 25 -12 62
-16 85 -10 91 -11 125 -25 16 -6 41 -11 57 -11 16 0 32 -5 36 -11 4 -7 22 -9
48 -6 30 5 36 4 21 -4 -16 -7 -14 -9 13 -6 17 2 32 0 32 -4 0 -3 8 -9 18 -13
9 -3 24 -9 32 -12 13 -5 13 -4 0 6 -12 9 -5 10 30 5 25 -3 46 -10 48 -15 2 -6
27 -11 55 -11 45 -1 48 -2 22 -9 -34 -9 -35 -8 70 -15 28 -2 75 -8 105 -13
l55 -9 -50 -2 c-27 -1 -57 -6 -65 -11 -15 -10 41 -7 118 6 25 4 32 2 27 -6 -5
-9 -1 -10 14 -5 29 9 55 -11 38 -30 -7 -7 -16 -10 -22 -7 -5 3 -6 1 -2 -3 15
-17 39 -13 44 6 4 14 13 18 38 16 18 -1 31 -5 29 -9 -2 -3 17 -6 42 -6 26 0
50 -6 54 -12 5 -8 19 -10 39 -5 23 5 32 3 37 -9 3 -9 10 -16 16 -16 5 0 6 5 3
10 -3 6 1 10 9 10 9 0 16 -4 16 -8 0 -5 17 -9 38 -10 51 -2 132 -21 159 -38
12 -8 30 -14 40 -13 14 0 12 3 -6 10 -13 5 -21 12 -18 16 4 3 19 1 34 -5 36
-14 164 -33 175 -26 4 3 8 0 8 -7 0 -7 12 -9 38 -5 26 4 31 3 17 -4 -15 -6 -3
-9 44 -9 61 -1 64 -2 45 -17 -19 -15 -19 -16 1 -8 23 10 82 9 210 -1 50 -4 98
-8 107 -9 12 0 14 -4 8 -10 -6 -6 -10 -15 -10 -20 0 -6 4 -4 9 3 6 9 24 14 48
14 288 -10 342 -14 518 -37 31 -5 34 -4 15 3 -18 6 3 9 73 10 63 1 96 -3 92
-9 -3 -5 -1 -10 4 -10 6 0 11 5 11 11 0 6 22 8 63 5 45 -4 58 -3 47 5 -12 8
-11 9 5 5 11 -3 55 -2 97 2 47 5 74 4 71 -2 -4 -5 -1 -6 7 -1 8 5 48 10 89 12
42 3 94 6 116 8 22 1 72 3 110 4 43 1 65 5 57 10 -9 5 7 9 43 10 31 0 61 3 65
6 16 10 103 23 117 18 10 -4 11 -9 2 -19 -15 -19 6 -18 46 1 27 13 28 14 6 12
-13 -1 -26 4 -29 12 -4 11 3 12 29 8 20 -4 50 -1 74 8 22 8 56 14 76 15 20 0
80 11 134 25 54 13 101 22 105 20 5 -3 30 4 56 16 27 11 56 18 66 16 10 -3 18
0 18 6 0 8 4 7 12 -1 17 -17 29 -15 22 3 -4 10 0 15 11 15 9 0 14 -4 11 -9 -4
-5 3 -7 14 -4 11 3 17 9 14 14 -3 5 2 6 10 3 9 -3 16 -2 16 4 0 6 10 8 22 4
14 -3 19 -1 14 6 -8 14 54 27 83 17 16 -5 20 -3 15 9 -6 16 8 21 49 17 9 -1
17 3 17 8 0 6 11 11 24 11 30 0 57 10 52 19 -3 3 12 6 33 6 25 0 44 8 60 24
18 18 30 22 53 17 16 -3 27 -2 24 3 -8 12 20 23 64 26 41 4 93 28 82 40 -4 5
-1 5 7 0 7 -4 16 -3 20 2 12 18 113 62 128 56 10 -4 14 -2 10 4 -9 14 19 24
47 17 17 -4 29 1 44 21 11 14 24 25 29 23 4 -1 18 1 30 6 15 5 30 2 45 -8 12
-9 27 -16 33 -16 5 1 -3 8 -18 16 -39 21 -30 36 36 57 32 10 55 23 52 28 -7
10 24 1 41 -13 6 -4 10 -19 8 -33 -1 -14 2 -23 6 -20 5 3 6 13 3 21 -5 13 -1
15 17 9 15 -5 20 -4 16 4 -4 6 -12 11 -18 11 -5 0 -22 10 -36 22 -15 11 -19
18 -9 15 53 -20 53 -20 32 -3 -11 10 -15 15 -8 11 21 -10 62 5 56 21 -3 9 2
14 16 14 12 0 21 5 21 10 0 6 16 10 35 8 19 -1 37 1 41 5 4 4 -3 7 -16 7 -17
0 -21 3 -13 11 8 8 17 8 31 0 30 -16 39 -14 16 4 -10 8 -14 15 -8 15 5 0 19
-7 30 -15 24 -19 31 -18 38 1 3 8 2 12 -4 9 -6 -3 -10 0 -10 7 0 10 -2 10 -9
-1 -5 -8 -11 -9 -15 -3 -5 9 15 23 39 27 6 0 9 5 8 11 -1 8 42 12 57 4z
m-5910 -110 c13 -8 13 -10 -2 -10 -9 0 -20 5 -23 10 -8 13 5 13 25 0z m5635
-10 c-3 -5 -12 -10 -18 -10 -7 0 -6 4 3 10 19 12 23 12 15 0z m-5455 -30 c13
-8 13 -10 -2 -10 -9 0 -20 5 -23 10 -8 13 5 13 25 0z m-1270 -40 c11 -8 7 -9
-15 -4 -37 8 -45 14 -19 14 10 0 26 -5 34 -10z m93 -5 c17 5 19 4 7 -4 -21
-15 -33 -14 -56 5 -18 14 -18 15 4 4 12 -6 33 -8 45 -5z m76 -6 c16 2 21 -1
16 -10 -6 -9 3 -11 38 -6 51 7 60 2 25 -14 -22 -9 -22 -9 2 -3 14 3 41 8 60
11 33 4 34 3 16 -11 -20 -17 -118 -15 -139 2 -7 5 -24 12 -39 16 -16 3 -28 11
-28 17 0 6 6 7 13 2 6 -4 23 -6 36 -4z m6241 -69 c0 -5 -4 -10 -10 -10 -5 0
-10 5 -10 10 0 6 5 10 10 10 6 0 10 -4 10 -10z m-1020 -34 c0 -2 -7 -6 -15
-10 -8 -3 -15 -1 -15 4 0 6 7 10 15 10 8 0 15 -2 15 -4z m1090 -71 c0 -2 -10
-9 -22 -15 -22 -11 -22 -10 -4 4 21 17 26 19 26 11z m-125 -55 c8 -13 -5 -13
-25 0 -13 8 -13 10 2 10 9 0 20 -4 23 -10z m-435 -30 c-8 -5 -19 -10 -25 -10
-5 0 -3 5 5 10 8 5 20 10 25 10 6 0 3 -5 -5 -10z m-605 -380 c3 -5 2 -10 -4
-10 -5 0 -13 5 -16 10 -3 6 -2 10 4 10 5 0 13 -4 16 -10z m-3205 -1215 c63
-33 61 -135 -4 -170 -68 -37 -146 8 -146 84 0 81 76 124 150 86z m389 1 c71
-37 66 -145 -9 -176 -68 -28 -140 17 -140 89 0 80 76 124 149 87z m-959 -21
c41 -21 59 -61 48 -102 -13 -49 -50 -68 -128 -68 -78 0 -114 16 -131 57 -27
67 34 128 128 128 30 0 67 -7 83 -15z m-5362 -157 l-3 -153 -65 0 -65 0 -3 35
c-4 52 -30 100 -59 111 -14 5 -100 8 -192 7 l-166 -3 0 -160 0 -160 113 -3
112 -3 17 36 c10 21 24 35 35 35 16 0 18 -11 18 -130 0 -119 -2 -130 -18 -130
-10 0 -28 14 -40 30 l-23 30 -109 0 -110 0 0 -152 c0 -191 4 -201 80 -208 l55
-5 3 -59 c2 -33 -1 -62 -6 -65 -6 -3 -128 -5 -271 -3 l-262 3 3 62 3 62 55 5
c46 4 57 9 67 30 10 19 12 111 11 397 -3 421 1 399 -84 411 -48 7 -49 8 -52
46 -2 22 -1 50 2 63 l6 23 475 0 476 0 -3 -152z m2252 -201 c0 -195 3 -356 6
-359 3 -4 40 21 83 55 42 34 92 73 111 87 59 43 110 92 110 105 0 15 -22 25
-56 25 -22 0 -24 4 -24 45 l0 45 198 -2 197 -3 3 -29 c2 -15 1 -39 -2 -52 -6
-21 -12 -24 -55 -24 -40 0 -59 -7 -102 -37 -45 -31 -173 -128 -203 -154 -13
-12 3 -32 146 -178 135 -138 169 -161 229 -161 28 0 29 -1 29 -55 l0 -55 -230
0 -230 0 0 55 c0 48 3 55 19 55 30 0 51 11 51 26 0 16 -178 204 -194 204 -6 0
-28 -11 -49 -25 -37 -25 -37 -26 -37 -94 0 -76 13 -96 68 -107 31 -6 32 -8 32
-60 l0 -54 -230 0 -230 0 0 54 0 53 38 6 c20 4 47 14 60 22 l22 16 0 398 c0
443 4 418 -70 428 l-40 6 0 58 0 59 175 0 175 0 0 -353z m1940 289 l0 -64 -49
-12 c-68 -16 -72 -28 -69 -195 l3 -140 235 0 235 0 3 145 c3 167 -3 182 -78
194 l-41 6 3 63 3 62 245 0 245 0 3 -62 3 -62 -38 -7 c-21 -3 -48 -13 -60 -20
l-23 -14 0 -384 c0 -430 -3 -411 75 -418 l40 -3 0 -60 0 -60 -248 -3 -248 -2
3 62 3 63 40 3 c68 5 75 22 75 205 l0 157 -240 0 -240 0 0 -158 c0 -188 5
-202 76 -202 l44 0 0 -65 0 -65 -245 0 -245 0 0 65 0 65 32 0 c19 0 41 9 55
22 l23 21 0 379 0 378 -22 14 c-13 8 -38 17 -55 21 l-33 7 0 64 0 64 245 0
245 0 0 -64z m2800 -396 c0 -315 3 -467 11 -483 11 -25 47 -47 75 -47 12 0 14
-11 12 -55 -2 -30 -6 -55 -10 -55 -5 0 -105 0 -223 0 l-215 0 0 55 c0 49 2 55
21 55 25 0 60 18 76 39 18 23 18 779 0 803 -7 9 -30 19 -50 23 l-37 7 0 59 0
59 170 0 170 0 0 -460z m-3658 228 l3 -113 103 -3 102 -3 0 -54 0 -54 -102 -3
-103 -3 -3 -223 c-2 -184 0 -227 13 -252 29 -56 112 -52 128 7 7 24 16 32 38
35 37 6 39 3 39 -42 0 -73 -49 -145 -115 -170 -16 -7 -64 -12 -105 -12 -121
-1 -186 37 -223 130 -14 36 -17 79 -17 271 0 126 -3 236 -6 245 -5 12 -21 16
-66 16 l-59 0 3 53 3 52 66 3 67 3 11 44 c6 24 11 57 11 74 0 62 14 78 82 94
35 9 77 16 95 16 l32 1 3 -112z m-2542 -218 c0 -89 -3 -120 -12 -121 -7 0 -22
-2 -34 -4 -13 -3 -31 7 -53 30 -28 30 -39 35 -78 35 -57 0 -115 -39 -143 -96
-31 -62 -52 -274 -34 -340 7 -26 43 -44 89 -44 l35 0 0 -55 0 -55 -242 2 -243
3 0 50 c0 42 3 50 20 53 98 15 95 5 95 272 l0 229 -30 16 c-16 8 -40 15 -55
15 -24 0 -25 3 -25 55 l0 55 175 0 174 0 3 -82 3 -81 31 50 c57 91 133 130
257 132 l67 1 0 -120z m723 104 c82 -21 140 -62 169 -121 22 -45 23 -61 26
-268 3 -245 5 -252 71 -257 l36 -3 3 -52 c2 -39 -1 -53 -10 -53 -7 0 -78 -1
-157 -2 l-144 -3 -15 50 c-9 28 -17 52 -19 54 -1 2 -19 -13 -40 -34 -46 -47
-99 -71 -190 -85 -52 -8 -88 -8 -134 0 -151 27 -222 100 -222 225 0 95 40 153
142 202 50 24 70 27 186 31 72 2 156 -1 188 -6 40 -6 57 -6 58 2 0 6 0 42 -1
81 -3 122 -47 160 -185 160 -101 0 -147 -20 -172 -76 -17 -36 -21 -39 -60 -39
-23 0 -54 5 -68 10 -27 10 -27 11 -20 78 4 37 11 72 16 77 38 40 419 61 542
29z m4739 0 c101 -26 157 -75 183 -161 11 -38 15 -101 15 -255 0 -202 0 -205
23 -216 12 -6 36 -13 52 -14 28 -3 30 -6 33 -51 2 -32 -1 -48 -10 -51 -7 -3
-77 -7 -156 -10 l-142 -5 -15 36 c-8 19 -15 44 -15 54 0 28 -11 24 -50 -18
-69 -73 -210 -106 -338 -79 -136 28 -207 104 -206 221 0 97 42 156 144 204 52
24 64 25 210 26 85 0 170 -3 188 -7 l34 -8 -4 89 c-3 83 -5 92 -31 119 -37 39
-101 56 -182 50 -77 -7 -126 -34 -149 -83 -15 -31 -21 -35 -56 -35 -21 0 -51
5 -66 10 -26 10 -27 12 -22 81 3 38 8 73 12 76 3 4 41 14 84 24 107 23 376 25
464 3z m1698 0 c108 -32 185 -100 233 -204 27 -60 30 -74 29 -175 0 -108 -5
-132 -45 -215 -20 -43 -85 -106 -137 -134 -135 -73 -304 -66 -430 19 l-50 34
0 -149 c0 -108 3 -151 13 -157 6 -4 32 -10 57 -13 l45 -5 3 -57 3 -58 -241 0
-240 0 0 54 c0 58 -2 56 65 71 16 4 33 12 37 18 4 7 8 195 8 419 l0 407 -22
15 c-12 9 -35 16 -50 16 -27 0 -28 2 -28 55 l0 55 165 0 165 0 1 -32 c1 -18 4
-43 7 -56 7 -23 8 -22 42 13 61 64 136 92 246 94 39 1 94 -6 124 -15z m1023 1
c164 -49 266 -178 270 -340 l2 -60 -310 -5 -310 -5 3 -50 c2 -27 8 -54 13 -59
5 -6 9 -17 9 -26 0 -22 48 -74 86 -93 47 -24 125 -31 185 -17 39 10 63 24 96
56 l44 44 75 0 c87 0 99 -11 69 -67 -54 -99 -190 -157 -370 -157 -201 0 -353
75 -411 202 -90 197 -31 431 134 534 18 11 59 28 90 38 73 23 256 26 325 5z
m1181 0 c28 -8 68 -29 89 -46 72 -59 86 -123 87 -371 0 -174 1 -189 20 -208
11 -11 33 -20 50 -20 25 0 30 -4 35 -34 14 -75 26 -71 -225 -71 l-225 0 0 50
c0 49 1 50 32 55 18 3 42 13 53 22 18 16 20 30 20 167 0 208 -5 235 -51 283
l-38 40 -78 -3 c-68 -4 -84 -8 -120 -34 -23 -16 -48 -41 -55 -55 -8 -16 -14
-84 -16 -197 l-4 -172 27 -25 c16 -15 42 -26 63 -28 l37 -3 0 -50 0 -50 -240
0 -240 0 0 50 c0 42 3 50 20 53 98 15 95 5 95 271 0 255 2 249 -70 258 l-40 6
0 53 0 54 175 0 175 0 0 -60 c0 -64 6 -71 33 -40 29 35 122 88 178 104 71 19
149 19 213 1z m-4734 -394 c0 -507 -10 -581 -90 -655 -59 -54 -120 -70 -254
-64 -63 3 -119 8 -125 12 -7 4 -11 40 -11 92 0 83 0 84 25 84 17 0 29 -9 40
-30 18 -34 52 -46 91 -33 47 16 66 53 75 145 9 98 10 630 0 673 -5 24 -15 33
-51 46 -48 18 -59 41 -46 95 l6 24 170 0 170 0 0 -389z"/>
<path d="M5912 12544 l3 -1946 175 -102 c96 -56 227 -132 290 -168 63 -36 225
-130 360 -208 135 -78 333 -193 440 -255 107 -61 294 -169 415 -240 121 -70
272 -157 335 -193 63 -36 162 -93 220 -127 58 -35 184 -108 280 -163 96 -55
274 -157 395 -227 121 -70 292 -169 380 -220 88 -51 211 -122 274 -158 l114
-66 66 36 c36 20 77 44 91 53 14 10 133 79 265 155 132 76 326 188 430 248
105 60 280 162 390 225 110 64 297 171 415 240 118 68 278 160 355 204 77 45
203 118 280 163 77 45 248 144 380 220 132 76 308 177 390 225 83 48 209 121
280 163 72 41 178 103 238 137 l107 63 0 1944 0 1944 -32 -17 c-44 -22 -233
-129 -403 -229 -77 -45 -232 -135 -345 -200 -352 -202 -669 -385 -825 -476
-82 -48 -213 -123 -290 -167 -77 -44 -239 -137 -360 -207 -121 -70 -292 -168
-380 -217 -88 -50 -164 -94 -170 -98 -5 -4 -118 -70 -250 -146 -132 -76 -325
-187 -430 -247 -104 -60 -194 -110 -200 -110 -11 0 -142 74 -425 238 -96 56
-206 119 -245 140 -38 21 -97 55 -130 76 -33 20 -143 84 -245 142 -102 58
-282 161 -400 229 -118 68 -264 152 -325 187 -60 35 -184 107 -275 159 -91 53
-210 122 -265 153 -55 31 -201 115 -325 187 -366 211 -719 415 -810 467 -47
27 -118 68 -159 92 -40 24 -75 43 -77 43 -2 0 -3 -876 -2 -1946z"/>
<path d="M16670 7449 c0 -5 5 -7 10 -4 6 3 10 8 10 11 0 2 -4 4 -10 4 -5 0
-10 -5 -10 -11z"/>
<path d="M16629 7442 c11 -8 11 -11 0 -16 -8 -3 -5 -5 6 -3 24 3 23 21 -2 25
-14 2 -15 1 -4 -6z"/>
<path d="M16556 7415 c-9 -26 -7 -32 5 -12 6 10 9 21 6 23 -2 3 -7 -2 -11 -11z"/>
<path d="M16457 7391 c-38 -25 -39 -26 -9 -27 15 -1 21 1 14 3 -10 4 -5 11 15
24 15 10 24 19 18 18 -5 0 -22 -8 -38 -18z"/>
<path d="M16385 7360 c-10 -11 -13 -20 -7 -20 6 0 16 9 22 20 6 11 9 20 7 20
-2 0 -12 -9 -22 -20z"/>
<path d="M16268 7303 c7 -3 16 -2 19 1 4 3 -2 6 -13 5 -11 0 -14 -3 -6 -6z"/>
<path d="M16505 7300 c-3 -5 -1 -10 4 -10 6 0 11 5 11 10 0 6 -2 10 -4 10 -3
0 -8 -4 -11 -10z"/>
<path d="M7373 7293 c9 -2 23 -2 30 0 6 3 -1 5 -18 5 -16 0 -22 -2 -12 -5z"/>
<path d="M7813 7293 c9 -2 23 -2 30 0 6 3 -1 5 -18 5 -16 0 -22 -2 -12 -5z"/>
<path d="M16235 7290 c11 -5 29 -8 40 -8 16 0 15 2 -5 8 -34 11 -60 11 -35 0z"/>
<path d="M16417 7293 c-11 -11 -8 -20 9 -27 21 -8 34 1 27 19 -5 16 -25 20
-36 8z"/>
<path d="M6670 7251 c0 -4 11 -6 25 -3 14 2 25 6 25 8 0 2 -11 4 -25 4 -14 0
-25 -4 -25 -9z"/>
<path d="M8568 7253 c7 -3 16 -2 19 1 4 3 -2 6 -13 5 -11 0 -14 -3 -6 -6z"/>
<path d="M8630 7250 c-11 -7 -11 -10 -2 -10 7 0 11 -4 8 -9 -4 -5 1 -8 9 -7
23 3 30 16 9 16 -16 0 -17 2 -4 10 8 5 11 10 5 10 -5 0 -17 -5 -25 -10z"/>
<path d="M16207 7239 c7 -7 15 -10 18 -7 3 3 -2 9 -12 12 -14 6 -15 5 -6 -5z"/>
<path d="M6557 7233 c-10 -10 -8 -23 4 -23 5 0 8 4 4 9 -3 5 5 12 17 14 21 4
21 4 2 6 -11 0 -24 -2 -27 -6z"/>
<path d="M8790 7230 c13 -8 12 -10 -2 -10 -10 0 -18 -5 -18 -10 0 -11 14 -5
50 20 12 7 9 10 -15 10 -23 0 -27 -3 -15 -10z"/>
<path d="M16077 7233 c-10 -10 -8 -23 4 -23 5 0 8 4 4 9 -3 5 3 12 12 14 14 4
15 5 2 6 -9 0 -19 -2 -22 -6z"/>
<path d="M16135 7230 c-19 -8 -19 -9 3 -9 12 -1 22 4 22 9 0 6 -1 10 -2 9 -2
0 -12 -4 -23 -9z"/>
<path d="M8573 7223 c9 -2 25 -2 35 0 9 3 1 5 -18 5 -19 0 -27 -2 -17 -5z"/>
<path d="M8728 7223 c7 -3 16 -2 19 1 4 3 -2 6 -13 5 -11 0 -14 -3 -6 -6z"/>
<path d="M6328 7213 c6 -2 18 -2 25 0 6 3 1 5 -13 5 -14 0 -19 -2 -12 -5z"/>
<path d="M6390 7210 c-8 -5 -10 -10 -5 -10 6 0 17 5 25 10 8 5 11 10 5 10 -5
0 -17 -5 -25 -10z"/>
<path d="M6453 7212 c-6 -4 9 -7 34 -8 27 -1 39 2 31 7 -16 11 -49 11 -65 1z"/>
<path d="M8568 7203 c7 -3 16 -2 19 1 4 3 -2 6 -13 5 -11 0 -14 -3 -6 -6z"/>
<path d="M8928 7203 c7 -3 16 -2 19 1 4 3 -2 6 -13 5 -11 0 -14 -3 -6 -6z"/>
<path d="M16326 7178 c3 -4 11 -5 19 -1 21 7 19 12 -4 10 -11 0 -18 -5 -15 -9z"/>
<path d="M15940 7170 c-13 -8 -12 -10 3 -10 9 0 17 5 17 10 0 12 -1 12 -20 0z"/>
<path d="M9368 7153 c7 -3 16 -2 19 1 4 3 -2 6 -13 5 -11 0 -14 -3 -6 -6z"/>
<path d="M15977 7154 c-3 -5 1 -15 9 -22 16 -14 18 -5 5 17 -5 7 -11 9 -14 5z"/>
<path d="M5903 7143 c9 -2 23 -2 30 0 6 3 -1 5 -18 5 -16 0 -22 -2 -12 -5z"/>
<path d="M9478 7143 c7 -3 16 -2 19 1 4 3 -2 6 -13 5 -11 0 -14 -3 -6 -6z"/>
<path d="M9518 7133 c7 -3 16 -2 19 1 4 3 -2 6 -13 5 -11 0 -14 -3 -6 -6z"/>
<path d="M16170 7130 c0 -5 9 -10 20 -10 11 0 20 5 20 10 0 6 -9 10 -20 10
-11 0 -20 -4 -20 -10z"/>
<path d="M5906 7121 c-4 -5 3 -7 14 -4 23 6 26 13 6 13 -8 0 -17 -4 -20 -9z"/>
<path d="M6088 7123 c6 -2 18 -2 25 0 6 3 1 5 -13 5 -14 0 -19 -2 -12 -5z"/>
<path d="M9458 7123 c6 -2 18 -2 25 0 6 3 1 5 -13 5 -14 0 -19 -2 -12 -5z"/>
<path d="M15780 7110 c0 -5 5 -10 11 -10 5 0 7 5 4 10 -3 6 -8 10 -11 10 -2 0
-4 -4 -4 -10z"/>
<path d="M16233 7103 c9 -2 15 -9 12 -14 -3 -5 1 -6 10 -2 13 5 14 7 3 14 -7
5 -20 8 -28 8 -11 -1 -10 -3 3 -6z"/>
<path d="M5596 7077 c3 -10 9 -15 12 -12 3 3 0 11 -7 18 -10 9 -11 8 -5 -6z"/>
<path d="M5630 7080 c8 -5 22 -9 30 -9 10 0 8 3 -5 9 -27 12 -43 12 -25 0z"/>
<path d="M9800 7079 c0 -13 41 -22 52 -11 6 6 -1 11 -21 14 -17 3 -31 1 -31
-3z"/>
<path d="M5558 7073 c7 -3 16 -2 19 1 4 3 -2 6 -13 5 -11 0 -14 -3 -6 -6z"/>
<path d="M15713 7073 c9 -2 25 -2 35 0 9 3 1 5 -18 5 -19 0 -27 -2 -17 -5z"/>
<path d="M16185 7060 c3 -5 8 -10 11 -10 2 0 4 5 4 10 0 6 -5 10 -11 10 -5 0
-7 -4 -4 -10z"/>
<path d="M9943 7053 c9 -2 23 -2 30 0 6 3 -1 5 -18 5 -16 0 -22 -2 -12 -5z"/>
<path d="M10038 7053 c6 -2 18 -2 25 0 6 3 1 5 -13 5 -14 0 -19 -2 -12 -5z"/>
<path d="M10085 7050 c3 -5 14 -10 23 -10 15 0 15 2 2 10 -20 13 -33 13 -25 0z"/>
<path d="M10130 7056 c0 -2 9 -6 20 -9 11 -3 18 -1 14 4 -5 9 -34 13 -34 5z"/>
<path d="M10188 7053 c7 -3 16 -2 19 1 4 3 -2 6 -13 5 -11 0 -14 -3 -6 -6z"/>
<path d="M16087 7019 c7 -7 15 -10 18 -7 3 3 -2 9 -12 12 -14 6 -15 5 -6 -5z"/>
<path d="M5420 7000 c0 -5 5 -10 10 -10 6 0 10 5 10 10 0 6 -4 10 -10 10 -5 0
-10 -4 -10 -10z"/>
<path d="M15500 6989 c0 -5 5 -7 10 -4 6 3 10 8 10 11 0 2 -4 4 -10 4 -5 0
-10 -5 -10 -11z"/>
<path d="M15370 6981 c12 -9 13 -11 1 -11 -8 0 -12 -2 -10 -5 3 -2 18 0 35 4
16 5 21 10 12 10 -9 1 -25 4 -35 7 -15 5 -15 4 -3 -5z"/>
<path d="M5248 6973 c7 -3 16 -2 19 1 4 3 -2 6 -13 5 -11 0 -14 -3 -6 -6z"/>
<path d="M10620 6976 c0 -2 7 -7 16 -10 8 -3 12 -2 9 4 -6 10 -25 14 -25 6z"/>
<path d="M10448 6963 c7 -3 16 -2 19 1 4 3 -2 6 -13 5 -11 0 -14 -3 -6 -6z"/>
<path d="M10485 6960 c-3 -5 1 -10 10 -10 9 0 13 5 10 10 -3 6 -8 10 -10 10
-2 0 -7 -4 -10 -10z"/>
<path d="M15943 6933 c-7 -2 -13 -9 -13 -15 0 -7 4 -7 13 0 6 5 23 12 37 15
l25 4 -25 1 c-14 0 -31 -2 -37 -5z"/>
<path d="M5038 6923 c6 -2 18 -2 25 0 6 3 1 5 -13 5 -14 0 -19 -2 -12 -5z"/>
<path d="M15130 6909 c-11 -7 -4 -8 25 -3 50 8 58 14 19 14 -16 0 -36 -5 -44
-11z"/>
<path d="M5033 6903 c4 -3 5 -9 1 -14 -6 -11 4 -11 31 1 16 7 17 9 3 9 -9 1
-22 3 -30 4 -7 2 -10 2 -5 0z"/>
<path d="M11108 6893 c6 -2 18 -2 25 0 6 3 1 5 -13 5 -14 0 -19 -2 -12 -5z"/>
<path d="M11196 6891 c-3 -4 6 -6 19 -3 14 2 25 6 25 8 0 8 -39 4 -44 -5z"/>
<path d="M15170 6890 c0 -5 7 -7 15 -4 8 4 15 8 15 10 0 2 -7 4 -15 4 -8 0
-15 -4 -15 -10z"/>
<path d="M15260 6890 c0 -5 5 -10 10 -10 6 0 10 5 10 10 0 6 -4 10 -10 10 -5
0 -10 -4 -10 -10z"/>
<path d="M15489 6887 c7 -7 14 -8 21 -1 6 6 2 10 -12 11 -16 2 -18 -1 -9 -10z"/>
<path d="M4908 6883 c6 -2 18 -2 25 0 6 3 1 5 -13 5 -14 0 -19 -2 -12 -5z"/>
<path d="M5108 6883 c6 -2 18 -2 25 0 6 3 1 5 -13 5 -14 0 -19 -2 -12 -5z"/>
<path d="M15926 6878 c3 -4 11 -5 19 -1 21 7 19 12 -4 10 -11 0 -18 -5 -15 -9z"/>
<path d="M11550 6850 c0 -5 5 -10 11 -10 5 0 7 5 4 10 -3 6 -8 10 -11 10 -2 0
-4 -4 -4 -10z"/>
<path d="M14815 6850 c-3 -5 -2 -10 4 -10 5 0 13 5 16 10 3 6 2 10 -4 10 -5 0
-13 -4 -16 -10z"/>
<path d="M4820 6840 c-13 -8 -12 -10 3 -10 9 0 17 5 17 10 0 12 -1 12 -20 0z"/>
<path d="M11580 6831 c-25 -7 -25 -7 6 -14 17 -3 44 -2 60 3 25 9 24 9 -11 5
-29 -4 -36 -3 -25 4 17 12 7 12 -30 2z"/>
<path d="M4857 6823 c-10 -9 -9 -23 2 -23 5 0 11 7 15 15 5 15 -5 20 -17 8z"/>
<path d="M14798 6823 c7 -3 16 -2 19 1 4 3 -2 6 -13 5 -11 0 -14 -3 -6 -6z"/>
<path d="M4765 6810 c-3 -5 3 -10 15 -10 12 0 18 5 15 10 -3 6 -10 10 -15 10
-5 0 -12 -4 -15 -10z"/>
<path d="M11490 6810 c0 -5 9 -10 21 -10 11 0 17 5 14 10 -3 6 -13 10 -21 10
-8 0 -14 -4 -14 -10z"/>
<path d="M11868 6813 c7 -3 16 -2 19 1 4 3 -2 6 -13 5 -11 0 -14 -3 -6 -6z"/>
<path d="M14658 6803 c7 -3 16 -2 19 1 4 3 -2 6 -13 5 -11 0 -14 -3 -6 -6z"/>
<path d="M14828 6803 c7 -3 16 -2 19 1 4 3 -2 6 -13 5 -11 0 -14 -3 -6 -6z"/>
<path d="M15703 6784 c0 -16 13 -19 21 -5 3 5 0 11 -7 14 -8 3 -14 -1 -14 -9z"/>
<path d="M4580 6770 c0 -6 11 -8 28 -4 39 10 40 14 4 14 -18 0 -32 -5 -32 -10z"/>
<path d="M14700 6776 c0 -2 7 -7 16 -10 8 -3 12 -2 9 4 -6 10 -25 14 -25 6z"/>
<path d="M14765 6770 c-16 -7 -17 -9 -3 -9 9 -1 20 4 23 9 7 11 7 11 -20 0z"/>
<path d="M12208 6763 c7 -3 16 -2 19 1 4 3 -2 6 -13 5 -11 0 -14 -3 -6 -6z"/>
<path d="M14338 6763 c7 -3 16 -2 19 1 4 3 -2 6 -13 5 -11 0 -14 -3 -6 -6z"/>
<path d="M12160 6750 c0 -5 4 -10 9 -10 6 0 13 5 16 10 3 6 -1 10 -9 10 -9 0
-16 -4 -16 -10z"/>
<path d="M12231 6743 c-12 -13 -11 -14 10 -8 33 10 48 25 24 25 -11 -1 -26 -8
-34 -17z"/>
<path d="M14615 6750 c-3 -5 3 -10 14 -10 12 0 21 5 21 10 0 6 -6 10 -14 10
-8 0 -18 -4 -21 -10z"/>
<path d="M15690 6746 c4 -4 16 -4 26 2 16 9 14 10 -8 9 -15 -1 -23 -6 -18 -11z"/>
<path d="M4608 6743 c6 -2 18 -2 25 0 6 3 1 5 -13 5 -14 0 -19 -2 -12 -5z"/>
<path d="M14020 6743 c8 -3 18 -11 22 -17 5 -7 11 -7 20 3 8 9 9 11 1 7 -6 -3
-14 -2 -18 4 -3 5 -14 10 -23 9 -14 0 -14 -2 -2 -6z"/>
<path d="M14224 6743 c15 -4 16 -7 5 -15 -11 -8 -10 -9 4 -4 10 3 26 6 35 7
20 1 -25 17 -48 17 -8 0 -6 -3 4 -5z"/>
<path d="M4695 6730 c-3 -5 1 -10 10 -10 9 0 13 5 10 10 -3 6 -8 10 -10 10 -2
0 -7 -4 -10 -10z"/>
<path d="M13958 6723 c6 -2 18 -2 25 0 6 3 1 5 -13 5 -14 0 -19 -2 -12 -5z"/>
<path d="M7328 6713 c6 -2 18 -2 25 0 6 3 1 5 -13 5 -14 0 -19 -2 -12 -5z"/>
<path d="M7495 6710 c-3 -5 1 -10 10 -10 9 0 13 5 10 10 -3 6 -8 10 -10 10 -2
0 -7 -4 -10 -10z"/>
<path d="M15534 6704 c-18 -14 -18 -14 6 -3 31 14 36 19 24 19 -6 0 -19 -7
-30 -16z"/>
<path d="M15580 6705 c-14 -8 -20 -14 -14 -15 5 0 19 7 30 15 24 18 16 19 -16
0z"/>
<path d="M5660 6706 c0 -2 7 -7 16 -10 8 -3 12 -2 9 4 -6 10 -25 14 -25 6z"/>
<path d="M5853 6703 c9 -2 25 -2 35 0 9 3 1 5 -18 5 -19 0 -27 -2 -17 -5z"/>
<path d="M5968 6703 c6 -2 18 -2 25 0 6 3 1 5 -13 5 -14 0 -19 -2 -12 -5z"/>
<path d="M15625 6700 c-3 -6 1 -7 9 -4 18 7 21 14 7 14 -6 0 -13 -4 -16 -10z"/>
<path d="M4415 6687 c-26 -16 -30 -36 -5 -30 23 6 44 29 33 36 -5 3 -17 0 -28
-6z"/>
<path d="M7675 6690 c28 -12 47 -12 40 0 -3 6 -18 10 -33 9 -24 0 -25 -1 -7
-9z"/>
<path d="M15465 6691 c-4 -7 11 -16 58 -39 4 -2 7 1 7 7 0 13 -58 42 -65 32z"/>
<path d="M5718 6678 c5 -5 16 -8 23 -6 8 3 3 7 -10 11 -17 4 -21 3 -13 -5z"/>
<path d="M5440 6670 c0 -5 5 -10 10 -10 6 0 10 5 10 10 0 6 -4 10 -10 10 -5 0
-10 -4 -10 -10z"/>
<path d="M7713 6663 c9 -2 25 -2 35 0 9 3 1 5 -18 5 -19 0 -27 -2 -17 -5z"/>
<path d="M4268 6653 c7 -3 16 -2 19 1 4 3 -2 6 -13 5 -11 0 -14 -3 -6 -6z"/>
<path d="M4314 6635 c19 -14 36 -12 36 6 0 5 -12 9 -27 9 -27 -1 -27 -1 -9
-15z"/>
<path d="M4445 6630 c-3 -5 3 -10 14 -10 12 0 21 5 21 10 0 6 -6 10 -14 10 -8
0 -18 -4 -21 -10z"/>
<path d="M5070 6620 c0 -5 5 -10 10 -10 6 0 10 5 10 10 0 6 -4 10 -10 10 -5 0
-10 -4 -10 -10z"/>
<path d="M5115 6610 c-21 -14 -25 -20 -12 -20 9 0 17 4 17 9 0 4 15 13 33 19
21 7 25 10 12 11 -11 0 -33 -8 -50 -19z"/>
<path d="M4164 6606 c-13 -10 -16 -18 -9 -25 7 -7 14 -2 22 15 13 28 13 28
-13 10z"/>
<path d="M8313 6613 c9 -2 23 -2 30 0 6 3 -1 5 -18 5 -16 0 -22 -2 -12 -5z"/>
<path d="M8378 6613 c7 -3 16 -2 19 1 4 3 -2 6 -13 5 -11 0 -14 -3 -6 -6z"/>
<path d="M5160 6600 c-13 -9 -13 -10 0 -10 8 0 22 5 30 10 13 9 13 10 0 10 -8
0 -22 -5 -30 -10z"/>
<path d="M8218 6603 c7 -3 16 -2 19 1 4 3 -2 6 -13 5 -11 0 -14 -3 -6 -6z"/>
<path d="M8265 6600 c3 -5 8 -10 11 -10 2 0 4 5 4 10 0 6 -5 10 -11 10 -5 0
-7 -4 -4 -10z"/>
<path d="M4195 6590 c-3 -5 -2 -10 4 -10 5 0 13 5 16 10 3 6 2 10 -4 10 -5 0
-13 -4 -16 -10z"/>
<path d="M8318 6593 c7 -3 16 -2 19 1 4 3 -2 6 -13 5 -11 0 -14 -3 -6 -6z"/>
<path d="M8368 6588 c5 -5 16 -8 23 -6 8 3 3 7 -10 11 -17 4 -21 3 -13 -5z"/>
<path d="M15398 6593 c7 -3 16 -2 19 1 4 3 -2 6 -13 5 -11 0 -14 -3 -6 -6z"/>
<path d="M15297 6565 c-8 -20 -4 -29 11 -24 5 2 6 13 2 23 -6 19 -7 19 -13 1z"/>
<path d="M4066 6545 c-3 -8 -1 -15 4 -15 6 0 10 7 10 15 0 8 -2 15 -4 15 -2 0
-6 -7 -10 -15z"/>
<path d="M8769 6549 c14 -5 28 -6 32 -2 4 4 -6 9 -24 10 -30 1 -31 1 -8 -8z"/>
<path d="M15207 6553 c-14 -13 -7 -23 16 -22 19 1 19 2 3 6 -15 4 -16 7 -5 14
8 5 9 9 3 9 -6 0 -14 -3 -17 -7z"/>
<path d="M4838 6543 c7 -3 16 -2 19 1 4 3 -2 6 -13 5 -11 0 -14 -3 -6 -6z"/>
<path d="M8588 6543 c6 -2 18 -2 25 0 6 3 1 5 -13 5 -14 0 -19 -2 -12 -5z"/>
<path d="M8646 6542 c-3 -5 8 -6 25 -4 16 2 29 6 29 8 0 8 -49 4 -54 -4z"/>
<path d="M15150 6540 c-13 -8 -12 -10 3 -10 9 0 17 5 17 10 0 12 -1 12 -20 0z"/>
<path d="M8840 6529 c0 -5 -6 -7 -12 -3 -10 5 -10 4 -1 -6 6 -7 16 -9 22 -6
14 9 14 26 1 26 -5 0 -10 -5 -10 -11z"/>
<path d="M4708 6523 c7 -3 16 -2 19 1 4 3 -2 6 -13 5 -11 0 -14 -3 -6 -6z"/>
<path d="M4450 6510 c0 -5 7 -10 15 -10 8 0 15 5 15 10 0 6 -7 10 -15 10 -8 0
-15 -4 -15 -10z"/>
<path d="M4758 6513 c7 -3 16 -2 19 1 4 3 -2 6 -13 5 -11 0 -14 -3 -6 -6z"/>
<path d="M8940 6491 c0 -5 7 -11 15 -15 9 -3 15 0 15 9 0 8 -7 15 -15 15 -8 0
-15 -4 -15 -9z"/>
<path d="M9087 6486 c-6 -15 19 -30 33 -21 13 8 1 35 -15 35 -7 0 -15 -6 -18
-14z"/>
<path d="M15075 6480 c-3 -5 -2 -10 4 -10 5 0 13 5 16 10 3 6 2 10 -4 10 -5 0
-13 -4 -16 -10z"/>
<path d="M4348 6463 c7 -3 16 -2 19 1 4 3 -2 6 -13 5 -11 0 -14 -3 -6 -6z"/>
<path d="M4408 6463 c7 -3 16 -2 19 1 4 3 -2 6 -13 5 -11 0 -14 -3 -6 -6z"/>
<path d="M9158 6463 c7 -3 16 -2 19 1 4 3 -2 6 -13 5 -11 0 -14 -3 -6 -6z"/>
<path d="M3827 6445 c-4 -8 -3 -16 1 -19 4 -3 9 4 9 15 2 23 -3 25 -10 4z"/>
<path d="M15078 6453 c7 -3 16 -2 19 1 4 3 -2 6 -13 5 -11 0 -14 -3 -6 -6z"/>
<path d="M4388 6443 c6 -2 18 -2 25 0 6 3 1 5 -13 5 -14 0 -19 -2 -12 -5z"/>
<path d="M9250 6440 c0 -5 7 -10 15 -10 8 0 15 5 15 10 0 6 -7 10 -15 10 -8 0
-15 -4 -15 -10z"/>
<path d="M4167 6388 c2 -5 13 -8 23 -8 10 0 21 3 23 8 3 4 -8 7 -23 7 -15 0
-26 -3 -23 -7z"/>
<path d="M9555 6390 c-4 -6 6 -10 22 -10 22 0 25 2 13 10 -19 12 -27 12 -35 0z"/>
<path d="M14858 6393 c7 -3 16 -2 19 1 4 3 -2 6 -13 5 -11 0 -14 -3 -6 -6z"/>
<path d="M4088 6373 c7 -3 16 -2 19 1 4 3 -2 6 -13 5 -11 0 -14 -3 -6 -6z"/>
<path d="M4145 6370 c-3 -5 -1 -10 4 -10 6 0 11 5 11 10 0 6 -2 10 -4 10 -3 0
-8 -4 -11 -10z"/>
<path d="M14850 6376 c0 -2 9 -6 20 -9 11 -3 18 -1 14 4 -5 9 -34 13 -34 5z"/>
<path d="M9488 6363 c6 -2 18 -2 25 0 6 3 1 5 -13 5 -14 0 -19 -2 -12 -5z"/>
<path d="M9538 6363 c6 -2 18 -2 25 0 6 3 1 5 -13 5 -14 0 -19 -2 -12 -5z"/>
<path d="M3870 6355 c0 -7 72 -36 77 -31 2 2 -10 11 -28 20 -33 16 -49 20 -49
11z"/>
<path d="M3975 6344 c-19 -15 -19 -15 10 -12 17 2 29 7 28 13 -3 16 -17 15
-38 -1z"/>
<path d="M4090 6350 c-18 -12 -2 -12 25 0 13 6 15 9 5 9 -8 0 -22 -4 -30 -9z"/>
<path d="M14828 6353 c7 -3 16 -2 19 1 4 3 -2 6 -13 5 -11 0 -14 -3 -6 -6z"/>
<path d="M3630 6334 c-24 -15 -16 -14 24 2 15 6 17 4 11 -6 -5 -9 -4 -11 4 -6
11 7 6 26 -7 26 -4 -1 -18 -8 -32 -16z"/>
<path d="M9892 6321 c-9 -5 -5 -11 14 -20 32 -14 37 -11 15 11 -10 10 -22 14
-29 9z"/>
<path d="M3770 6309 c11 -8 12 -12 3 -16 -7 -2 -13 -10 -13 -16 0 -6 7 -4 16
5 17 17 12 38 -9 38 -7 0 -6 -4 3 -11z"/>
<path d="M9948 6313 c7 -3 16 -2 19 1 4 3 -2 6 -13 5 -11 0 -14 -3 -6 -6z"/>
<path d="M9970 6300 c-8 -5 -10 -10 -5 -10 6 0 17 5 25 10 8 5 11 10 5 10 -5
0 -17 -5 -25 -10z"/>
<path d="M3846 6291 c-4 -5 3 -7 14 -4 23 6 26 13 6 13 -8 0 -17 -4 -20 -9z"/>
<path d="M3471 6281 c-11 -7 -11 -10 0 -15 8 -3 3 -4 -10 -2 -17 4 -21 2 -13
-6 7 -7 19 -7 39 0 18 7 22 11 10 11 -10 1 -15 6 -12 11 8 12 4 12 -14 1z"/>
<path d="M14565 6279 c-4 -6 -4 -13 -1 -16 3 -4 6 -1 6 5 0 6 8 13 18 15 15 4
15 5 0 6 -9 0 -20 -4 -23 -10z"/>
<path d="M3795 6270 c-8 -13 5 -13 25 0 13 8 13 10 -2 10 -9 0 -20 -4 -23 -10z"/>
<path d="M3525 6240 c3 -5 8 -10 11 -10 2 0 4 5 4 10 0 6 -5 10 -11 10 -5 0
-7 -4 -4 -10z"/>
<path d="M3458 6233 c7 -3 16 -2 19 1 4 3 -2 6 -13 5 -11 0 -14 -3 -6 -6z"/>
<path d="M10148 6233 c6 -2 18 -2 25 0 6 3 1 5 -13 5 -14 0 -19 -2 -12 -5z"/>
<path d="M3570 6206 c0 -2 9 -6 20 -9 11 -3 18 -1 14 4 -5 9 -34 13 -34 5z"/>
<path d="M10218 6203 c7 -3 16 -2 19 1 4 3 -2 6 -13 5 -11 0 -14 -3 -6 -6z"/>
<path d="M14290 6206 c0 -2 9 -6 20 -9 11 -3 18 -1 14 4 -5 9 -34 13 -34 5z"/>
<path d="M14390 6200 c-13 -8 -12 -10 3 -10 9 0 17 5 17 10 0 12 -1 12 -20 0z"/>
<path d="M10410 6190 c0 -5 5 -10 11 -10 5 0 7 5 4 10 -3 6 -8 10 -11 10 -2 0
-4 -4 -4 -10z"/>
<path d="M10520 6196 c0 -2 7 -6 15 -10 8 -3 15 -1 15 4 0 6 -7 10 -15 10 -8
0 -15 -2 -15 -4z"/>
<path d="M3377 6149 c7 -7 15 -10 18 -7 3 3 -2 9 -12 12 -14 6 -15 5 -6 -5z"/>
<path d="M3468 6153 c6 -2 18 -2 25 0 6 3 1 5 -13 5 -14 0 -19 -2 -12 -5z"/>
<path d="M10640 6150 c-13 -8 -13 -10 2 -10 9 0 20 5 23 10 8 13 -5 13 -25 0z"/>
<path d="M3215 6131 c-3 -6 -10 -9 -15 -6 -5 3 -11 1 -15 -4 -3 -6 4 -8 16 -6
25 5 35 13 27 21 -3 3 -9 0 -13 -5z"/>
<path d="M10728 6133 c6 -2 18 -2 25 0 6 3 1 5 -13 5 -14 0 -19 -2 -12 -5z"/>
<path d="M14043 6133 c9 -2 23 -2 30 0 6 3 -1 5 -18 5 -16 0 -22 -2 -12 -5z"/>
<path d="M10665 6120 c17 -4 44 -8 60 -8 25 0 24 2 -10 9 -51 10 -92 10 -50
-1z"/>
<path d="M14108 6123 c7 -3 16 -2 19 1 4 3 -2 6 -13 5 -11 0 -14 -3 -6 -6z"/>
<path d="M3226 6101 c-3 -5 4 -11 16 -14 29 -8 32 -4 8 11 -10 6 -21 8 -24 3z"/>
<path d="M3149 6072 c11 -8 11 -11 0 -16 -8 -3 2 -4 21 -1 l35 5 -33 -15 c-18
-9 -38 -12 -45 -9 -9 5 -9 4 -1 -5 9 -10 20 -9 49 4 42 17 39 28 -10 39 -19 4
-25 3 -16 -2z"/>
<path d="M11125 6070 c-13 -5 -14 -9 -5 -9 8 0 24 4 35 9 13 5 14 9 5 9 -8 0
-24 -4 -35 -9z"/>
<path d="M13595 6070 c3 -5 11 -10 16 -10 6 0 7 5 4 10 -3 6 -11 10 -16 10 -6
0 -7 -4 -4 -10z"/>
<path d="M11193 6056 c0 -6 20 -12 46 -13 49 -2 47 0 -10 15 -25 7 -36 6 -36
-2z"/>
<path d="M13735 6055 c-39 -17 -21 -18 25 0 19 7 28 14 20 14 -8 0 -28 -6 -45
-14z"/>
<path d="M3080 6050 c0 -5 5 -10 10 -10 6 0 10 5 10 10 0 6 -4 10 -10 10 -5 0
-10 -4 -10 -10z"/>
<path d="M13500 6056 c0 -2 9 -6 20 -9 11 -3 18 -1 14 4 -5 9 -34 13 -34 5z"/>
<path d="M13668 6053 c6 -2 18 -2 25 0 6 3 1 5 -13 5 -14 0 -19 -2 -12 -5z"/>
<path d="M11248 6023 c6 -2 18 -2 25 0 6 3 1 5 -13 5 -14 0 -19 -2 -12 -5z"/>
<path d="M13288 6023 c7 -3 16 -2 19 1 4 3 -2 6 -13 5 -11 0 -14 -3 -6 -6z"/>
<path d="M13358 6003 c6 -2 18 -2 25 0 6 3 1 5 -13 5 -14 0 -19 -2 -12 -5z"/>
<path d="M3018 5993 c7 -3 16 -2 19 1 4 3 -2 6 -13 5 -11 0 -14 -3 -6 -6z"/>
<path d="M11605 5990 c27 -12 43 -12 25 0 -8 5 -22 9 -30 9 -10 0 -8 -3 5 -9z"/>
<path d="M11833 5990 c2 -8 14 -16 28 -17 19 -1 20 -1 4 4 -11 3 -24 10 -28
17 -6 7 -7 6 -4 -4z"/>
<path d="M13033 5985 c0 -7 6 -11 14 -8 7 3 13 6 13 8 0 2 -6 5 -13 8 -8 3
-14 -1 -14 -8z"/>
<path d="M13085 5990 c11 -5 29 -9 40 -9 l20 0 -20 9 c-11 5 -29 9 -40 9 l-20
0 20 -9z"/>
<path d="M13178 5993 c7 -3 16 -2 19 1 4 3 -2 6 -13 5 -11 0 -14 -3 -6 -6z"/>
<path d="M11988 5983 c12 -2 30 -2 40 0 9 3 -1 5 -23 4 -22 0 -30 -2 -17 -4z"/>
<path d="M13228 5983 c7 -3 16 -2 19 1 4 3 -2 6 -13 5 -11 0 -14 -3 -6 -6z"/>
<path d="M13318 5983 c7 -3 16 -2 19 1 4 3 -2 6 -13 5 -11 0 -14 -3 -6 -6z"/>
<path d="M12800 5970 c0 -5 5 -10 10 -10 6 0 10 5 10 10 0 6 -4 10 -10 10 -5
0 -10 -4 -10 -10z"/>
<path d="M11980 5960 c14 -4 36 -8 50 -8 22 0 22 1 -5 8 -16 4 -39 8 -50 8
-16 0 -15 -2 5 -8z"/>
<path d="M12935 5960 c-27 -7 -28 -8 -5 -8 14 0 34 3 45 8 25 11 2 11 -40 0z"/>
<path d="M13058 5963 c7 -3 16 -2 19 1 4 3 -2 6 -13 5 -11 0 -14 -3 -6 -6z"/>
<path d="M15705 6450 c-3 -5 -1 -10 4 -10 6 0 11 5 11 10 0 6 -2 10 -4 10 -3
0 -8 -4 -11 -10z"/>
<path d="M15758 6433 c7 -3 16 -2 19 1 4 3 -2 6 -13 5 -11 0 -14 -3 -6 -6z"/>
<path d="M15668 6393 c10 -4 10 -8 1 -19 -7 -8 -7 -14 -1 -14 5 0 15 6 21 14
9 11 8 15 -5 20 -8 3 -19 6 -22 5 -4 0 -1 -3 6 -6z"/>
<path d="M15630 6379 c0 -5 5 -7 10 -4 6 3 10 8 10 11 0 2 -4 4 -10 4 -5 0
-10 -5 -10 -11z"/>
<path d="M15215 6190 c3 -5 8 -10 11 -10 2 0 4 5 4 10 0 6 -5 10 -11 10 -5 0
-7 -4 -4 -10z"/>
<path d="M15040 6090 c8 -5 22 -9 30 -9 10 0 8 3 -5 9 -27 12 -43 12 -25 0z"/>
<path d="M15196 6085 c-3 -8 -1 -15 4 -15 6 0 10 7 10 15 0 8 -2 15 -4 15 -2
0 -6 -7 -10 -15z"/>
<path d="M9338 6083 c7 -3 16 -2 19 1 4 3 -2 6 -13 5 -11 0 -14 -3 -6 -6z"/>
<path d="M9478 6053 c7 -3 16 -2 19 1 4 3 -2 6 -13 5 -11 0 -14 -3 -6 -6z"/>
<path d="M9515 6051 c-6 -11 26 -31 47 -30 7 0 0 7 -17 14 l-30 13 35 5 35 4
-32 1 c-17 1 -34 -2 -38 -7z"/>
<path d="M14910 6050 c-9 -6 -10 -10 -3 -10 6 0 15 5 18 10 8 12 4 12 -15 0z"/>
<path d="M9653 6023 c9 -2 23 -2 30 0 6 3 -1 5 -18 5 -16 0 -22 -2 -12 -5z"/>
<path d="M9768 6013 c7 -3 16 -2 19 1 4 3 -2 6 -13 5 -11 0 -14 -3 -6 -6z"/>
<path d="M14835 6010 c-3 -5 -1 -10 4 -10 6 0 11 5 11 10 0 6 -2 10 -4 10 -3
0 -8 -4 -11 -10z"/>
<path d="M14890 6010 c0 -5 5 -10 10 -10 6 0 10 5 10 10 0 6 -4 10 -10 10 -5
0 -10 -4 -10 -10z"/>
<path d="M9758 5973 c7 -3 16 -2 19 1 4 3 -2 6 -13 5 -11 0 -14 -3 -6 -6z"/>
<path d="M9927 5974 c-4 -4 -4 -10 -2 -14 6 -10 45 0 45 11 0 10 -33 12 -43 3z"/>
<path d="M9798 5963 c7 -3 16 -2 19 1 4 3 -2 6 -13 5 -11 0 -14 -3 -6 -6z"/>
<path d="M10048 5963 c6 -2 18 -2 25 0 6 3 1 5 -13 5 -14 0 -19 -2 -12 -5z"/>
<path d="M14668 5963 c7 -3 16 -2 19 1 4 3 -2 6 -13 5 -11 0 -14 -3 -6 -6z"/>
<path d="M14695 5950 c-3 -5 1 -10 9 -10 9 0 16 5 16 10 0 6 -4 10 -9 10 -6 0
-13 -4 -16 -10z"/>
<path d="M10108 5943 c7 -3 16 -2 19 1 4 3 -2 6 -13 5 -11 0 -14 -3 -6 -6z"/>
<path d="M10030 5926 c0 -2 9 -6 20 -9 11 -3 18 -1 14 4 -5 9 -34 13 -34 5z"/>
<path d="M14810 5906 c0 -5 -20 -6 -44 -4 -32 4 -42 2 -34 -6 13 -13 99 -15
90 -2 -3 5 2 7 11 3 8 -3 17 0 20 6 3 7 -5 12 -19 12 -13 0 -24 -4 -24 -9z"/>
<path d="M10108 5893 c7 -3 16 -2 19 1 4 3 -2 6 -13 5 -11 0 -14 -3 -6 -6z"/>
<path d="M14476 5879 c3 -5 -1 -9 -8 -10 -15 -1 21 -17 40 -18 23 -2 12 27
-13 31 -13 3 -22 1 -19 -3z"/>
<path d="M10240 5870 c0 -5 5 -10 10 -10 6 0 10 5 10 10 0 6 -4 10 -10 10 -5
0 -10 -4 -10 -10z"/>
<path d="M14655 5870 c-8 -13 44 -42 59 -33 10 6 4 13 -20 24 -19 9 -36 13
-39 9z"/>
<path d="M10330 5860 c0 -5 5 -10 10 -10 6 0 10 5 10 10 0 6 -4 10 -10 10 -5
0 -10 -4 -10 -10z"/>
<path d="M14404 5849 c-3 -6 -1 -16 5 -22 8 -8 11 -7 11 6 0 13 7 16 33 12 28
-4 29 -4 7 4 -35 13 -48 13 -56 0z"/>
<path d="M10325 5829 c-19 -7 -19 -8 2 -8 12 -1 23 -7 26 -13 4 -10 7 -10 18
0 11 10 10 12 -3 12 -9 0 -18 4 -20 9 -1 4 -12 5 -23 0z"/>
<path d="M10435 5820 l-30 -8 27 -1 c15 0 30 4 33 9 3 6 5 9 3 9 -2 -1 -16 -5
-33 -9z"/>
<path d="M14595 5811 c-3 -5 0 -13 6 -17 7 -4 9 -3 5 4 -3 5 0 13 6 15 9 4 10
6 1 6 -6 1 -14 -3 -18 -8z"/>
<path d="M10465 5800 c-3 -5 -1 -10 4 -10 6 0 11 5 11 10 0 6 -2 10 -4 10 -3
0 -8 -4 -11 -10z"/>
<path d="M10635 5780 c-3 -6 1 -7 9 -4 18 7 21 14 7 14 -6 0 -13 -4 -16 -10z"/>
<path d="M14150 5775 c0 -8 8 -15 18 -15 14 0 14 2 3 9 -11 7 -9 10 10 14 23
4 22 4 -3 6 -19 1 -28 -4 -28 -14z"/>
<path d="M14071 5771 c-10 -7 -7 -9 12 -8 14 1 23 5 20 10 -6 9 -15 9 -32 -2z"/>
<path d="M10650 5749 c0 -5 -4 -7 -10 -4 -5 3 -10 1 -10 -5 0 -7 7 -9 16 -6 9
3 20 6 25 6 6 0 7 5 4 10 -8 13 -25 13 -25 -1z"/>
<path d="M11205 5720 c-3 -5 -1 -10 4 -10 6 0 11 5 11 10 0 6 -2 10 -4 10 -3
0 -8 -4 -11 -10z"/>
<path d="M10750 5710 c0 -5 5 -10 11 -10 5 0 7 5 4 10 -3 6 -8 10 -11 10 -2 0
-4 -4 -4 -10z"/>
<path d="M10795 5709 c-4 -6 -4 -13 -1 -16 3 -4 6 -1 6 6 0 8 7 11 15 7 8 -3
15 -1 15 4 0 13 -27 13 -35 -1z"/>
<path d="M11265 5710 c-16 -7 -17 -9 -3 -9 9 -1 20 4 23 9 7 11 7 11 -20 0z"/>
<path d="M13738 5713 c6 -2 18 -2 25 0 6 3 1 5 -13 5 -14 0 -19 -2 -12 -5z"/>
<path d="M14210 5710 c0 -5 7 -10 15 -10 8 0 15 5 15 10 0 6 -7 10 -15 10 -8
0 -15 -4 -15 -10z"/>
<path d="M11320 5700 c34 -11 60 -11 35 0 -11 5 -29 8 -40 8 -16 0 -15 -2 5
-8z"/>
<path d="M11425 5690 c27 -12 43 -12 25 0 -8 5 -22 9 -30 9 -10 0 -8 -3 5 -9z"/>
<path d="M14156 5667 c3 -10 9 -15 12 -12 3 3 0 11 -7 18 -10 9 -11 8 -5 -6z"/>
<path d="M11330 5650 c-13 -8 -12 -10 3 -10 9 0 17 5 17 10 0 12 -1 12 -20 0z"/>
<path d="M13510 5650 c-9 -6 -10 -10 -3 -10 6 0 15 5 18 10 8 12 4 12 -15 0z"/>
<path d="M11658 5643 c7 -3 16 -2 19 1 4 3 -2 6 -13 5 -11 0 -14 -3 -6 -6z"/>
<path d="M11775 5639 c-14 -6 -6 -7 25 -4 32 4 39 2 25 -4 -16 -8 -16 -10 -4
-10 9 -1 28 5 42 12 25 13 24 14 -21 14 -26 1 -56 -3 -67 -8z"/>
<path d="M13168 5633 c6 -2 18 -2 25 0 6 3 1 5 -13 5 -14 0 -19 -2 -12 -5z"/>
<path d="M13338 5633 c7 -3 16 -2 19 1 4 3 -2 6 -13 5 -11 0 -14 -3 -6 -6z"/>
<path d="M13048 5623 c7 -3 16 -2 19 1 4 3 -2 6 -13 5 -11 0 -14 -3 -6 -6z"/>
<path d="M13128 5623 c7 -3 16 -2 19 1 4 3 -2 6 -13 5 -11 0 -14 -3 -6 -6z"/>
<path d="M13288 5623 c6 -2 18 -2 25 0 6 3 1 5 -13 5 -14 0 -19 -2 -12 -5z"/>
<path d="M11960 5610 c0 -13 11 -13 30 0 12 8 11 10 -7 10 -13 0 -23 -4 -23
-10z"/>
<path d="M12140 5608 c30 -7 129 -2 138 7 2 2 -36 2 -85 2 -67 -1 -80 -3 -53
-9z"/>
<path d="M12863 5613 c9 -2 23 -2 30 0 6 3 -1 5 -18 5 -16 0 -22 -2 -12 -5z"/>
<path d="M11238 5593 c6 -2 18 -2 25 0 6 3 1 5 -13 5 -14 0 -19 -2 -12 -5z"/>
<path d="M11410 5590 c8 -5 24 -10 34 -10 26 0 18 6 -19 14 -22 5 -26 4 -15
-4z"/>
<path d="M11348 5583 c7 -3 16 -2 19 1 4 3 -2 6 -13 5 -11 0 -14 -3 -6 -6z"/>
<path d="M13870 5575 c19 -7 42 -13 50 -13 8 0 -1 6 -20 13 -19 7 -42 13 -50
13 -8 0 1 -6 20 -13z"/>
<path d="M11388 5573 c7 -3 16 -2 19 1 4 3 -2 6 -13 5 -11 0 -14 -3 -6 -6z"/>
<path d="M11578 5568 c9 -9 15 -9 24 0 9 9 7 12 -12 12 -19 0 -21 -3 -12 -12z"/>
<path d="M11437 5558 c2 -5 10 -8 18 -8 8 0 16 3 18 8 3 4 -5 7 -18 7 -13 0
-21 -3 -18 -7z"/>
<path d="M11505 5550 c3 -5 8 -10 11 -10 2 0 4 5 4 10 0 6 -5 10 -11 10 -5 0
-7 -4 -4 -10z"/>
<path d="M11837 5514 c-4 -4 -23 -7 -43 -6 -62 2 -32 -7 36 -11 36 -3 56 -2
45 0 -11 3 -23 9 -26 14 -3 5 -8 6 -12 3z"/>
<path d="M13268 5513 c7 -3 16 -2 19 1 4 3 -2 6 -13 5 -11 0 -14 -3 -6 -6z"/>
<path d="M13515 5510 c3 -5 8 -10 11 -10 2 0 4 5 4 10 0 6 -5 10 -11 10 -5 0
-7 -4 -4 -10z"/>
<path d="M11910 5501 c12 -9 13 -11 1 -11 -8 0 -12 -2 -9 -5 3 -3 16 -1 29 4
13 5 19 10 12 10 -6 1 -20 4 -30 7 -15 5 -15 4 -3 -5z"/>
<path d="M13398 5503 c7 -3 16 -2 19 1 4 3 -2 6 -13 5 -11 0 -14 -3 -6 -6z"/>
<path d="M13240 5496 c0 -9 50 -12 62 -5 8 6 -1 9 -24 9 -21 0 -38 -2 -38 -4z"/>
<path d="M13348 5493 c7 -3 16 -2 19 1 4 3 -2 6 -13 5 -11 0 -14 -3 -6 -6z"/>
<path d="M11938 5473 c7 -3 16 -2 19 1 4 3 -2 6 -13 5 -11 0 -14 -3 -6 -6z"/>
<path d="M12530 5426 c4 -4 21 -4 37 2 28 10 28 10 -9 8 -21 0 -33 -5 -28 -10z"/>
<path d="M12658 5423 c7 -3 16 -2 19 1 4 3 -2 6 -13 5 -11 0 -14 -3 -6 -6z"/>
<path d="M12733 5423 c9 -2 23 -2 30 0 6 3 -1 5 -18 5 -16 0 -22 -2 -12 -5z"/>
<path d="M6100 3598 c-97 -39 -120 -67 -120 -146 0 -43 5 -55 31 -81 77 -77
231 -59 288 33 16 26 21 50 21 107 l0 74 -53 13 c-63 14 -132 15 -167 0z"/>
<path d="M10822 3591 c-24 -9 -57 -29 -73 -45 -25 -25 -29 -37 -29 -86 0 -49
4 -60 31 -88 76 -78 231 -61 288 32 16 26 21 50 21 107 l0 74 -53 13 c-69 16
-132 14 -185 -7z"/>
<path d="M12525 3853 c-82 -43 -116 -104 -123 -223 -10 -188 68 -299 211 -300
84 0 145 40 189 123 19 36 22 58 22 152 0 116 -8 144 -57 202 -52 60 -172 83
-242 46z"/>
<path d="M13621 3893 c-29 -6 -111 -89 -111 -112 0 -9 -5 -22 -11 -28 -6 -6
-9 -26 -7 -44 l3 -34 190 0 190 0 3 38 c4 48 -32 121 -75 155 -25 19 -47 25
-95 27 -35 2 -74 1 -87 -2z"/>
</g>
</svg>
