<svg xmlns="http://www.w3.org/2000/svg" xmlns:v="https://svgstorm.com"
viewBox = "0 0 1600 1600"
width="1600"
height="1600">
<g fill="None" fill-opacity="0.0" stroke="#000000" stroke-opacity="1.00" stroke-width="0.3"><path d="
M 0.00 1599.00 
C 533.00 1599.02 1066.01 1598.98 1599.00 1599.00
C 1599.02 1066.01 1598.98 533.00 1599.00 0.00
L 0.00 0.00
L 0.00 1599.00
M 1079.00 288.00 
C 1064.63 288.58 1049.27 287.23 1035.00 288.00 C 1020.73 288.77 1003.81 286.55 990.00 288.00 C 976.19 289.45 967.20 282.32 956.77 276.23 C 946.34 270.13 938.37 265.25 928.30 259.70 C 918.23 254.14 909.58 248.76 899.77 243.23 C 889.96 237.69 880.84 232.63 871.30 226.70 C 861.77 220.77 852.04 216.87 842.77 210.23 C 833.50 203.59 823.05 201.61 813.92 194.08 C 804.79 186.54 794.64 185.45 785.31 193.31 C 775.97 201.16 766.32 203.37 756.77 209.77 C 747.22 216.18 738.01 220.56 728.31 226.30 C 718.60 232.05 709.62 237.28 699.77 242.77 C 689.92 248.26 681.34 253.74 671.31 259.31 C 661.27 264.87 653.25 269.91 642.77 275.77 C 632.29 281.63 623.81 289.23 610.00 288.00 C 596.19 286.77 579.38 288.64 565.00 288.00 C 550.62 287.36 534.54 288.48 520.00 288.00
C 527.68 281.41 537.68 277.88 546.23 272.23 C 554.78 266.58 564.15 262.09 573.08 257.08 C 582.00 252.06 590.20 246.08 599.23 241.23 C 608.26 236.38 617.23 231.26 626.08 226.08 C 634.92 220.89 643.88 215.94 652.70 210.70 C 661.51 205.46 670.46 200.64 679.23 195.23 C 688.00 189.82 697.24 185.47 706.08 180.08 C 714.92 174.69 723.76 170.12 732.70 164.69 C 741.63 159.27 750.44 155.46 759.23 149.23 C 768.02 143.00 777.29 141.44 786.08 134.08 C 794.86 126.72 803.46 126.31 812.25 133.75 C 821.04 141.19 830.33 142.60 839.08 148.92 C 847.83 155.24 856.76 158.87 865.70 164.30 C 874.63 169.74 883.33 174.47 892.23 179.77 C 901.13 185.07 910.30 189.52 919.08 194.92 C 927.85 200.33 936.90 205.03 945.70 210.30 C 954.50 215.58 963.38 220.56 972.23 225.77 C 981.08 230.98 990.06 236.03 999.08 240.92 C 1008.09 245.82 1016.36 251.63 1025.25 256.75 C 1034.14 261.87 1043.64 266.02 1052.23 271.77 C 1060.82 277.52 1071.00 281.72 1079.00 288.00
M 952.00 350.00 
C 952.87 350.87 954.55 351.24 954.00 353.00
C 920.50 352.33 885.68 354.33 853.00 352.00
C 843.92 348.93 835.79 340.14 826.77 337.23 C 817.75 334.31 809.34 322.62 799.92 322.08 C 790.51 321.53 781.83 334.11 772.92 336.92 C 764.01 339.72 755.07 348.86 746.00 352.00
C 731.01 357.20 712.38 351.08 696.00 353.00 C 679.62 354.92 660.62 351.56 644.00 353.00
C 643.49 351.08 645.84 350.77 647.00 350.00
C 655.62 343.83 665.76 340.42 674.70 334.69 C 683.63 328.97 692.97 323.56 702.23 318.23 C 711.49 312.90 720.39 308.24 729.70 302.69 C 739.00 297.15 748.37 292.71 757.70 286.69 C 767.02 280.68 775.59 278.26 784.75 270.75 C 793.90 263.23 804.34 262.91 813.25 270.75 C 822.16 278.60 831.68 279.80 840.70 286.30 C 849.71 292.81 859.67 296.37 868.70 302.31 C 877.73 308.24 887.15 312.22 896.08 317.92 C 905.00 323.63 915.43 327.92 923.75 334.25 C 932.06 340.59 944.72 342.72 952.00 350.00
M 1156.00 305.00 
C 1159.92 305.04 1157.54 319.56 1158.00 326.00 C 1158.46 332.44 1157.79 343.52 1158.00 351.00 C 1158.21 358.48 1157.91 368.05 1158.00 376.00 C 1158.09 383.95 1157.96 392.84 1158.00 401.00 C 1158.04 409.16 1157.98 417.74 1158.00 426.00 C 1158.02 434.26 1157.99 442.68 1158.00 451.00 C 1158.01 459.32 1158.00 467.64 1158.00 476.00 C 1158.00 484.36 1158.00 492.57 1158.00 501.00 C 1158.00 509.43 1158.00 518.57 1158.00 527.00 C 1158.00 535.43 1158.00 543.62 1158.00 552.00 C 1158.00 560.38 1158.01 568.65 1158.00 577.00 C 1158.00 585.35 1158.01 593.66 1158.00 602.00 C 1157.99 610.34 1158.02 618.68 1158.00 627.00 C 1157.98 635.32 1158.05 643.70 1158.00 652.00 C 1157.95 660.30 1158.11 668.73 1158.00 677.00 C 1157.89 685.27 1158.25 693.82 1158.00 702.00 C 1157.75 710.18 1158.56 719.00 1158.00 727.00 C 1157.44 735.00 1160.92 744.53 1154.00 749.00
C 1142.93 756.14 1130.88 761.70 1119.77 768.77 C 1108.66 775.84 1096.46 781.28 1085.31 788.31 C 1074.15 795.33 1062.54 801.42 1051.25 808.25 C 1039.97 815.09 1028.25 821.17 1016.92 827.92 C 1005.59 834.67 994.22 841.23 982.77 847.77 C 971.32 854.31 960.14 860.99 948.75 867.75 C 937.37 874.51 925.52 880.07 914.30 887.30 C 903.08 894.53 891.18 899.46 879.92 906.92 C 868.67 914.39 857.18 918.87 845.77 926.77 C 834.36 934.67 823.15 937.14 811.75 946.75 C 800.36 956.37 787.90 947.56 776.77 940.23 C 765.64 932.90 753.66 927.51 742.31 920.70 C 730.95 913.88 719.73 907.34 708.30 900.70 C 696.88 894.06 685.37 887.63 673.92 881.08 C 662.48 874.52 651.28 867.63 639.77 861.23 C 628.26 854.83 617.19 847.84 605.75 841.25 C 594.32 834.65 582.49 828.80 571.30 821.70 C 560.11 814.59 548.20 809.12 536.92 802.08 C 525.65 795.04 514.11 789.37 502.77 782.23 C 491.43 775.08 479.99 770.21 468.77 762.23 C 457.55 754.25 439.48 753.23 441.00 736.00 C 442.52 718.77 440.32 699.65 441.00 682.00 C 441.69 664.35 440.69 645.84 441.00 628.00 C 441.31 610.16 440.86 591.93 441.00 574.00 C 441.14 556.07 440.94 537.97 441.00 520.00 C 441.06 502.03 440.97 483.99 441.00 466.00 C 441.03 448.01 440.99 429.99 441.00 412.00 C 441.01 394.01 440.99 376.00 441.00 358.00 C 441.01 340.00 440.99 322.00 441.00 304.00
C 450.36 307.71 458.39 313.78 467.23 318.77 C 476.07 323.76 485.39 328.60 494.08 333.92 C 502.76 339.25 512.02 344.04 520.70 349.30 C 529.38 354.56 537.86 359.30 546.70 364.30 C 555.53 369.31 564.27 374.92 573.23 379.77 C 582.19 384.62 591.08 389.88 599.75 395.25 C 608.41 400.63 617.49 404.41 626.08 409.92 C 634.66 415.44 643.88 420.16 652.70 425.31 C 661.51 430.45 670.13 436.07 679.23 440.77 C 688.33 445.47 696.71 451.37 705.70 456.31 C 714.68 461.24 722.90 465.86 731.75 471.25 C 740.59 476.65 749.47 480.70 758.23 486.77 C 766.99 492.84 776.19 495.14 785.08 501.92 C 793.96 508.71 802.36 510.40 811.23 503.23 C 820.10 496.06 829.41 494.44 838.08 488.08 C 846.75 481.72 856.00 478.41 864.70 472.70 C 873.39 466.98 881.86 462.93 890.70 457.70 C 899.53 452.46 908.46 447.56 917.23 442.23 C 926.00 436.90 935.44 432.58 944.08 427.08 C 952.71 421.57 961.96 416.91 970.70 411.70 C 979.43 406.48 987.78 401.57 996.70 396.70 C 1005.61 391.82 1014.14 385.84 1023.23 381.23 C 1032.32 376.61 1040.77 370.58 1049.70 365.70 C 1058.62 360.82 1066.91 355.84 1075.70 350.70 C 1084.48 345.55 1093.43 340.44 1102.25 335.25 C 1111.06 330.05 1120.10 325.01 1129.08 320.08 C 1138.06 315.15 1146.73 309.14 1156.00 305.00
M 1175.00 1092.00 
C 1168.82 1093.95 1162.22 1096.19 1155.00 1097.00
C 1125.77 1100.27 1097.15 1107.00 1067.00 1107.00
C 1049.43 1108.70 1028.50 1108.69 1011.00 1107.00
C 976.38 1107.00 942.73 1099.77 909.00 1096.00
C 903.48 1095.38 898.77 1094.47 894.00 1093.00
C 862.12 1090.47 832.58 1078.96 800.93 1074.07 C 769.28 1069.19 739.07 1059.16 707.00 1055.00 C 674.93 1050.84 639.12 1043.65 606.00 1043.00
C 604.67 1042.97 603.33 1043.00 602.00 1043.00
C 580.54 1045.92 551.88 1043.68 530.00 1042.00
C 494.11 1042.72 458.99 1048.45 424.00 1053.00
C 419.67 1054.02 414.81 1055.11 410.00 1056.00
C 378.19 1061.92 344.21 1071.26 313.92 1081.92 C 283.64 1092.59 252.54 1100.41 224.00 1115.00
C 221.37 1116.35 218.84 1119.95 215.00 1119.00
C 216.82 1116.10 219.83 1113.81 223.00 1113.00
C 256.18 1095.47 287.49 1071.42 323.00 1058.00
C 328.03 1055.26 332.78 1050.79 339.00 1050.00
C 339.49 1049.94 340.54 1050.13 341.00 1050.00
C 357.70 1045.42 370.95 1035.46 388.07 1031.07 C 405.20 1026.69 420.10 1018.94 438.02 1015.02 C 455.95 1011.11 473.46 1005.53 492.22 1002.22 C 510.98 998.91 530.32 996.41 550.00 994.00 C 569.68 991.59 592.25 990.00 613.00 990.00
C 625.57 988.78 640.50 988.79 653.00 990.00
C 700.03 990.00 745.13 997.88 791.00 1001.00
C 795.91 1001.33 799.83 1002.01 804.00 1003.00
C 820.31 1004.25 836.80 1007.37 853.00 1010.00
C 858.31 1009.79 859.50 1010.44 864.00 1012.00
C 915.41 1018.70 967.66 1031.95 1020.00 1033.00
C 1027.18 1033.14 1033.79 1033.89 1040.00 1035.00
C 1057.80 1035.36 1074.91 1037.00 1093.00 1037.00
C 1109.67 1037.00 1126.33 1037.00 1143.00 1037.00
C 1153.45 1037.00 1162.93 1035.28 1173.00 1035.00
C 1178.06 1034.14 1183.16 1033.00 1189.00 1033.00
C 1191.32 1033.00 1193.69 1033.15 1196.00 1033.00
C 1243.43 1029.99 1286.47 1011.97 1331.00 999.00
C 1331.27 998.87 1331.65 998.11 1332.00 998.00
C 1336.75 994.04 1345.04 991.91 1351.00 990.00
C 1370.87 983.64 1388.93 971.37 1408.00 963.00
C 1346.15 1031.11 1261.16 1070.58 1175.00 1092.00
M 1315.00 1065.00 
C 1278.85 1093.54 1237.80 1108.92 1197.00 1128.00
C 1193.14 1129.80 1189.75 1131.89 1185.00 1132.00
C 1184.50 1132.01 1184.00 1132.00 1184.00 1132.00
C 1180.21 1135.26 1173.96 1136.21 1169.00 1137.00
C 1163.92 1137.81 1159.15 1139.18 1154.00 1140.00
C 1149.31 1141.29 1145.48 1142.67 1140.00 1143.00
C 1116.36 1144.41 1092.78 1149.09 1069.00 1150.00
C 1059.92 1151.30 1048.99 1150.87 1040.00 1150.00
C 930.99 1150.00 830.56 1102.74 726.00 1084.00
C 715.75 1082.16 705.37 1079.16 695.00 1078.00
C 690.16 1077.46 685.53 1077.70 681.00 1076.00
C 688.86 1073.62 699.24 1075.90 707.00 1077.00
C 713.32 1077.56 719.87 1078.66 726.00 1080.00
C 753.80 1086.06 782.89 1089.90 811.00 1094.00
C 815.43 1094.65 820.04 1096.05 824.00 1097.00
C 844.65 1098.94 863.11 1107.58 884.01 1109.99 C 904.91 1112.40 924.72 1119.46 946.02 1121.98 C 967.32 1124.50 990.89 1129.00 1013.00 1129.00
C 1017.41 1129.00 1022.34 1129.65 1026.00 1130.00
C 1062.96 1130.00 1104.20 1128.72 1139.00 1123.00 C 1173.81 1117.28 1199.90 1105.84 1233.00 1097.00
C 1236.80 1095.44 1240.96 1093.59 1245.00 1092.00
C 1274.85 1080.28 1302.18 1063.67 1330.00 1048.00
C 1336.05 1043.68 1341.27 1037.58 1348.00 1034.00
C 1339.59 1046.36 1326.09 1055.14 1315.00 1065.00 Z"/>
</g>
<g fill="None" fill-opacity="0.0" stroke="#DFDFDF" stroke-opacity="1.00" stroke-width="0.3"><path d="
M 0.00 1599.00 
L 0.00 1600.00
L 1600.00 1600.00
L 1600.00 0.00
L 1599.00 0.00
C 1598.98 533.00 1599.02 1066.01 1599.00 1599.00
C 1066.01 1598.98 533.00 1599.02 0.00 1599.00 Z"/>
</g>
<g fill="None" fill-opacity="0.0" stroke="#FBFBFB" stroke-opacity="1.00" stroke-width="0.3"><path d="
M 1079.00 288.00 
C 1071.00 281.72 1060.82 277.52 1052.23 271.77 C 1043.64 266.02 1034.14 261.87 1025.25 256.75 C 1016.36 251.63 1008.09 245.82 999.08 240.92 C 990.06 236.03 981.08 230.98 972.23 225.77 C 963.38 220.56 954.50 215.58 945.70 210.30 C 936.90 205.03 927.85 200.33 919.08 194.92 C 910.30 189.52 901.13 185.07 892.23 179.77 C 883.33 174.47 874.63 169.74 865.70 164.30 C 856.76 158.87 847.83 155.24 839.08 148.92 C 830.33 142.60 821.04 141.19 812.25 133.75 C 803.46 126.31 794.86 126.72 786.08 134.08 C 777.29 141.44 768.02 143.00 759.23 149.23 C 750.44 155.46 741.63 159.27 732.70 164.69 C 723.76 170.12 714.92 174.69 706.08 180.08 C 697.24 185.47 688.00 189.82 679.23 195.23 C 670.46 200.64 661.51 205.46 652.70 210.70 C 643.88 215.94 634.92 220.89 626.08 226.08 C 617.23 231.26 608.26 236.38 599.23 241.23 C 590.20 246.08 582.00 252.06 573.08 257.08 C 564.15 262.09 554.78 266.58 546.23 272.23 C 537.68 277.88 527.68 281.41 520.00 288.00
C 534.54 288.48 550.62 287.36 565.00 288.00 C 579.38 288.64 596.19 286.77 610.00 288.00 C 623.81 289.23 632.29 281.63 642.77 275.77 C 653.25 269.91 661.27 264.87 671.31 259.31 C 681.34 253.74 689.92 248.26 699.77 242.77 C 709.62 237.28 718.60 232.05 728.31 226.30 C 738.01 220.56 747.22 216.18 756.77 209.77 C 766.32 203.37 775.97 201.16 785.31 193.31 C 794.64 185.45 804.79 186.54 813.92 194.08 C 823.05 201.61 833.50 203.59 842.77 210.23 C 852.04 216.87 861.77 220.77 871.30 226.70 C 880.84 232.63 889.96 237.69 899.77 243.23 C 909.58 248.76 918.23 254.14 928.30 259.70 C 938.37 265.25 946.34 270.13 956.77 276.23 C 967.20 282.32 976.19 289.45 990.00 288.00 C 1003.81 286.55 1020.73 288.77 1035.00 288.00 C 1049.27 287.23 1064.63 288.58 1079.00 288.00 Z"/>
</g>
<g fill="None" fill-opacity="0.0" stroke="#FBFBFB" stroke-opacity="1.00" stroke-width="0.3"><path d="
M 647.00 350.00 
C 646.04 351.90 661.94 352.55 668.00 352.00 C 674.06 351.45 686.60 352.50 694.00 352.00 C 701.40 351.50 712.10 352.79 720.00 352.00 C 727.90 351.21 738.11 353.61 746.00 352.00
C 755.07 348.86 764.01 339.72 772.92 336.92 C 781.83 334.11 790.51 321.53 799.92 322.08 C 809.34 322.62 817.75 334.31 826.77 337.23 C 835.79 340.14 843.92 348.93 853.00 352.00
C 859.36 353.25 866.52 351.45 873.00 352.00 C 879.48 352.55 887.64 351.72 894.00 352.00 C 900.36 352.28 908.12 351.83 914.00 352.00 C 919.88 352.17 930.14 351.81 935.00 352.00 C 939.86 352.19 953.30 352.56 952.00 350.00
C 944.72 342.72 932.06 340.59 923.75 334.25 C 915.43 327.92 905.00 323.63 896.08 317.92 C 887.15 312.22 877.73 308.24 868.70 302.31 C 859.67 296.37 849.71 292.81 840.70 286.30 C 831.68 279.80 822.16 278.60 813.25 270.75 C 804.34 262.91 793.90 263.23 784.75 270.75 C 775.59 278.26 767.02 280.68 757.70 286.69 C 748.37 292.71 739.00 297.15 729.70 302.69 C 720.39 308.24 711.49 312.90 702.23 318.23 C 692.97 323.56 683.63 328.97 674.70 334.69 C 665.76 340.42 655.62 343.83 647.00 350.00 Z"/>
</g>
<g fill="None" fill-opacity="0.0" stroke="#FCFCFC" stroke-opacity="1.00" stroke-width="0.3"><path d="
M 1154.00 749.00 
C 1162.37 741.77 1154.24 720.08 1157.00 710.00 C 1159.76 699.92 1155.69 696.53 1157.00 688.00 C 1158.31 679.47 1156.41 674.73 1157.00 667.00 C 1157.59 659.27 1156.75 653.40 1157.00 646.00 C 1157.25 638.60 1156.88 631.26 1157.00 624.00 C 1157.12 616.74 1156.95 610.16 1157.00 603.00 C 1157.05 595.84 1156.98 589.16 1157.00 582.00 C 1157.02 574.84 1156.99 567.14 1157.00 560.00 C 1157.01 552.86 1157.00 546.10 1157.00 539.00 C 1157.00 531.90 1157.00 525.13 1157.00 518.00 C 1157.00 510.87 1157.00 503.13 1157.00 496.00 C 1157.00 488.87 1157.00 482.09 1157.00 475.00 C 1157.00 467.91 1157.01 461.12 1157.00 454.00 C 1156.99 446.88 1157.02 439.10 1157.00 432.00 C 1156.98 424.90 1157.05 418.02 1157.00 411.00 C 1156.95 403.98 1157.12 396.96 1157.00 390.00 C 1156.88 383.04 1157.25 374.77 1157.00 368.00 C 1156.75 361.23 1157.58 353.26 1157.00 347.00 C 1156.42 340.74 1158.29 331.26 1157.00 326.00 C 1155.71 320.74 1160.19 307.49 1156.00 305.00
C 1146.73 309.14 1138.06 315.15 1129.08 320.08 C 1120.10 325.01 1111.06 330.05 1102.25 335.25 C 1093.43 340.44 1084.48 345.55 1075.70 350.70 C 1066.91 355.84 1058.62 360.82 1049.70 365.70 C 1040.77 370.58 1032.32 376.61 1023.23 381.23 C 1014.14 385.84 1005.61 391.82 996.70 396.70 C 987.78 401.57 979.43 406.48 970.70 411.70 C 961.96 416.91 952.71 421.57 944.08 427.08 C 935.44 432.58 926.00 436.90 917.23 442.23 C 908.46 447.56 899.53 452.46 890.70 457.70 C 881.86 462.93 873.39 466.98 864.70 472.70 C 856.00 478.41 846.75 481.72 838.08 488.08 C 829.41 494.44 820.10 496.06 811.23 503.23 C 802.36 510.40 793.96 508.71 785.08 501.92 C 776.19 495.14 766.99 492.84 758.23 486.77 C 749.47 480.70 740.59 476.65 731.75 471.25 C 722.90 465.86 714.68 461.24 705.70 456.31 C 696.71 451.37 688.33 445.47 679.23 440.77 C 670.13 436.07 661.51 430.45 652.70 425.31 C 643.88 420.16 634.66 415.44 626.08 409.92 C 617.49 404.41 608.41 400.63 599.75 395.25 C 591.08 389.88 582.19 384.62 573.23 379.77 C 564.27 374.92 555.53 369.31 546.70 364.30 C 537.86 359.30 529.38 354.56 520.70 349.30 C 512.02 344.04 502.76 339.25 494.08 333.92 C 485.39 328.60 476.07 323.76 467.23 318.77 C 458.39 313.78 450.36 307.71 441.00 304.00
C 440.99 322.00 441.01 340.00 441.00 358.00 C 440.99 376.00 441.01 394.01 441.00 412.00 C 440.99 429.99 441.03 448.01 441.00 466.00 C 440.97 483.99 441.06 502.03 441.00 520.00 C 440.94 537.97 441.14 556.07 441.00 574.00 C 440.86 591.93 441.31 610.16 441.00 628.00 C 440.69 645.84 441.69 664.35 441.00 682.00 C 440.32 699.65 442.52 718.77 441.00 736.00 C 439.48 753.23 457.55 754.25 468.77 762.23 C 479.99 770.21 491.43 775.08 502.77 782.23 C 514.11 789.37 525.65 795.04 536.92 802.08 C 548.20 809.12 560.11 814.59 571.30 821.70 C 582.49 828.80 594.32 834.65 605.75 841.25 C 617.19 847.84 628.26 854.83 639.77 861.23 C 651.28 867.63 662.48 874.52 673.92 881.08 C 685.37 887.63 696.88 894.06 708.30 900.70 C 719.73 907.34 730.95 913.88 742.31 920.70 C 753.66 927.51 765.64 932.90 776.77 940.23 C 787.90 947.56 800.36 956.37 811.75 946.75 C 823.15 937.14 834.36 934.67 845.77 926.77 C 857.18 918.87 868.67 914.39 879.92 906.92 C 891.18 899.46 903.08 894.53 914.30 887.30 C 925.52 880.07 937.37 874.51 948.75 867.75 C 960.14 860.99 971.32 854.31 982.77 847.77 C 994.22 841.23 1005.59 834.67 1016.92 827.92 C 1028.25 821.17 1039.97 815.09 1051.25 808.25 C 1062.54 801.42 1074.15 795.33 1085.31 788.31 C 1096.46 781.28 1108.66 775.84 1119.77 768.77 C 1130.88 761.70 1142.93 756.14 1154.00 749.00
M 495.00 394.00 
C 502.79 397.24 500.43 396.38 508.69 401.31 C 516.96 406.23 527.90 413.02 536.23 417.77 C 544.56 422.52 543.44 421.81 550.25 425.75 C 557.05 429.69 557.56 429.78 564.23 433.77 C 570.90 437.76 570.11 437.31 578.23 441.77 C 586.35 446.23 597.47 452.64 605.25 457.75 C 613.02 462.87 612.74 461.54 619.25 465.75 C 625.76 469.97 626.57 469.73 633.25 473.75 C 639.92 477.77 638.80 477.44 647.23 481.77 C 655.66 486.10 667.01 493.09 675.23 497.77 C 683.45 502.45 683.14 501.84 689.23 505.77 C 695.32 509.70 697.46 510.09 702.70 513.31 C 707.93 516.52 711.77 518.42 716.70 521.31 C 721.62 524.19 725.81 526.79 730.70 529.31 C 735.58 531.82 739.26 535.63 744.25 537.75 C 749.23 539.88 753.55 543.32 758.25 545.75 C 762.95 548.19 767.58 551.53 772.23 553.77 C 776.88 556.01 781.54 560.16 786.23 561.77 C 790.92 563.38 795.82 569.76 800.68 568.66 C 805.53 567.56 808.42 563.15 813.75 560.75 C 819.07 558.34 821.83 556.33 828.08 553.08 C 834.32 549.82 833.54 549.31 841.70 544.70 C 849.85 540.08 861.67 533.60 869.70 528.70 C 877.72 523.79 877.18 524.39 883.69 520.69 C 890.21 517.00 891.69 516.24 897.70 512.70 C 903.70 509.15 904.67 509.17 911.08 505.08 C 917.48 500.99 916.91 502.04 925.08 497.08 C 933.24 492.11 944.47 485.58 952.75 480.75 C 961.02 475.91 959.79 477.36 967.08 473.08 C 974.36 468.79 972.53 469.25 980.70 464.70 C 988.86 460.15 1000.07 453.71 1008.08 449.08 C 1016.10 444.45 1015.82 444.44 1022.08 441.08 C 1028.33 437.71 1030.78 436.04 1036.08 433.08 C 1041.38 430.11 1044.83 427.37 1049.75 424.75 C 1054.66 422.12 1059.36 419.31 1064.08 417.08 C 1068.79 414.84 1073.23 410.34 1077.70 408.70 C 1082.17 407.05 1087.73 401.42 1091.70 400.70 C 1095.66 399.97 1103.03 391.27 1106.00 393.00
C 1110.15 395.43 1105.85 407.54 1107.00 413.00 C 1108.15 418.46 1106.48 428.51 1107.00 435.00 C 1107.52 441.49 1106.77 450.05 1107.00 457.00 C 1107.23 463.95 1106.90 471.85 1107.00 479.00 C 1107.11 486.15 1106.95 493.76 1107.00 501.00 C 1107.05 508.24 1106.98 515.74 1107.00 523.00 C 1107.02 530.26 1106.99 537.77 1107.00 545.00 C 1107.01 552.23 1107.00 558.76 1107.00 566.00 C 1107.00 573.24 1107.01 580.72 1107.00 588.00 C 1106.99 595.28 1107.04 602.72 1107.00 610.00 C 1106.97 617.28 1107.08 624.75 1107.00 632.00 C 1106.92 639.25 1107.18 646.84 1107.00 654.00 C 1106.82 661.16 1107.39 669.05 1107.00 676.00 C 1106.61 682.95 1107.86 691.51 1107.00 698.00 C 1106.14 704.49 1109.83 713.83 1105.00 718.00
C 1094.42 727.13 1078.48 731.39 1066.77 739.77 C 1055.06 748.15 1041.00 753.79 1028.75 761.75 C 1016.50 769.72 1002.37 776.11 989.92 783.92 C 977.47 791.73 964.52 798.38 951.92 805.92 C 939.32 813.46 926.64 820.53 913.92 827.92 C 901.20 835.31 888.09 842.97 875.30 850.30 C 862.52 857.64 850.17 865.02 837.30 872.30 C 824.43 879.59 811.46 887.92 798.00 894.00
C 699.89 835.78 600.07 778.79 501.00 722.00
C 486.38 714.69 492.85 698.33 492.00 683.00 C 491.15 667.67 492.38 650.80 492.00 635.00 C 491.62 619.20 492.17 602.00 492.00 586.00 C 491.83 570.00 492.08 554.10 492.00 538.00 C 491.92 521.90 492.04 505.15 492.00 489.00 C 491.96 472.85 492.02 457.18 492.00 441.00 C 491.98 424.82 492.01 408.22 492.00 392.00
C 493.28 391.73 494.72 392.77 495.00 394.00 Z"/>
</g>
<g fill="None" fill-opacity="0.0" stroke="#939393" stroke-opacity="1.00" stroke-width="0.3"><path d="
M 1156.00 305.00 
C 1160.19 307.49 1155.71 320.74 1157.00 326.00 C 1158.29 331.26 1156.42 340.74 1157.00 347.00 C 1157.58 353.26 1156.75 361.23 1157.00 368.00 C 1157.25 374.77 1156.88 383.04 1157.00 390.00 C 1157.12 396.96 1156.95 403.98 1157.00 411.00 C 1157.05 418.02 1156.98 424.90 1157.00 432.00 C 1157.02 439.10 1156.99 446.88 1157.00 454.00 C 1157.01 461.12 1157.00 467.91 1157.00 475.00 C 1157.00 482.09 1157.00 488.87 1157.00 496.00 C 1157.00 503.13 1157.00 510.87 1157.00 518.00 C 1157.00 525.13 1157.00 531.90 1157.00 539.00 C 1157.00 546.10 1157.01 552.86 1157.00 560.00 C 1156.99 567.14 1157.02 574.84 1157.00 582.00 C 1156.98 589.16 1157.05 595.84 1157.00 603.00 C 1156.95 610.16 1157.12 616.74 1157.00 624.00 C 1156.88 631.26 1157.25 638.60 1157.00 646.00 C 1156.75 653.40 1157.59 659.27 1157.00 667.00 C 1156.41 674.73 1158.31 679.47 1157.00 688.00 C 1155.69 696.53 1159.76 699.92 1157.00 710.00 C 1154.24 720.08 1162.37 741.77 1154.00 749.00
C 1160.92 744.53 1157.44 735.00 1158.00 727.00 C 1158.56 719.00 1157.75 710.18 1158.00 702.00 C 1158.25 693.82 1157.89 685.27 1158.00 677.00 C 1158.11 668.73 1157.95 660.30 1158.00 652.00 C 1158.05 643.70 1157.98 635.32 1158.00 627.00 C 1158.02 618.68 1157.99 610.34 1158.00 602.00 C 1158.01 593.66 1158.00 585.35 1158.00 577.00 C 1158.01 568.65 1158.00 560.38 1158.00 552.00 C 1158.00 543.62 1158.00 535.43 1158.00 527.00 C 1158.00 518.57 1158.00 509.43 1158.00 501.00 C 1158.00 492.57 1158.00 484.36 1158.00 476.00 C 1158.00 467.64 1158.01 459.32 1158.00 451.00 C 1157.99 442.68 1158.02 434.26 1158.00 426.00 C 1157.98 417.74 1158.04 409.16 1158.00 401.00 C 1157.96 392.84 1158.09 383.95 1158.00 376.00 C 1157.91 368.05 1158.21 358.48 1158.00 351.00 C 1157.79 343.52 1158.46 332.44 1158.00 326.00 C 1157.54 319.56 1159.92 305.04 1156.00 305.00 Z"/>
</g>
<g fill="None" fill-opacity="0.0" stroke="#7E7E7E" stroke-opacity="1.00" stroke-width="0.3"><path d="
M 746.00 352.00 
C 738.11 353.61 727.90 351.21 720.00 352.00 C 712.10 352.79 701.40 351.50 694.00 352.00 C 686.60 352.50 674.06 351.45 668.00 352.00 C 661.94 352.55 646.04 351.90 647.00 350.00
C 645.84 350.77 643.49 351.08 644.00 353.00
C 660.62 351.56 679.62 354.92 696.00 353.00 C 712.38 351.08 731.01 357.20 746.00 352.00 Z"/>
</g>
<g fill="None" fill-opacity="0.0" stroke="#7F7F7F" stroke-opacity="1.00" stroke-width="0.3"><path d="
M 853.00 352.00 
C 885.68 354.33 920.50 352.33 954.00 353.00
C 954.55 351.24 952.87 350.87 952.00 350.00
C 953.30 352.56 939.86 352.19 935.00 352.00 C 930.14 351.81 919.88 352.17 914.00 352.00 C 908.12 351.83 900.36 352.28 894.00 352.00 C 887.64 351.72 879.48 352.55 873.00 352.00 C 866.52 351.45 859.36 353.25 853.00 352.00 Z"/>
</g>
<g fill="None" fill-opacity="0.0" stroke="#878787" stroke-opacity="1.00" stroke-width="0.3"><path d="
M 501.00 722.00 
C 494.57 717.98 492.09 714.15 493.00 706.00 C 493.91 697.85 492.59 690.11 493.00 682.00 C 493.41 673.89 492.82 666.13 493.00 658.00 C 493.18 649.87 492.92 641.13 493.00 633.00 C 493.08 624.87 492.96 617.09 493.00 609.00 C 493.04 600.91 492.98 593.12 493.00 585.00 C 493.02 576.88 492.99 568.10 493.00 560.00 C 493.01 551.90 492.99 544.03 493.00 536.00 C 493.01 527.97 492.98 519.98 493.00 512.00 C 493.02 504.02 492.95 495.92 493.00 488.00 C 493.05 480.08 492.90 470.71 493.00 463.00 C 493.10 455.29 492.77 446.14 493.00 439.00 C 493.23 431.86 492.49 420.99 493.00 415.00 C 493.51 409.01 491.01 393.92 495.00 394.00
C 494.72 392.77 493.28 391.73 492.00 392.00
C 492.01 408.22 491.98 424.82 492.00 441.00 C 492.02 457.18 491.96 472.85 492.00 489.00 C 492.04 505.15 491.92 521.90 492.00 538.00 C 492.08 554.10 491.83 570.00 492.00 586.00 C 492.17 602.00 491.62 619.20 492.00 635.00 C 492.38 650.80 491.15 667.67 492.00 683.00 C 492.85 698.33 486.38 714.69 501.00 722.00 Z"/>
</g>
<g fill="None" fill-opacity="0.0" stroke="#000000" stroke-opacity="1.00" stroke-width="0.3"><path d="
M 501.00 722.00 
C 600.07 778.79 699.89 835.78 798.00 894.00
C 811.46 887.92 824.43 879.59 837.30 872.30 C 850.17 865.02 862.52 857.64 875.30 850.30 C 888.09 842.97 901.20 835.31 913.92 827.92 C 926.64 820.53 939.32 813.46 951.92 805.92 C 964.52 798.38 977.47 791.73 989.92 783.92 C 1002.37 776.11 1016.50 769.72 1028.75 761.75 C 1041.00 753.79 1055.06 748.15 1066.77 739.77 C 1078.48 731.39 1094.42 727.13 1105.00 718.00
C 1110.30 711.61 1104.33 698.48 1106.00 690.00 C 1107.67 681.52 1105.22 669.22 1106.00 660.00 C 1106.78 650.78 1105.66 640.60 1106.00 631.00 C 1106.34 621.40 1105.85 610.78 1106.00 601.00 C 1106.15 591.22 1105.93 580.83 1106.00 571.00 C 1106.07 561.17 1105.97 551.86 1106.00 542.00 C 1106.03 532.14 1105.99 521.91 1106.00 512.00 C 1106.01 502.09 1105.99 491.89 1106.00 482.00 C 1106.01 472.11 1106.00 462.90 1106.00 453.00 C 1106.00 443.10 1106.00 432.95 1106.00 423.00 C 1106.00 413.05 1106.00 402.96 1106.00 393.00
C 1103.03 391.27 1095.66 399.97 1091.70 400.70 C 1087.73 401.42 1082.17 407.05 1077.70 408.70 C 1073.23 410.34 1068.79 414.84 1064.08 417.08 C 1059.36 419.31 1054.66 422.12 1049.75 424.75 C 1044.83 427.37 1041.38 430.11 1036.08 433.08 C 1030.78 436.04 1028.33 437.71 1022.08 441.08 C 1015.82 444.44 1016.10 444.45 1008.08 449.08 C 1000.07 453.71 988.86 460.15 980.70 464.70 C 972.53 469.25 974.36 468.79 967.08 473.08 C 959.79 477.36 961.02 475.91 952.75 480.75 C 944.47 485.58 933.24 492.11 925.08 497.08 C 916.91 502.04 917.48 500.99 911.08 505.08 C 904.67 509.17 903.70 509.15 897.70 512.70 C 891.69 516.24 890.21 517.00 883.69 520.69 C 877.18 524.39 877.72 523.79 869.70 528.70 C 861.67 533.60 849.85 540.08 841.70 544.70 C 833.54 549.31 834.32 549.82 828.08 553.08 C 821.83 556.33 819.07 558.34 813.75 560.75 C 808.42 563.15 805.53 567.56 800.68 568.66 C 795.82 569.76 790.92 563.38 786.23 561.77 C 781.54 560.16 776.88 556.01 772.23 553.77 C 767.58 551.53 762.95 548.19 758.25 545.75 C 753.55 543.32 749.23 539.88 744.25 537.75 C 739.26 535.63 735.58 531.82 730.70 529.31 C 725.81 526.79 721.62 524.19 716.70 521.31 C 711.77 518.42 707.93 516.52 702.70 513.31 C 697.46 510.09 695.32 509.70 689.23 505.77 C 683.14 501.84 683.45 502.45 675.23 497.77 C 667.01 493.09 655.66 486.10 647.23 481.77 C 638.80 477.44 639.92 477.77 633.25 473.75 C 626.57 469.73 625.76 469.97 619.25 465.75 C 612.74 461.54 613.02 462.87 605.25 457.75 C 597.47 452.64 586.35 446.23 578.23 441.77 C 570.11 437.31 570.90 437.76 564.23 433.77 C 557.56 429.78 557.05 429.69 550.25 425.75 C 543.44 421.81 544.56 422.52 536.23 417.77 C 527.90 413.02 516.96 406.23 508.69 401.31 C 500.43 396.38 502.79 397.24 495.00 394.00
C 491.01 393.92 493.51 409.01 493.00 415.00 C 492.49 420.99 493.23 431.86 493.00 439.00 C 492.77 446.14 493.10 455.29 493.00 463.00 C 492.90 470.71 493.05 480.08 493.00 488.00 C 492.95 495.92 493.02 504.02 493.00 512.00 C 492.98 519.98 493.01 527.97 493.00 536.00 C 492.99 544.03 493.01 551.90 493.00 560.00 C 492.99 568.10 493.02 576.88 493.00 585.00 C 492.98 593.12 493.04 600.91 493.00 609.00 C 492.96 617.09 493.08 624.87 493.00 633.00 C 492.92 641.13 493.18 649.87 493.00 658.00 C 492.82 666.13 493.41 673.89 493.00 682.00 C 492.59 690.11 493.91 697.85 493.00 706.00 C 492.09 714.15 494.57 717.98 501.00 722.00 Z"/>
</g>
<g fill="None" fill-opacity="0.0" stroke="#757575" stroke-opacity="1.00" stroke-width="0.3"><path d="
M 1105.00 718.00 
C 1109.83 713.83 1106.14 704.49 1107.00 698.00 C 1107.86 691.51 1106.61 682.95 1107.00 676.00 C 1107.39 669.05 1106.82 661.16 1107.00 654.00 C 1107.18 646.84 1106.92 639.25 1107.00 632.00 C 1107.08 624.75 1106.97 617.28 1107.00 610.00 C 1107.04 602.72 1106.99 595.28 1107.00 588.00 C 1107.01 580.72 1107.00 573.24 1107.00 566.00 C 1107.00 558.76 1107.01 552.23 1107.00 545.00 C 1106.99 537.77 1107.02 530.26 1107.00 523.00 C 1106.98 515.74 1107.05 508.24 1107.00 501.00 C 1106.95 493.76 1107.11 486.15 1107.00 479.00 C 1106.90 471.85 1107.23 463.95 1107.00 457.00 C 1106.77 450.05 1107.52 441.49 1107.00 435.00 C 1106.48 428.51 1108.15 418.46 1107.00 413.00 C 1105.85 407.54 1110.15 395.43 1106.00 393.00
C 1106.00 402.96 1106.00 413.05 1106.00 423.00 C 1106.00 432.95 1106.00 443.10 1106.00 453.00 C 1106.00 462.90 1106.01 472.11 1106.00 482.00 C 1105.99 491.89 1106.01 502.09 1106.00 512.00 C 1105.99 521.91 1106.03 532.14 1106.00 542.00 C 1105.97 551.86 1106.07 561.17 1106.00 571.00 C 1105.93 580.83 1106.15 591.22 1106.00 601.00 C 1105.85 610.78 1106.34 621.40 1106.00 631.00 C 1105.66 640.60 1106.78 650.78 1106.00 660.00 C 1105.22 669.22 1107.67 681.52 1106.00 690.00 C 1104.33 698.48 1110.30 711.61 1105.00 718.00 Z"/>
</g>
<g fill="None" fill-opacity="0.0" stroke="#01A38B" stroke-opacity="1.00" stroke-width="0.3"><path d="
M 1351.00 990.00 
C 1349.47 990.68 1347.77 992.24 1346.00 993.00
C 1341.18 995.80 1336.47 997.41 1331.00 999.00
C 1286.47 1011.97 1243.43 1029.99 1196.00 1033.00
C 1190.64 1033.96 1185.11 1035.00 1179.00 1035.00
C 1177.00 1035.00 1175.00 1034.94 1173.00 1035.00
C 1162.93 1035.28 1153.45 1037.00 1143.00 1037.00
C 1127.30 1038.52 1108.63 1038.51 1093.00 1037.00
C 1074.91 1037.00 1057.80 1035.36 1040.00 1035.00
C 1033.37 1034.87 1026.04 1033.73 1020.00 1033.00
C 967.66 1031.95 915.41 1018.70 864.00 1012.00
C 860.37 1011.53 856.14 1010.51 853.00 1010.00
C 836.80 1007.37 820.31 1004.25 804.00 1003.00
C 799.33 1002.64 795.03 1001.83 791.00 1001.00
C 745.13 997.88 700.03 990.00 653.00 990.00
C 639.67 990.00 626.33 990.00 613.00 990.00
C 592.25 990.00 569.68 991.59 550.00 994.00 C 530.32 996.41 510.98 998.91 492.22 1002.22 C 473.46 1005.53 455.95 1011.11 438.02 1015.02 C 420.10 1018.94 405.20 1026.69 388.07 1031.07 C 370.95 1035.46 357.70 1045.42 341.00 1050.00
C 336.32 1052.72 331.32 1055.30 326.00 1057.00
C 324.96 1057.33 324.06 1057.60 323.00 1058.00
C 287.49 1071.42 256.18 1095.47 223.00 1113.00
C 221.96 1114.54 222.21 1114.77 224.00 1115.00
C 252.54 1100.41 283.64 1092.59 313.92 1081.92 C 344.21 1071.26 378.19 1061.92 410.00 1056.00
C 414.32 1054.71 419.13 1053.63 424.00 1053.00
C 458.99 1048.45 494.11 1042.72 530.00 1042.00
C 533.00 1041.94 536.00 1042.00 539.00 1042.00
C 551.88 1040.75 567.19 1040.76 580.00 1042.00
C 584.33 1042.00 588.67 1042.00 593.00 1042.00
C 597.50 1042.00 602.21 1042.38 606.00 1043.00
C 639.12 1043.65 674.93 1050.84 707.00 1055.00 C 739.07 1059.16 769.28 1069.19 800.93 1074.07 C 832.58 1078.96 862.12 1090.47 894.00 1093.00
C 899.98 1093.48 903.94 1094.53 909.00 1096.00
C 942.73 1099.77 976.38 1107.00 1011.00 1107.00
C 1029.67 1107.00 1048.33 1107.00 1067.00 1107.00
C 1097.15 1107.00 1125.77 1100.27 1155.00 1097.00
C 1161.35 1095.52 1168.06 1092.90 1175.00 1092.00
C 1261.16 1070.58 1346.15 1031.11 1408.00 963.00
C 1388.93 971.37 1370.87 983.64 1351.00 990.00 Z"/>
</g>
<g fill="None" fill-opacity="0.0" stroke="#064A42" stroke-opacity="1.00" stroke-width="0.3"><path d="
M 613.00 990.00 
C 626.33 990.00 639.67 990.00 653.00 990.00
C 640.50 988.79 625.57 988.78 613.00 990.00 Z"/>
</g>
<g fill="None" fill-opacity="0.0" stroke="#022E28" stroke-opacity="1.00" stroke-width="0.3"><path d="
M 1332.00 998.00 
C 1336.66 996.54 1341.50 994.94 1346.00 993.00
C 1347.77 992.24 1349.47 990.68 1351.00 990.00
C 1345.04 991.91 1336.75 994.04 1332.00 998.00 Z"/>
</g>
<g fill="None" fill-opacity="0.0" stroke="#0A7462" stroke-opacity="1.00" stroke-width="0.3"><path d="
M 1332.00 998.00 
C 1331.65 998.11 1331.27 998.87 1331.00 999.00
C 1336.47 997.41 1341.18 995.80 1346.00 993.00
C 1341.50 994.94 1336.66 996.54 1332.00 998.00 Z"/>
</g>
<g fill="None" fill-opacity="0.0" stroke="#06493E" stroke-opacity="1.00" stroke-width="0.3"><path d="
M 804.00 1003.00 
C 799.83 1002.01 795.91 1001.33 791.00 1001.00
C 795.03 1001.83 799.33 1002.64 804.00 1003.00 Z"/>
</g>
<g fill="None" fill-opacity="0.0" stroke="#012D27" stroke-opacity="1.00" stroke-width="0.3"><path d="
M 853.00 1010.00 
C 856.14 1010.51 860.37 1011.53 864.00 1012.00
C 859.50 1010.44 858.31 1009.79 853.00 1010.00 Z"/>
</g>
<g fill="None" fill-opacity="0.0" stroke="#04423A" stroke-opacity="1.00" stroke-width="0.3"><path d="
M 1040.00 1035.00 
C 1033.79 1033.89 1027.18 1033.14 1020.00 1033.00
C 1026.04 1033.73 1033.37 1034.87 1040.00 1035.00 Z"/>
</g>
<g fill="None" fill-opacity="0.0" stroke="#012821" stroke-opacity="1.00" stroke-width="0.3"><path d="
M 1173.00 1035.00 
C 1175.00 1034.94 1177.00 1035.00 1179.00 1035.00
C 1181.52 1034.76 1186.54 1033.23 1189.00 1033.00
C 1183.16 1033.00 1178.06 1034.14 1173.00 1035.00 Z"/>
</g>
<g fill="None" fill-opacity="0.0" stroke="#096355" stroke-opacity="1.00" stroke-width="0.3"><path d="
M 1179.00 1035.00 
C 1185.11 1035.00 1190.64 1033.96 1196.00 1033.00
C 1193.69 1033.15 1191.32 1033.00 1189.00 1033.00
C 1186.54 1033.23 1181.52 1034.76 1179.00 1035.00 Z"/>
</g>
<g fill="None" fill-opacity="0.0" stroke="#12806D" stroke-opacity="1.00" stroke-width="0.3"><path d="
M 1330.00 1048.00 
C 1334.21 1045.63 1337.57 1041.62 1342.00 1040.00
C 1334.16 1049.63 1322.96 1055.67 1315.00 1065.00
C 1326.09 1055.14 1339.59 1046.36 1348.00 1034.00
C 1341.27 1037.58 1336.05 1043.68 1330.00 1048.00 Z"/>
</g>
<g fill="None" fill-opacity="0.0" stroke="#08433A" stroke-opacity="1.00" stroke-width="0.3"><path d="
M 1143.00 1037.00 
C 1126.33 1037.00 1109.67 1037.00 1093.00 1037.00
C 1108.63 1038.51 1127.30 1038.52 1143.00 1037.00 Z"/>
</g>
<g fill="None" fill-opacity="0.0" stroke="#049E87" stroke-opacity="1.00" stroke-width="0.3"><path d="
M 1330.00 1048.00 
C 1302.18 1063.67 1274.85 1080.28 1245.00 1092.00
C 1241.11 1094.08 1237.48 1095.80 1233.00 1097.00
C 1199.90 1105.84 1173.81 1117.28 1139.00 1123.00 C 1104.20 1128.72 1062.96 1130.00 1026.00 1130.00
C 1021.59 1130.00 1016.66 1129.35 1013.00 1129.00
C 990.89 1129.00 967.32 1124.50 946.02 1121.98 C 924.72 1119.46 904.91 1112.40 884.01 1109.99 C 863.11 1107.58 844.65 1098.94 824.00 1097.00
C 818.36 1096.47 815.52 1095.67 811.00 1094.00
C 782.89 1089.90 753.80 1086.06 726.00 1080.00
C 725.32 1080.07 723.36 1081.93 722.00 1081.00
C 722.74 1082.53 725.77 1081.67 726.00 1084.00
C 830.56 1102.74 930.99 1150.00 1040.00 1150.00
C 1049.64 1150.00 1059.37 1150.37 1069.00 1150.00
C 1092.78 1149.09 1116.36 1144.41 1140.00 1143.00
C 1144.26 1142.39 1149.36 1140.74 1154.00 1140.00
C 1159.15 1139.18 1163.92 1137.81 1169.00 1137.00
C 1173.69 1135.63 1178.63 1132.20 1184.00 1132.00
C 1184.00 1132.00 1184.50 1132.01 1185.00 1132.00
C 1189.05 1129.88 1192.38 1129.07 1197.00 1128.00
C 1237.80 1108.92 1278.85 1093.54 1315.00 1065.00
C 1322.96 1055.67 1334.16 1049.63 1342.00 1040.00
C 1337.57 1041.62 1334.21 1045.63 1330.00 1048.00 Z"/>
</g>
<g fill="None" fill-opacity="0.0" stroke="#085C50" stroke-opacity="1.00" stroke-width="0.3"><path d="
M 539.00 1042.00 
C 552.67 1042.00 566.33 1042.00 580.00 1042.00
C 567.19 1040.76 551.88 1040.75 539.00 1042.00 Z"/>
</g>
<g fill="None" fill-opacity="0.0" stroke="#011A16" stroke-opacity="1.00" stroke-width="0.3"><path d="
M 602.00 1043.00 
C 598.90 1043.00 595.36 1042.23 593.00 1042.00
C 588.67 1042.00 584.33 1042.00 580.00 1042.00
C 566.33 1042.00 552.67 1042.00 539.00 1042.00
C 536.00 1042.00 533.00 1041.94 530.00 1042.00
C 551.88 1043.68 580.54 1045.92 602.00 1043.00 Z"/>
</g>
<g fill="None" fill-opacity="0.0" stroke="#0C685A" stroke-opacity="1.00" stroke-width="0.3"><path d="
M 602.00 1043.00 
C 603.33 1043.00 604.67 1042.97 606.00 1043.00
C 602.21 1042.38 597.50 1042.00 593.00 1042.00
C 595.36 1042.23 598.90 1043.00 602.00 1043.00 Z"/>
</g>
<g fill="None" fill-opacity="0.0" stroke="#02332D" stroke-opacity="1.00" stroke-width="0.3"><path d="
M 323.00 1058.00 
C 324.06 1057.60 324.96 1057.33 326.00 1057.00
C 330.21 1055.01 334.87 1052.03 339.00 1050.00
C 332.78 1050.79 328.03 1055.26 323.00 1058.00 Z"/>
</g>
<g fill="None" fill-opacity="0.0" stroke="#0A7766" stroke-opacity="1.00" stroke-width="0.3"><path d="
M 326.00 1057.00 
C 331.32 1055.30 336.32 1052.72 341.00 1050.00
C 340.54 1050.13 339.49 1049.94 339.00 1050.00
C 334.87 1052.03 330.21 1055.01 326.00 1057.00 Z"/>
</g>
<g fill="None" fill-opacity="0.0" stroke="#0C7263" stroke-opacity="1.00" stroke-width="0.3"><path d="
M 410.00 1056.00 
C 414.81 1055.11 419.67 1054.02 424.00 1053.00
C 419.13 1053.63 414.32 1054.71 410.00 1056.00 Z"/>
</g>
<g fill="None" fill-opacity="0.0" stroke="#082922" stroke-opacity="1.00" stroke-width="0.3"><path d="
M 695.00 1078.00 
C 698.38 1077.74 702.89 1076.64 707.00 1077.00
C 699.24 1075.90 688.86 1073.62 681.00 1076.00
C 685.53 1077.70 690.16 1077.46 695.00 1078.00 Z"/>
</g>
<g fill="None" fill-opacity="0.0" stroke="#0F6759" stroke-opacity="1.00" stroke-width="0.3"><path d="
M 695.00 1078.00 
C 705.37 1079.16 715.75 1082.16 726.00 1084.00
C 725.77 1081.67 722.74 1082.53 722.00 1081.00
C 723.36 1081.93 725.32 1080.07 726.00 1080.00
C 719.87 1078.66 713.32 1077.56 707.00 1077.00
C 702.89 1076.64 698.38 1077.74 695.00 1078.00 Z"/>
</g>
<g fill="None" fill-opacity="0.0" stroke="#044B40" stroke-opacity="1.00" stroke-width="0.3"><path d="
M 1155.00 1097.00 
C 1162.22 1096.19 1168.82 1093.95 1175.00 1092.00
C 1168.06 1092.90 1161.35 1095.52 1155.00 1097.00 Z"/>
</g>
<g fill="None" fill-opacity="0.0" stroke="#0A6D5D" stroke-opacity="1.00" stroke-width="0.3"><path d="
M 1233.00 1097.00 
C 1237.48 1095.80 1241.11 1094.08 1245.00 1092.00
C 1240.96 1093.59 1236.80 1095.44 1233.00 1097.00 Z"/>
</g>
<g fill="None" fill-opacity="0.0" stroke="#044D42" stroke-opacity="1.00" stroke-width="0.3"><path d="
M 909.00 1096.00 
C 903.94 1094.53 899.98 1093.48 894.00 1093.00
C 898.77 1094.47 903.48 1095.38 909.00 1096.00 Z"/>
</g>
<g fill="None" fill-opacity="0.0" stroke="#055447" stroke-opacity="1.00" stroke-width="0.3"><path d="
M 824.00 1097.00 
C 820.04 1096.05 815.43 1094.65 811.00 1094.00
C 815.52 1095.67 818.36 1096.47 824.00 1097.00 Z"/>
</g>
<g fill="None" fill-opacity="0.0" stroke="#0D584B" stroke-opacity="1.00" stroke-width="0.3"><path d="
M 1067.00 1107.00 
C 1048.33 1107.00 1029.67 1107.00 1011.00 1107.00
C 1028.50 1108.69 1049.43 1108.70 1067.00 1107.00 Z"/>
</g>
<g fill="None" fill-opacity="0.0" stroke="#0C3F35" stroke-opacity="1.00" stroke-width="0.3"><path d="
M 224.00 1115.00 
C 222.21 1114.77 221.96 1114.54 223.00 1113.00
C 219.83 1113.81 216.82 1116.10 215.00 1119.00
C 218.84 1119.95 221.37 1116.35 224.00 1115.00 Z"/>
</g>
<g fill="None" fill-opacity="0.0" stroke="#06453B" stroke-opacity="1.00" stroke-width="0.3"><path d="
M 1185.00 1132.00 
C 1189.75 1131.89 1193.14 1129.80 1197.00 1128.00
C 1192.38 1129.07 1189.05 1129.88 1185.00 1132.00 Z"/>
</g>
<g fill="None" fill-opacity="0.0" stroke="#05483F" stroke-opacity="1.00" stroke-width="0.3"><path d="
M 1026.00 1130.00 
C 1022.34 1129.65 1017.41 1129.00 1013.00 1129.00
C 1016.66 1129.35 1021.59 1130.00 1026.00 1130.00 Z"/>
</g>
<g fill="None" fill-opacity="0.0" stroke="#024138" stroke-opacity="1.00" stroke-width="0.3"><path d="
M 1169.00 1137.00 
C 1173.96 1136.21 1180.21 1135.26 1184.00 1132.00
C 1178.63 1132.20 1173.69 1135.63 1169.00 1137.00 Z"/>
</g>
<g fill="None" fill-opacity="0.0" stroke="#06453B" stroke-opacity="1.00" stroke-width="0.3"><path d="
M 1140.00 1143.00 
C 1145.48 1142.67 1149.31 1141.29 1154.00 1140.00
C 1149.36 1140.74 1144.26 1142.39 1140.00 1143.00 Z"/>
</g>
<g fill="None" fill-opacity="0.0" stroke="#094B42" stroke-opacity="1.00" stroke-width="0.3"><path d="
M 1069.00 1150.00 
C 1059.37 1150.37 1049.64 1150.00 1040.00 1150.00
C 1048.99 1150.87 1059.92 1151.30 1069.00 1150.00 Z"/>
</g>
<g fill="#000000" fill-opacity="1.00" stroke="None">
<path d="
M 0.00 1599.00 
C 533.00 1599.02 1066.01 1598.98 1599.00 1599.00
C 1599.02 1066.01 1598.98 533.00 1599.00 0.00
L 0.00 0.00
L 0.00 1599.00
M 1079.00 288.00 
C 1064.63 288.58 1049.27 287.23 1035.00 288.00 C 1020.73 288.77 1003.81 286.55 990.00 288.00 C 976.19 289.45 967.20 282.32 956.77 276.23 C 946.34 270.13 938.37 265.25 928.30 259.70 C 918.23 254.14 909.58 248.76 899.77 243.23 C 889.96 237.69 880.84 232.63 871.30 226.70 C 861.77 220.77 852.04 216.87 842.77 210.23 C 833.50 203.59 823.05 201.61 813.92 194.08 C 804.79 186.54 794.64 185.45 785.31 193.31 C 775.97 201.16 766.32 203.37 756.77 209.77 C 747.22 216.18 738.01 220.56 728.31 226.30 C 718.60 232.05 709.62 237.28 699.77 242.77 C 689.92 248.26 681.34 253.74 671.31 259.31 C 661.27 264.87 653.25 269.91 642.77 275.77 C 632.29 281.63 623.81 289.23 610.00 288.00 C 596.19 286.77 579.38 288.64 565.00 288.00 C 550.62 287.36 534.54 288.48 520.00 288.00
C 527.68 281.41 537.68 277.88 546.23 272.23 C 554.78 266.58 564.15 262.09 573.08 257.08 C 582.00 252.06 590.20 246.08 599.23 241.23 C 608.26 236.38 617.23 231.26 626.08 226.08 C 634.92 220.89 643.88 215.94 652.70 210.70 C 661.51 205.46 670.46 200.64 679.23 195.23 C 688.00 189.82 697.24 185.47 706.08 180.08 C 714.92 174.69 723.76 170.12 732.70 164.69 C 741.63 159.27 750.44 155.46 759.23 149.23 C 768.02 143.00 777.29 141.44 786.08 134.08 C 794.86 126.72 803.46 126.31 812.25 133.75 C 821.04 141.19 830.33 142.60 839.08 148.92 C 847.83 155.24 856.76 158.87 865.70 164.30 C 874.63 169.74 883.33 174.47 892.23 179.77 C 901.13 185.07 910.30 189.52 919.08 194.92 C 927.85 200.33 936.90 205.03 945.70 210.30 C 954.50 215.58 963.38 220.56 972.23 225.77 C 981.08 230.98 990.06 236.03 999.08 240.92 C 1008.09 245.82 1016.36 251.63 1025.25 256.75 C 1034.14 261.87 1043.64 266.02 1052.23 271.77 C 1060.82 277.52 1071.00 281.72 1079.00 288.00
M 952.00 350.00 
C 952.87 350.87 954.55 351.24 954.00 353.00
C 920.50 352.33 885.68 354.33 853.00 352.00
C 843.92 348.93 835.79 340.14 826.77 337.23 C 817.75 334.31 809.34 322.62 799.92 322.08 C 790.51 321.53 781.83 334.11 772.92 336.92 C 764.01 339.72 755.07 348.86 746.00 352.00
C 731.01 357.20 712.38 351.08 696.00 353.00 C 679.62 354.92 660.62 351.56 644.00 353.00
C 643.49 351.08 645.84 350.77 647.00 350.00
C 655.62 343.83 665.76 340.42 674.70 334.69 C 683.63 328.97 692.97 323.56 702.23 318.23 C 711.49 312.90 720.39 308.24 729.70 302.69 C 739.00 297.15 748.37 292.71 757.70 286.69 C 767.02 280.68 775.59 278.26 784.75 270.75 C 793.90 263.23 804.34 262.91 813.25 270.75 C 822.16 278.60 831.68 279.80 840.70 286.30 C 849.71 292.81 859.67 296.37 868.70 302.31 C 877.73 308.24 887.15 312.22 896.08 317.92 C 905.00 323.63 915.43 327.92 923.75 334.25 C 932.06 340.59 944.72 342.72 952.00 350.00
M 1156.00 305.00 
C 1159.92 305.04 1157.54 319.56 1158.00 326.00 C 1158.46 332.44 1157.79 343.52 1158.00 351.00 C 1158.21 358.48 1157.91 368.05 1158.00 376.00 C 1158.09 383.95 1157.96 392.84 1158.00 401.00 C 1158.04 409.16 1157.98 417.74 1158.00 426.00 C 1158.02 434.26 1157.99 442.68 1158.00 451.00 C 1158.01 459.32 1158.00 467.64 1158.00 476.00 C 1158.00 484.36 1158.00 492.57 1158.00 501.00 C 1158.00 509.43 1158.00 518.57 1158.00 527.00 C 1158.00 535.43 1158.00 543.62 1158.00 552.00 C 1158.00 560.38 1158.01 568.65 1158.00 577.00 C 1158.00 585.35 1158.01 593.66 1158.00 602.00 C 1157.99 610.34 1158.02 618.68 1158.00 627.00 C 1157.98 635.32 1158.05 643.70 1158.00 652.00 C 1157.95 660.30 1158.11 668.73 1158.00 677.00 C 1157.89 685.27 1158.25 693.82 1158.00 702.00 C 1157.75 710.18 1158.56 719.00 1158.00 727.00 C 1157.44 735.00 1160.92 744.53 1154.00 749.00
C 1142.93 756.14 1130.88 761.70 1119.77 768.77 C 1108.66 775.84 1096.46 781.28 1085.31 788.31 C 1074.15 795.33 1062.54 801.42 1051.25 808.25 C 1039.97 815.09 1028.25 821.17 1016.92 827.92 C 1005.59 834.67 994.22 841.23 982.77 847.77 C 971.32 854.31 960.14 860.99 948.75 867.75 C 937.37 874.51 925.52 880.07 914.30 887.30 C 903.08 894.53 891.18 899.46 879.92 906.92 C 868.67 914.39 857.18 918.87 845.77 926.77 C 834.36 934.67 823.15 937.14 811.75 946.75 C 800.36 956.37 787.90 947.56 776.77 940.23 C 765.64 932.90 753.66 927.51 742.31 920.70 C 730.95 913.88 719.73 907.34 708.30 900.70 C 696.88 894.06 685.37 887.63 673.92 881.08 C 662.48 874.52 651.28 867.63 639.77 861.23 C 628.26 854.83 617.19 847.84 605.75 841.25 C 594.32 834.65 582.49 828.80 571.30 821.70 C 560.11 814.59 548.20 809.12 536.92 802.08 C 525.65 795.04 514.11 789.37 502.77 782.23 C 491.43 775.08 479.99 770.21 468.77 762.23 C 457.55 754.25 439.48 753.23 441.00 736.00 C 442.52 718.77 440.32 699.65 441.00 682.00 C 441.69 664.35 440.69 645.84 441.00 628.00 C 441.31 610.16 440.86 591.93 441.00 574.00 C 441.14 556.07 440.94 537.97 441.00 520.00 C 441.06 502.03 440.97 483.99 441.00 466.00 C 441.03 448.01 440.99 429.99 441.00 412.00 C 441.01 394.01 440.99 376.00 441.00 358.00 C 441.01 340.00 440.99 322.00 441.00 304.00
C 450.36 307.71 458.39 313.78 467.23 318.77 C 476.07 323.76 485.39 328.60 494.08 333.92 C 502.76 339.25 512.02 344.04 520.70 349.30 C 529.38 354.56 537.86 359.30 546.70 364.30 C 555.53 369.31 564.27 374.92 573.23 379.77 C 582.19 384.62 591.08 389.88 599.75 395.25 C 608.41 400.63 617.49 404.41 626.08 409.92 C 634.66 415.44 643.88 420.16 652.70 425.31 C 661.51 430.45 670.13 436.07 679.23 440.77 C 688.33 445.47 696.71 451.37 705.70 456.31 C 714.68 461.24 722.90 465.86 731.75 471.25 C 740.59 476.65 749.47 480.70 758.23 486.77 C 766.99 492.84 776.19 495.14 785.08 501.92 C 793.96 508.71 802.36 510.40 811.23 503.23 C 820.10 496.06 829.41 494.44 838.08 488.08 C 846.75 481.72 856.00 478.41 864.70 472.70 C 873.39 466.98 881.86 462.93 890.70 457.70 C 899.53 452.46 908.46 447.56 917.23 442.23 C 926.00 436.90 935.44 432.58 944.08 427.08 C 952.71 421.57 961.96 416.91 970.70 411.70 C 979.43 406.48 987.78 401.57 996.70 396.70 C 1005.61 391.82 1014.14 385.84 1023.23 381.23 C 1032.32 376.61 1040.77 370.58 1049.70 365.70 C 1058.62 360.82 1066.91 355.84 1075.70 350.70 C 1084.48 345.55 1093.43 340.44 1102.25 335.25 C 1111.06 330.05 1120.10 325.01 1129.08 320.08 C 1138.06 315.15 1146.73 309.14 1156.00 305.00
M 1175.00 1092.00 
C 1168.82 1093.95 1162.22 1096.19 1155.00 1097.00
C 1125.77 1100.27 1097.15 1107.00 1067.00 1107.00
C 1049.43 1108.70 1028.50 1108.69 1011.00 1107.00
C 976.38 1107.00 942.73 1099.77 909.00 1096.00
C 903.48 1095.38 898.77 1094.47 894.00 1093.00
C 862.12 1090.47 832.58 1078.96 800.93 1074.07 C 769.28 1069.19 739.07 1059.16 707.00 1055.00 C 674.93 1050.84 639.12 1043.65 606.00 1043.00
C 604.67 1042.97 603.33 1043.00 602.00 1043.00
C 580.54 1045.92 551.88 1043.68 530.00 1042.00
C 494.11 1042.72 458.99 1048.45 424.00 1053.00
C 419.67 1054.02 414.81 1055.11 410.00 1056.00
C 378.19 1061.92 344.21 1071.26 313.92 1081.92 C 283.64 1092.59 252.54 1100.41 224.00 1115.00
C 221.37 1116.35 218.84 1119.95 215.00 1119.00
C 216.82 1116.10 219.83 1113.81 223.00 1113.00
C 256.18 1095.47 287.49 1071.42 323.00 1058.00
C 328.03 1055.26 332.78 1050.79 339.00 1050.00
C 339.49 1049.94 340.54 1050.13 341.00 1050.00
C 357.70 1045.42 370.95 1035.46 388.07 1031.07 C 405.20 1026.69 420.10 1018.94 438.02 1015.02 C 455.95 1011.11 473.46 1005.53 492.22 1002.22 C 510.98 998.91 530.32 996.41 550.00 994.00 C 569.68 991.59 592.25 990.00 613.00 990.00
C 625.57 988.78 640.50 988.79 653.00 990.00
C 700.03 990.00 745.13 997.88 791.00 1001.00
C 795.91 1001.33 799.83 1002.01 804.00 1003.00
C 820.31 1004.25 836.80 1007.37 853.00 1010.00
C 858.31 1009.79 859.50 1010.44 864.00 1012.00
C 915.41 1018.70 967.66 1031.95 1020.00 1033.00
C 1027.18 1033.14 1033.79 1033.89 1040.00 1035.00
C 1057.80 1035.36 1074.91 1037.00 1093.00 1037.00
C 1109.67 1037.00 1126.33 1037.00 1143.00 1037.00
C 1153.45 1037.00 1162.93 1035.28 1173.00 1035.00
C 1178.06 1034.14 1183.16 1033.00 1189.00 1033.00
C 1191.32 1033.00 1193.69 1033.15 1196.00 1033.00
C 1243.43 1029.99 1286.47 1011.97 1331.00 999.00
C 1331.27 998.87 1331.65 998.11 1332.00 998.00
C 1336.75 994.04 1345.04 991.91 1351.00 990.00
C 1370.87 983.64 1388.93 971.37 1408.00 963.00
C 1346.15 1031.11 1261.16 1070.58 1175.00 1092.00
M 1315.00 1065.00 
C 1278.85 1093.54 1237.80 1108.92 1197.00 1128.00
C 1193.14 1129.80 1189.75 1131.89 1185.00 1132.00
C 1184.50 1132.01 1184.00 1132.00 1184.00 1132.00
C 1180.21 1135.26 1173.96 1136.21 1169.00 1137.00
C 1163.92 1137.81 1159.15 1139.18 1154.00 1140.00
C 1149.31 1141.29 1145.48 1142.67 1140.00 1143.00
C 1116.36 1144.41 1092.78 1149.09 1069.00 1150.00
C 1059.92 1151.30 1048.99 1150.87 1040.00 1150.00
C 930.99 1150.00 830.56 1102.74 726.00 1084.00
C 715.75 1082.16 705.37 1079.16 695.00 1078.00
C 690.16 1077.46 685.53 1077.70 681.00 1076.00
C 688.86 1073.62 699.24 1075.90 707.00 1077.00
C 713.32 1077.56 719.87 1078.66 726.00 1080.00
C 753.80 1086.06 782.89 1089.90 811.00 1094.00
C 815.43 1094.65 820.04 1096.05 824.00 1097.00
C 844.65 1098.94 863.11 1107.58 884.01 1109.99 C 904.91 1112.40 924.72 1119.46 946.02 1121.98 C 967.32 1124.50 990.89 1129.00 1013.00 1129.00
C 1017.41 1129.00 1022.34 1129.65 1026.00 1130.00
C 1062.96 1130.00 1104.20 1128.72 1139.00 1123.00 C 1173.81 1117.28 1199.90 1105.84 1233.00 1097.00
C 1236.80 1095.44 1240.96 1093.59 1245.00 1092.00
C 1274.85 1080.28 1302.18 1063.67 1330.00 1048.00
C 1336.05 1043.68 1341.27 1037.58 1348.00 1034.00
C 1339.59 1046.36 1326.09 1055.14 1315.00 1065.00 Z"/>
</g>
<g fill="#DFDFDF" fill-opacity="1.00" stroke="None">
<path d="
M 0.00 1599.00 
L 0.00 1600.00
L 1600.00 1600.00
L 1600.00 0.00
L 1599.00 0.00
C 1598.98 533.00 1599.02 1066.01 1599.00 1599.00
C 1066.01 1598.98 533.00 1599.02 0.00 1599.00 Z"/>
</g>
<g fill="#FBFBFB" fill-opacity="1.00" stroke="None">
<path d="
M 1079.00 288.00 
C 1071.00 281.72 1060.82 277.52 1052.23 271.77 C 1043.64 266.02 1034.14 261.87 1025.25 256.75 C 1016.36 251.63 1008.09 245.82 999.08 240.92 C 990.06 236.03 981.08 230.98 972.23 225.77 C 963.38 220.56 954.50 215.58 945.70 210.30 C 936.90 205.03 927.85 200.33 919.08 194.92 C 910.30 189.52 901.13 185.07 892.23 179.77 C 883.33 174.47 874.63 169.74 865.70 164.30 C 856.76 158.87 847.83 155.24 839.08 148.92 C 830.33 142.60 821.04 141.19 812.25 133.75 C 803.46 126.31 794.86 126.72 786.08 134.08 C 777.29 141.44 768.02 143.00 759.23 149.23 C 750.44 155.46 741.63 159.27 732.70 164.69 C 723.76 170.12 714.92 174.69 706.08 180.08 C 697.24 185.47 688.00 189.82 679.23 195.23 C 670.46 200.64 661.51 205.46 652.70 210.70 C 643.88 215.94 634.92 220.89 626.08 226.08 C 617.23 231.26 608.26 236.38 599.23 241.23 C 590.20 246.08 582.00 252.06 573.08 257.08 C 564.15 262.09 554.78 266.58 546.23 272.23 C 537.68 277.88 527.68 281.41 520.00 288.00
C 534.54 288.48 550.62 287.36 565.00 288.00 C 579.38 288.64 596.19 286.77 610.00 288.00 C 623.81 289.23 632.29 281.63 642.77 275.77 C 653.25 269.91 661.27 264.87 671.31 259.31 C 681.34 253.74 689.92 248.26 699.77 242.77 C 709.62 237.28 718.60 232.05 728.31 226.30 C 738.01 220.56 747.22 216.18 756.77 209.77 C 766.32 203.37 775.97 201.16 785.31 193.31 C 794.64 185.45 804.79 186.54 813.92 194.08 C 823.05 201.61 833.50 203.59 842.77 210.23 C 852.04 216.87 861.77 220.77 871.30 226.70 C 880.84 232.63 889.96 237.69 899.77 243.23 C 909.58 248.76 918.23 254.14 928.30 259.70 C 938.37 265.25 946.34 270.13 956.77 276.23 C 967.20 282.32 976.19 289.45 990.00 288.00 C 1003.81 286.55 1020.73 288.77 1035.00 288.00 C 1049.27 287.23 1064.63 288.58 1079.00 288.00 Z"/>
</g>
<g fill="#FBFBFB" fill-opacity="1.00" stroke="None">
<path d="
M 647.00 350.00 
C 646.04 351.90 661.94 352.55 668.00 352.00 C 674.06 351.45 686.60 352.50 694.00 352.00 C 701.40 351.50 712.10 352.79 720.00 352.00 C 727.90 351.21 738.11 353.61 746.00 352.00
C 755.07 348.86 764.01 339.72 772.92 336.92 C 781.83 334.11 790.51 321.53 799.92 322.08 C 809.34 322.62 817.75 334.31 826.77 337.23 C 835.79 340.14 843.92 348.93 853.00 352.00
C 859.36 353.25 866.52 351.45 873.00 352.00 C 879.48 352.55 887.64 351.72 894.00 352.00 C 900.36 352.28 908.12 351.83 914.00 352.00 C 919.88 352.17 930.14 351.81 935.00 352.00 C 939.86 352.19 953.30 352.56 952.00 350.00
C 944.72 342.72 932.06 340.59 923.75 334.25 C 915.43 327.92 905.00 323.63 896.08 317.92 C 887.15 312.22 877.73 308.24 868.70 302.31 C 859.67 296.37 849.71 292.81 840.70 286.30 C 831.68 279.80 822.16 278.60 813.25 270.75 C 804.34 262.91 793.90 263.23 784.75 270.75 C 775.59 278.26 767.02 280.68 757.70 286.69 C 748.37 292.71 739.00 297.15 729.70 302.69 C 720.39 308.24 711.49 312.90 702.23 318.23 C 692.97 323.56 683.63 328.97 674.70 334.69 C 665.76 340.42 655.62 343.83 647.00 350.00 Z"/>
</g>
<g fill="#FCFCFC" fill-opacity="1.00" stroke="None">
<path d="
M 1154.00 749.00 
C 1162.37 741.77 1154.24 720.08 1157.00 710.00 C 1159.76 699.92 1155.69 696.53 1157.00 688.00 C 1158.31 679.47 1156.41 674.73 1157.00 667.00 C 1157.59 659.27 1156.75 653.40 1157.00 646.00 C 1157.25 638.60 1156.88 631.26 1157.00 624.00 C 1157.12 616.74 1156.95 610.16 1157.00 603.00 C 1157.05 595.84 1156.98 589.16 1157.00 582.00 C 1157.02 574.84 1156.99 567.14 1157.00 560.00 C 1157.01 552.86 1157.00 546.10 1157.00 539.00 C 1157.00 531.90 1157.00 525.13 1157.00 518.00 C 1157.00 510.87 1157.00 503.13 1157.00 496.00 C 1157.00 488.87 1157.00 482.09 1157.00 475.00 C 1157.00 467.91 1157.01 461.12 1157.00 454.00 C 1156.99 446.88 1157.02 439.10 1157.00 432.00 C 1156.98 424.90 1157.05 418.02 1157.00 411.00 C 1156.95 403.98 1157.12 396.96 1157.00 390.00 C 1156.88 383.04 1157.25 374.77 1157.00 368.00 C 1156.75 361.23 1157.58 353.26 1157.00 347.00 C 1156.42 340.74 1158.29 331.26 1157.00 326.00 C 1155.71 320.74 1160.19 307.49 1156.00 305.00
C 1146.73 309.14 1138.06 315.15 1129.08 320.08 C 1120.10 325.01 1111.06 330.05 1102.25 335.25 C 1093.43 340.44 1084.48 345.55 1075.70 350.70 C 1066.91 355.84 1058.62 360.82 1049.70 365.70 C 1040.77 370.58 1032.32 376.61 1023.23 381.23 C 1014.14 385.84 1005.61 391.82 996.70 396.70 C 987.78 401.57 979.43 406.48 970.70 411.70 C 961.96 416.91 952.71 421.57 944.08 427.08 C 935.44 432.58 926.00 436.90 917.23 442.23 C 908.46 447.56 899.53 452.46 890.70 457.70 C 881.86 462.93 873.39 466.98 864.70 472.70 C 856.00 478.41 846.75 481.72 838.08 488.08 C 829.41 494.44 820.10 496.06 811.23 503.23 C 802.36 510.40 793.96 508.71 785.08 501.92 C 776.19 495.14 766.99 492.84 758.23 486.77 C 749.47 480.70 740.59 476.65 731.75 471.25 C 722.90 465.86 714.68 461.24 705.70 456.31 C 696.71 451.37 688.33 445.47 679.23 440.77 C 670.13 436.07 661.51 430.45 652.70 425.31 C 643.88 420.16 634.66 415.44 626.08 409.92 C 617.49 404.41 608.41 400.63 599.75 395.25 C 591.08 389.88 582.19 384.62 573.23 379.77 C 564.27 374.92 555.53 369.31 546.70 364.30 C 537.86 359.30 529.38 354.56 520.70 349.30 C 512.02 344.04 502.76 339.25 494.08 333.92 C 485.39 328.60 476.07 323.76 467.23 318.77 C 458.39 313.78 450.36 307.71 441.00 304.00
C 440.99 322.00 441.01 340.00 441.00 358.00 C 440.99 376.00 441.01 394.01 441.00 412.00 C 440.99 429.99 441.03 448.01 441.00 466.00 C 440.97 483.99 441.06 502.03 441.00 520.00 C 440.94 537.97 441.14 556.07 441.00 574.00 C 440.86 591.93 441.31 610.16 441.00 628.00 C 440.69 645.84 441.69 664.35 441.00 682.00 C 440.32 699.65 442.52 718.77 441.00 736.00 C 439.48 753.23 457.55 754.25 468.77 762.23 C 479.99 770.21 491.43 775.08 502.77 782.23 C 514.11 789.37 525.65 795.04 536.92 802.08 C 548.20 809.12 560.11 814.59 571.30 821.70 C 582.49 828.80 594.32 834.65 605.75 841.25 C 617.19 847.84 628.26 854.83 639.77 861.23 C 651.28 867.63 662.48 874.52 673.92 881.08 C 685.37 887.63 696.88 894.06 708.30 900.70 C 719.73 907.34 730.95 913.88 742.31 920.70 C 753.66 927.51 765.64 932.90 776.77 940.23 C 787.90 947.56 800.36 956.37 811.75 946.75 C 823.15 937.14 834.36 934.67 845.77 926.77 C 857.18 918.87 868.67 914.39 879.92 906.92 C 891.18 899.46 903.08 894.53 914.30 887.30 C 925.52 880.07 937.37 874.51 948.75 867.75 C 960.14 860.99 971.32 854.31 982.77 847.77 C 994.22 841.23 1005.59 834.67 1016.92 827.92 C 1028.25 821.17 1039.97 815.09 1051.25 808.25 C 1062.54 801.42 1074.15 795.33 1085.31 788.31 C 1096.46 781.28 1108.66 775.84 1119.77 768.77 C 1130.88 761.70 1142.93 756.14 1154.00 749.00
M 495.00 394.00 
C 502.79 397.24 500.43 396.38 508.69 401.31 C 516.96 406.23 527.90 413.02 536.23 417.77 C 544.56 422.52 543.44 421.81 550.25 425.75 C 557.05 429.69 557.56 429.78 564.23 433.77 C 570.90 437.76 570.11 437.31 578.23 441.77 C 586.35 446.23 597.47 452.64 605.25 457.75 C 613.02 462.87 612.74 461.54 619.25 465.75 C 625.76 469.97 626.57 469.73 633.25 473.75 C 639.92 477.77 638.80 477.44 647.23 481.77 C 655.66 486.10 667.01 493.09 675.23 497.77 C 683.45 502.45 683.14 501.84 689.23 505.77 C 695.32 509.70 697.46 510.09 702.70 513.31 C 707.93 516.52 711.77 518.42 716.70 521.31 C 721.62 524.19 725.81 526.79 730.70 529.31 C 735.58 531.82 739.26 535.63 744.25 537.75 C 749.23 539.88 753.55 543.32 758.25 545.75 C 762.95 548.19 767.58 551.53 772.23 553.77 C 776.88 556.01 781.54 560.16 786.23 561.77 C 790.92 563.38 795.82 569.76 800.68 568.66 C 805.53 567.56 808.42 563.15 813.75 560.75 C 819.07 558.34 821.83 556.33 828.08 553.08 C 834.32 549.82 833.54 549.31 841.70 544.70 C 849.85 540.08 861.67 533.60 869.70 528.70 C 877.72 523.79 877.18 524.39 883.69 520.69 C 890.21 517.00 891.69 516.24 897.70 512.70 C 903.70 509.15 904.67 509.17 911.08 505.08 C 917.48 500.99 916.91 502.04 925.08 497.08 C 933.24 492.11 944.47 485.58 952.75 480.75 C 961.02 475.91 959.79 477.36 967.08 473.08 C 974.36 468.79 972.53 469.25 980.70 464.70 C 988.86 460.15 1000.07 453.71 1008.08 449.08 C 1016.10 444.45 1015.82 444.44 1022.08 441.08 C 1028.33 437.71 1030.78 436.04 1036.08 433.08 C 1041.38 430.11 1044.83 427.37 1049.75 424.75 C 1054.66 422.12 1059.36 419.31 1064.08 417.08 C 1068.79 414.84 1073.23 410.34 1077.70 408.70 C 1082.17 407.05 1087.73 401.42 1091.70 400.70 C 1095.66 399.97 1103.03 391.27 1106.00 393.00
C 1110.15 395.43 1105.85 407.54 1107.00 413.00 C 1108.15 418.46 1106.48 428.51 1107.00 435.00 C 1107.52 441.49 1106.77 450.05 1107.00 457.00 C 1107.23 463.95 1106.90 471.85 1107.00 479.00 C 1107.11 486.15 1106.95 493.76 1107.00 501.00 C 1107.05 508.24 1106.98 515.74 1107.00 523.00 C 1107.02 530.26 1106.99 537.77 1107.00 545.00 C 1107.01 552.23 1107.00 558.76 1107.00 566.00 C 1107.00 573.24 1107.01 580.72 1107.00 588.00 C 1106.99 595.28 1107.04 602.72 1107.00 610.00 C 1106.97 617.28 1107.08 624.75 1107.00 632.00 C 1106.92 639.25 1107.18 646.84 1107.00 654.00 C 1106.82 661.16 1107.39 669.05 1107.00 676.00 C 1106.61 682.95 1107.86 691.51 1107.00 698.00 C 1106.14 704.49 1109.83 713.83 1105.00 718.00
C 1094.42 727.13 1078.48 731.39 1066.77 739.77 C 1055.06 748.15 1041.00 753.79 1028.75 761.75 C 1016.50 769.72 1002.37 776.11 989.92 783.92 C 977.47 791.73 964.52 798.38 951.92 805.92 C 939.32 813.46 926.64 820.53 913.92 827.92 C 901.20 835.31 888.09 842.97 875.30 850.30 C 862.52 857.64 850.17 865.02 837.30 872.30 C 824.43 879.59 811.46 887.92 798.00 894.00
C 699.89 835.78 600.07 778.79 501.00 722.00
C 486.38 714.69 492.85 698.33 492.00 683.00 C 491.15 667.67 492.38 650.80 492.00 635.00 C 491.62 619.20 492.17 602.00 492.00 586.00 C 491.83 570.00 492.08 554.10 492.00 538.00 C 491.92 521.90 492.04 505.15 492.00 489.00 C 491.96 472.85 492.02 457.18 492.00 441.00 C 491.98 424.82 492.01 408.22 492.00 392.00
C 493.28 391.73 494.72 392.77 495.00 394.00 Z"/>
</g>
<g fill="#939393" fill-opacity="1.00" stroke="None">
<path d="
M 1156.00 305.00 
C 1160.19 307.49 1155.71 320.74 1157.00 326.00 C 1158.29 331.26 1156.42 340.74 1157.00 347.00 C 1157.58 353.26 1156.75 361.23 1157.00 368.00 C 1157.25 374.77 1156.88 383.04 1157.00 390.00 C 1157.12 396.96 1156.95 403.98 1157.00 411.00 C 1157.05 418.02 1156.98 424.90 1157.00 432.00 C 1157.02 439.10 1156.99 446.88 1157.00 454.00 C 1157.01 461.12 1157.00 467.91 1157.00 475.00 C 1157.00 482.09 1157.00 488.87 1157.00 496.00 C 1157.00 503.13 1157.00 510.87 1157.00 518.00 C 1157.00 525.13 1157.00 531.90 1157.00 539.00 C 1157.00 546.10 1157.01 552.86 1157.00 560.00 C 1156.99 567.14 1157.02 574.84 1157.00 582.00 C 1156.98 589.16 1157.05 595.84 1157.00 603.00 C 1156.95 610.16 1157.12 616.74 1157.00 624.00 C 1156.88 631.26 1157.25 638.60 1157.00 646.00 C 1156.75 653.40 1157.59 659.27 1157.00 667.00 C 1156.41 674.73 1158.31 679.47 1157.00 688.00 C 1155.69 696.53 1159.76 699.92 1157.00 710.00 C 1154.24 720.08 1162.37 741.77 1154.00 749.00
C 1160.92 744.53 1157.44 735.00 1158.00 727.00 C 1158.56 719.00 1157.75 710.18 1158.00 702.00 C 1158.25 693.82 1157.89 685.27 1158.00 677.00 C 1158.11 668.73 1157.95 660.30 1158.00 652.00 C 1158.05 643.70 1157.98 635.32 1158.00 627.00 C 1158.02 618.68 1157.99 610.34 1158.00 602.00 C 1158.01 593.66 1158.00 585.35 1158.00 577.00 C 1158.01 568.65 1158.00 560.38 1158.00 552.00 C 1158.00 543.62 1158.00 535.43 1158.00 527.00 C 1158.00 518.57 1158.00 509.43 1158.00 501.00 C 1158.00 492.57 1158.00 484.36 1158.00 476.00 C 1158.00 467.64 1158.01 459.32 1158.00 451.00 C 1157.99 442.68 1158.02 434.26 1158.00 426.00 C 1157.98 417.74 1158.04 409.16 1158.00 401.00 C 1157.96 392.84 1158.09 383.95 1158.00 376.00 C 1157.91 368.05 1158.21 358.48 1158.00 351.00 C 1157.79 343.52 1158.46 332.44 1158.00 326.00 C 1157.54 319.56 1159.92 305.04 1156.00 305.00 Z"/>
</g>
<g fill="#7E7E7E" fill-opacity="1.00" stroke="None">
<path d="
M 746.00 352.00 
C 738.11 353.61 727.90 351.21 720.00 352.00 C 712.10 352.79 701.40 351.50 694.00 352.00 C 686.60 352.50 674.06 351.45 668.00 352.00 C 661.94 352.55 646.04 351.90 647.00 350.00
C 645.84 350.77 643.49 351.08 644.00 353.00
C 660.62 351.56 679.62 354.92 696.00 353.00 C 712.38 351.08 731.01 357.20 746.00 352.00 Z"/>
</g>
<g fill="#7F7F7F" fill-opacity="1.00" stroke="None">
<path d="
M 853.00 352.00 
C 885.68 354.33 920.50 352.33 954.00 353.00
C 954.55 351.24 952.87 350.87 952.00 350.00
C 953.30 352.56 939.86 352.19 935.00 352.00 C 930.14 351.81 919.88 352.17 914.00 352.00 C 908.12 351.83 900.36 352.28 894.00 352.00 C 887.64 351.72 879.48 352.55 873.00 352.00 C 866.52 351.45 859.36 353.25 853.00 352.00 Z"/>
</g>
<g fill="#878787" fill-opacity="1.00" stroke="None">
<path d="
M 501.00 722.00 
C 494.57 717.98 492.09 714.15 493.00 706.00 C 493.91 697.85 492.59 690.11 493.00 682.00 C 493.41 673.89 492.82 666.13 493.00 658.00 C 493.18 649.87 492.92 641.13 493.00 633.00 C 493.08 624.87 492.96 617.09 493.00 609.00 C 493.04 600.91 492.98 593.12 493.00 585.00 C 493.02 576.88 492.99 568.10 493.00 560.00 C 493.01 551.90 492.99 544.03 493.00 536.00 C 493.01 527.97 492.98 519.98 493.00 512.00 C 493.02 504.02 492.95 495.92 493.00 488.00 C 493.05 480.08 492.90 470.71 493.00 463.00 C 493.10 455.29 492.77 446.14 493.00 439.00 C 493.23 431.86 492.49 420.99 493.00 415.00 C 493.51 409.01 491.01 393.92 495.00 394.00
C 494.72 392.77 493.28 391.73 492.00 392.00
C 492.01 408.22 491.98 424.82 492.00 441.00 C 492.02 457.18 491.96 472.85 492.00 489.00 C 492.04 505.15 491.92 521.90 492.00 538.00 C 492.08 554.10 491.83 570.00 492.00 586.00 C 492.17 602.00 491.62 619.20 492.00 635.00 C 492.38 650.80 491.15 667.67 492.00 683.00 C 492.85 698.33 486.38 714.69 501.00 722.00 Z"/>
</g>
<g fill="#000000" fill-opacity="1.00" stroke="None">
<path d="
M 501.00 722.00 
C 600.07 778.79 699.89 835.78 798.00 894.00
C 811.46 887.92 824.43 879.59 837.30 872.30 C 850.17 865.02 862.52 857.64 875.30 850.30 C 888.09 842.97 901.20 835.31 913.92 827.92 C 926.64 820.53 939.32 813.46 951.92 805.92 C 964.52 798.38 977.47 791.73 989.92 783.92 C 1002.37 776.11 1016.50 769.72 1028.75 761.75 C 1041.00 753.79 1055.06 748.15 1066.77 739.77 C 1078.48 731.39 1094.42 727.13 1105.00 718.00
C 1110.30 711.61 1104.33 698.48 1106.00 690.00 C 1107.67 681.52 1105.22 669.22 1106.00 660.00 C 1106.78 650.78 1105.66 640.60 1106.00 631.00 C 1106.34 621.40 1105.85 610.78 1106.00 601.00 C 1106.15 591.22 1105.93 580.83 1106.00 571.00 C 1106.07 561.17 1105.97 551.86 1106.00 542.00 C 1106.03 532.14 1105.99 521.91 1106.00 512.00 C 1106.01 502.09 1105.99 491.89 1106.00 482.00 C 1106.01 472.11 1106.00 462.90 1106.00 453.00 C 1106.00 443.10 1106.00 432.95 1106.00 423.00 C 1106.00 413.05 1106.00 402.96 1106.00 393.00
C 1103.03 391.27 1095.66 399.97 1091.70 400.70 C 1087.73 401.42 1082.17 407.05 1077.70 408.70 C 1073.23 410.34 1068.79 414.84 1064.08 417.08 C 1059.36 419.31 1054.66 422.12 1049.75 424.75 C 1044.83 427.37 1041.38 430.11 1036.08 433.08 C 1030.78 436.04 1028.33 437.71 1022.08 441.08 C 1015.82 444.44 1016.10 444.45 1008.08 449.08 C 1000.07 453.71 988.86 460.15 980.70 464.70 C 972.53 469.25 974.36 468.79 967.08 473.08 C 959.79 477.36 961.02 475.91 952.75 480.75 C 944.47 485.58 933.24 492.11 925.08 497.08 C 916.91 502.04 917.48 500.99 911.08 505.08 C 904.67 509.17 903.70 509.15 897.70 512.70 C 891.69 516.24 890.21 517.00 883.69 520.69 C 877.18 524.39 877.72 523.79 869.70 528.70 C 861.67 533.60 849.85 540.08 841.70 544.70 C 833.54 549.31 834.32 549.82 828.08 553.08 C 821.83 556.33 819.07 558.34 813.75 560.75 C 808.42 563.15 805.53 567.56 800.68 568.66 C 795.82 569.76 790.92 563.38 786.23 561.77 C 781.54 560.16 776.88 556.01 772.23 553.77 C 767.58 551.53 762.95 548.19 758.25 545.75 C 753.55 543.32 749.23 539.88 744.25 537.75 C 739.26 535.63 735.58 531.82 730.70 529.31 C 725.81 526.79 721.62 524.19 716.70 521.31 C 711.77 518.42 707.93 516.52 702.70 513.31 C 697.46 510.09 695.32 509.70 689.23 505.77 C 683.14 501.84 683.45 502.45 675.23 497.77 C 667.01 493.09 655.66 486.10 647.23 481.77 C 638.80 477.44 639.92 477.77 633.25 473.75 C 626.57 469.73 625.76 469.97 619.25 465.75 C 612.74 461.54 613.02 462.87 605.25 457.75 C 597.47 452.64 586.35 446.23 578.23 441.77 C 570.11 437.31 570.90 437.76 564.23 433.77 C 557.56 429.78 557.05 429.69 550.25 425.75 C 543.44 421.81 544.56 422.52 536.23 417.77 C 527.90 413.02 516.96 406.23 508.69 401.31 C 500.43 396.38 502.79 397.24 495.00 394.00
C 491.01 393.92 493.51 409.01 493.00 415.00 C 492.49 420.99 493.23 431.86 493.00 439.00 C 492.77 446.14 493.10 455.29 493.00 463.00 C 492.90 470.71 493.05 480.08 493.00 488.00 C 492.95 495.92 493.02 504.02 493.00 512.00 C 492.98 519.98 493.01 527.97 493.00 536.00 C 492.99 544.03 493.01 551.90 493.00 560.00 C 492.99 568.10 493.02 576.88 493.00 585.00 C 492.98 593.12 493.04 600.91 493.00 609.00 C 492.96 617.09 493.08 624.87 493.00 633.00 C 492.92 641.13 493.18 649.87 493.00 658.00 C 492.82 666.13 493.41 673.89 493.00 682.00 C 492.59 690.11 493.91 697.85 493.00 706.00 C 492.09 714.15 494.57 717.98 501.00 722.00 Z"/>
</g>
<g fill="#757575" fill-opacity="1.00" stroke="None">
<path d="
M 1105.00 718.00 
C 1109.83 713.83 1106.14 704.49 1107.00 698.00 C 1107.86 691.51 1106.61 682.95 1107.00 676.00 C 1107.39 669.05 1106.82 661.16 1107.00 654.00 C 1107.18 646.84 1106.92 639.25 1107.00 632.00 C 1107.08 624.75 1106.97 617.28 1107.00 610.00 C 1107.04 602.72 1106.99 595.28 1107.00 588.00 C 1107.01 580.72 1107.00 573.24 1107.00 566.00 C 1107.00 558.76 1107.01 552.23 1107.00 545.00 C 1106.99 537.77 1107.02 530.26 1107.00 523.00 C 1106.98 515.74 1107.05 508.24 1107.00 501.00 C 1106.95 493.76 1107.11 486.15 1107.00 479.00 C 1106.90 471.85 1107.23 463.95 1107.00 457.00 C 1106.77 450.05 1107.52 441.49 1107.00 435.00 C 1106.48 428.51 1108.15 418.46 1107.00 413.00 C 1105.85 407.54 1110.15 395.43 1106.00 393.00
C 1106.00 402.96 1106.00 413.05 1106.00 423.00 C 1106.00 432.95 1106.00 443.10 1106.00 453.00 C 1106.00 462.90 1106.01 472.11 1106.00 482.00 C 1105.99 491.89 1106.01 502.09 1106.00 512.00 C 1105.99 521.91 1106.03 532.14 1106.00 542.00 C 1105.97 551.86 1106.07 561.17 1106.00 571.00 C 1105.93 580.83 1106.15 591.22 1106.00 601.00 C 1105.85 610.78 1106.34 621.40 1106.00 631.00 C 1105.66 640.60 1106.78 650.78 1106.00 660.00 C 1105.22 669.22 1107.67 681.52 1106.00 690.00 C 1104.33 698.48 1110.30 711.61 1105.00 718.00 Z"/>
</g>
<g fill="#01A38B" fill-opacity="1.00" stroke="None">
<path d="
M 1351.00 990.00 
C 1349.47 990.68 1347.77 992.24 1346.00 993.00
C 1341.18 995.80 1336.47 997.41 1331.00 999.00
C 1286.47 1011.97 1243.43 1029.99 1196.00 1033.00
C 1190.64 1033.96 1185.11 1035.00 1179.00 1035.00
C 1177.00 1035.00 1175.00 1034.94 1173.00 1035.00
C 1162.93 1035.28 1153.45 1037.00 1143.00 1037.00
C 1127.30 1038.52 1108.63 1038.51 1093.00 1037.00
C 1074.91 1037.00 1057.80 1035.36 1040.00 1035.00
C 1033.37 1034.87 1026.04 1033.73 1020.00 1033.00
C 967.66 1031.95 915.41 1018.70 864.00 1012.00
C 860.37 1011.53 856.14 1010.51 853.00 1010.00
C 836.80 1007.37 820.31 1004.25 804.00 1003.00
C 799.33 1002.64 795.03 1001.83 791.00 1001.00
C 745.13 997.88 700.03 990.00 653.00 990.00
C 639.67 990.00 626.33 990.00 613.00 990.00
C 592.25 990.00 569.68 991.59 550.00 994.00 C 530.32 996.41 510.98 998.91 492.22 1002.22 C 473.46 1005.53 455.95 1011.11 438.02 1015.02 C 420.10 1018.94 405.20 1026.69 388.07 1031.07 C 370.95 1035.46 357.70 1045.42 341.00 1050.00
C 336.32 1052.72 331.32 1055.30 326.00 1057.00
C 324.96 1057.33 324.06 1057.60 323.00 1058.00
C 287.49 1071.42 256.18 1095.47 223.00 1113.00
C 221.96 1114.54 222.21 1114.77 224.00 1115.00
C 252.54 1100.41 283.64 1092.59 313.92 1081.92 C 344.21 1071.26 378.19 1061.92 410.00 1056.00
C 414.32 1054.71 419.13 1053.63 424.00 1053.00
C 458.99 1048.45 494.11 1042.72 530.00 1042.00
C 533.00 1041.94 536.00 1042.00 539.00 1042.00
C 551.88 1040.75 567.19 1040.76 580.00 1042.00
C 584.33 1042.00 588.67 1042.00 593.00 1042.00
C 597.50 1042.00 602.21 1042.38 606.00 1043.00
C 639.12 1043.65 674.93 1050.84 707.00 1055.00 C 739.07 1059.16 769.28 1069.19 800.93 1074.07 C 832.58 1078.96 862.12 1090.47 894.00 1093.00
C 899.98 1093.48 903.94 1094.53 909.00 1096.00
C 942.73 1099.77 976.38 1107.00 1011.00 1107.00
C 1029.67 1107.00 1048.33 1107.00 1067.00 1107.00
C 1097.15 1107.00 1125.77 1100.27 1155.00 1097.00
C 1161.35 1095.52 1168.06 1092.90 1175.00 1092.00
C 1261.16 1070.58 1346.15 1031.11 1408.00 963.00
C 1388.93 971.37 1370.87 983.64 1351.00 990.00 Z"/>
</g>
<g fill="#064A42" fill-opacity="1.00" stroke="None">
<path d="
M 613.00 990.00 
C 626.33 990.00 639.67 990.00 653.00 990.00
C 640.50 988.79 625.57 988.78 613.00 990.00 Z"/>
</g>
<g fill="#022E28" fill-opacity="1.00" stroke="None">
<path d="
M 1332.00 998.00 
C 1336.66 996.54 1341.50 994.94 1346.00 993.00
C 1347.77 992.24 1349.47 990.68 1351.00 990.00
C 1345.04 991.91 1336.75 994.04 1332.00 998.00 Z"/>
</g>
<g fill="#0A7462" fill-opacity="1.00" stroke="None">
<path d="
M 1332.00 998.00 
C 1331.65 998.11 1331.27 998.87 1331.00 999.00
C 1336.47 997.41 1341.18 995.80 1346.00 993.00
C 1341.50 994.94 1336.66 996.54 1332.00 998.00 Z"/>
</g>
<g fill="#06493E" fill-opacity="1.00" stroke="None">
<path d="
M 804.00 1003.00 
C 799.83 1002.01 795.91 1001.33 791.00 1001.00
C 795.03 1001.83 799.33 1002.64 804.00 1003.00 Z"/>
</g>
<g fill="#012D27" fill-opacity="1.00" stroke="None">
<path d="
M 853.00 1010.00 
C 856.14 1010.51 860.37 1011.53 864.00 1012.00
C 859.50 1010.44 858.31 1009.79 853.00 1010.00 Z"/>
</g>
<g fill="#04423A" fill-opacity="1.00" stroke="None">
<path d="
M 1040.00 1035.00 
C 1033.79 1033.89 1027.18 1033.14 1020.00 1033.00
C 1026.04 1033.73 1033.37 1034.87 1040.00 1035.00 Z"/>
</g>
<g fill="#012821" fill-opacity="1.00" stroke="None">
<path d="
M 1173.00 1035.00 
C 1175.00 1034.94 1177.00 1035.00 1179.00 1035.00
C 1181.52 1034.76 1186.54 1033.23 1189.00 1033.00
C 1183.16 1033.00 1178.06 1034.14 1173.00 1035.00 Z"/>
</g>
<g fill="#096355" fill-opacity="1.00" stroke="None">
<path d="
M 1179.00 1035.00 
C 1185.11 1035.00 1190.64 1033.96 1196.00 1033.00
C 1193.69 1033.15 1191.32 1033.00 1189.00 1033.00
C 1186.54 1033.23 1181.52 1034.76 1179.00 1035.00 Z"/>
</g>
<g fill="#12806D" fill-opacity="1.00" stroke="None">
<path d="
M 1330.00 1048.00 
C 1334.21 1045.63 1337.57 1041.62 1342.00 1040.00
C 1334.16 1049.63 1322.96 1055.67 1315.00 1065.00
C 1326.09 1055.14 1339.59 1046.36 1348.00 1034.00
C 1341.27 1037.58 1336.05 1043.68 1330.00 1048.00 Z"/>
</g>
<g fill="#08433A" fill-opacity="1.00" stroke="None">
<path d="
M 1143.00 1037.00 
C 1126.33 1037.00 1109.67 1037.00 1093.00 1037.00
C 1108.63 1038.51 1127.30 1038.52 1143.00 1037.00 Z"/>
</g>
<g fill="#049E87" fill-opacity="1.00" stroke="None">
<path d="
M 1330.00 1048.00 
C 1302.18 1063.67 1274.85 1080.28 1245.00 1092.00
C 1241.11 1094.08 1237.48 1095.80 1233.00 1097.00
C 1199.90 1105.84 1173.81 1117.28 1139.00 1123.00 C 1104.20 1128.72 1062.96 1130.00 1026.00 1130.00
C 1021.59 1130.00 1016.66 1129.35 1013.00 1129.00
C 990.89 1129.00 967.32 1124.50 946.02 1121.98 C 924.72 1119.46 904.91 1112.40 884.01 1109.99 C 863.11 1107.58 844.65 1098.94 824.00 1097.00
C 818.36 1096.47 815.52 1095.67 811.00 1094.00
C 782.89 1089.90 753.80 1086.06 726.00 1080.00
C 725.32 1080.07 723.36 1081.93 722.00 1081.00
C 722.74 1082.53 725.77 1081.67 726.00 1084.00
C 830.56 1102.74 930.99 1150.00 1040.00 1150.00
C 1049.64 1150.00 1059.37 1150.37 1069.00 1150.00
C 1092.78 1149.09 1116.36 1144.41 1140.00 1143.00
C 1144.26 1142.39 1149.36 1140.74 1154.00 1140.00
C 1159.15 1139.18 1163.92 1137.81 1169.00 1137.00
C 1173.69 1135.63 1178.63 1132.20 1184.00 1132.00
C 1184.00 1132.00 1184.50 1132.01 1185.00 1132.00
C 1189.05 1129.88 1192.38 1129.07 1197.00 1128.00
C 1237.80 1108.92 1278.85 1093.54 1315.00 1065.00
C 1322.96 1055.67 1334.16 1049.63 1342.00 1040.00
C 1337.57 1041.62 1334.21 1045.63 1330.00 1048.00 Z"/>
</g>
<g fill="#085C50" fill-opacity="1.00" stroke="None">
<path d="
M 539.00 1042.00 
C 552.67 1042.00 566.33 1042.00 580.00 1042.00
C 567.19 1040.76 551.88 1040.75 539.00 1042.00 Z"/>
</g>
<g fill="#011A16" fill-opacity="1.00" stroke="None">
<path d="
M 602.00 1043.00 
C 598.90 1043.00 595.36 1042.23 593.00 1042.00
C 588.67 1042.00 584.33 1042.00 580.00 1042.00
C 566.33 1042.00 552.67 1042.00 539.00 1042.00
C 536.00 1042.00 533.00 1041.94 530.00 1042.00
C 551.88 1043.68 580.54 1045.92 602.00 1043.00 Z"/>
</g>
<g fill="#0C685A" fill-opacity="1.00" stroke="None">
<path d="
M 602.00 1043.00 
C 603.33 1043.00 604.67 1042.97 606.00 1043.00
C 602.21 1042.38 597.50 1042.00 593.00 1042.00
C 595.36 1042.23 598.90 1043.00 602.00 1043.00 Z"/>
</g>
<g fill="#02332D" fill-opacity="1.00" stroke="None">
<path d="
M 323.00 1058.00 
C 324.06 1057.60 324.96 1057.33 326.00 1057.00
C 330.21 1055.01 334.87 1052.03 339.00 1050.00
C 332.78 1050.79 328.03 1055.26 323.00 1058.00 Z"/>
</g>
<g fill="#0A7766" fill-opacity="1.00" stroke="None">
<path d="
M 326.00 1057.00 
C 331.32 1055.30 336.32 1052.72 341.00 1050.00
C 340.54 1050.13 339.49 1049.94 339.00 1050.00
C 334.87 1052.03 330.21 1055.01 326.00 1057.00 Z"/>
</g>
<g fill="#0C7263" fill-opacity="1.00" stroke="None">
<path d="
M 410.00 1056.00 
C 414.81 1055.11 419.67 1054.02 424.00 1053.00
C 419.13 1053.63 414.32 1054.71 410.00 1056.00 Z"/>
</g>
<g fill="#082922" fill-opacity="1.00" stroke="None">
<path d="
M 695.00 1078.00 
C 698.38 1077.74 702.89 1076.64 707.00 1077.00
C 699.24 1075.90 688.86 1073.62 681.00 1076.00
C 685.53 1077.70 690.16 1077.46 695.00 1078.00 Z"/>
</g>
<g fill="#0F6759" fill-opacity="1.00" stroke="None">
<path d="
M 695.00 1078.00 
C 705.37 1079.16 715.75 1082.16 726.00 1084.00
C 725.77 1081.67 722.74 1082.53 722.00 1081.00
C 723.36 1081.93 725.32 1080.07 726.00 1080.00
C 719.87 1078.66 713.32 1077.56 707.00 1077.00
C 702.89 1076.64 698.38 1077.74 695.00 1078.00 Z"/>
</g>
<g fill="#044B40" fill-opacity="1.00" stroke="None">
<path d="
M 1155.00 1097.00 
C 1162.22 1096.19 1168.82 1093.95 1175.00 1092.00
C 1168.06 1092.90 1161.35 1095.52 1155.00 1097.00 Z"/>
</g>
<g fill="#0A6D5D" fill-opacity="1.00" stroke="None">
<path d="
M 1233.00 1097.00 
C 1237.48 1095.80 1241.11 1094.08 1245.00 1092.00
C 1240.96 1093.59 1236.80 1095.44 1233.00 1097.00 Z"/>
</g>
<g fill="#044D42" fill-opacity="1.00" stroke="None">
<path d="
M 909.00 1096.00 
C 903.94 1094.53 899.98 1093.48 894.00 1093.00
C 898.77 1094.47 903.48 1095.38 909.00 1096.00 Z"/>
</g>
<g fill="#055447" fill-opacity="1.00" stroke="None">
<path d="
M 824.00 1097.00 
C 820.04 1096.05 815.43 1094.65 811.00 1094.00
C 815.52 1095.67 818.36 1096.47 824.00 1097.00 Z"/>
</g>
<g fill="#0D584B" fill-opacity="1.00" stroke="None">
<path d="
M 1067.00 1107.00 
C 1048.33 1107.00 1029.67 1107.00 1011.00 1107.00
C 1028.50 1108.69 1049.43 1108.70 1067.00 1107.00 Z"/>
</g>
<g fill="#0C3F35" fill-opacity="1.00" stroke="None">
<path d="
M 224.00 1115.00 
C 222.21 1114.77 221.96 1114.54 223.00 1113.00
C 219.83 1113.81 216.82 1116.10 215.00 1119.00
C 218.84 1119.95 221.37 1116.35 224.00 1115.00 Z"/>
</g>
<g fill="#06453B" fill-opacity="1.00" stroke="None">
<path d="
M 1185.00 1132.00 
C 1189.75 1131.89 1193.14 1129.80 1197.00 1128.00
C 1192.38 1129.07 1189.05 1129.88 1185.00 1132.00 Z"/>
</g>
<g fill="#05483F" fill-opacity="1.00" stroke="None">
<path d="
M 1026.00 1130.00 
C 1022.34 1129.65 1017.41 1129.00 1013.00 1129.00
C 1016.66 1129.35 1021.59 1130.00 1026.00 1130.00 Z"/>
</g>
<g fill="#024138" fill-opacity="1.00" stroke="None">
<path d="
M 1169.00 1137.00 
C 1173.96 1136.21 1180.21 1135.26 1184.00 1132.00
C 1178.63 1132.20 1173.69 1135.63 1169.00 1137.00 Z"/>
</g>
<g fill="#06453B" fill-opacity="1.00" stroke="None">
<path d="
M 1140.00 1143.00 
C 1145.48 1142.67 1149.31 1141.29 1154.00 1140.00
C 1149.36 1140.74 1144.26 1142.39 1140.00 1143.00 Z"/>
</g>
<g fill="#094B42" fill-opacity="1.00" stroke="None">
<path d="
M 1069.00 1150.00 
C 1059.37 1150.37 1049.64 1150.00 1040.00 1150.00
C 1048.99 1150.87 1059.92 1151.30 1069.00 1150.00 Z"/>
</g>
</svg>